<svg width="155" height="227" fill="none" xmlns="http://www.w3.org/2000/svg"><path d="M24.635 205.705S24.1 179.5 46.445 166.63c0 0 .31 24.76-21.81 39.075z" fill="#404B7C"/><path d="M26.31 203.225a.256.256 0 01-.124-.032.248.248 0 01-.096-.338l18.095-33.04a.252.252 0 01.34-.1.252.252 0 01.1.34l-18.095 33.04a.25.25 0 01-.22.13zm-3.915-1.85s-5.5-25.625 14-42.5c0 0 5 24.25-14 42.5z" fill="#9AB3DA"/><path d="M23.5 198.625h-.075a.25.25 0 01-.16-.315l11.5-35.875a.262.262 0 01.325-.175.258.258 0 01.155.126.263.263 0 01.02.199l-11.5 35.875a.249.249 0 01-.265.165zm-.695 8.45s-2.29-21.69-22.085-30c0 .02 2.33 20.495 22.085 30z" fill="#404B7C"/><path d="M21.14 205.245a.244.244 0 01-.115-.028.242.242 0 01-.09-.077l-18.39-25.385a.25.25 0 01.405-.295l18.39 25.39a.25.25 0 01-.2.395z" fill="#9AB3DA"/><path d="M21.655 202.555s17.73-26.8 3-54.775c.005 0-16.54 25.45-3 54.775z" fill="#404B7C"/><path d="M21.71 198.88a.24.24 0 01-.095-.025.244.244 0 01-.14-.24l2.89-46.115a.245.245 0 01.084-.172.253.253 0 01.181-.063.24.24 0 01.095.025.253.253 0 01.14.24l-2.905 46.095a.249.249 0 01-.25.255z" fill="#9AB3DA"/><path d="M20.895 201.625s5.5-25.625-14-42.5c0 0-5 24.25 14 42.5z" fill="#9AB3DA"/><path d="M38.75 199.835l-3.125 26.415H7.875L4.75 199.835a92.534 92.534 0 0134 0z" fill="#F68D88"/><path d="M30.335 212.585c-5.04.54-6.125 1.335-7.375 6.915-.64 2.85-3.185 5.165-5.54 6.75h5.445a10.95 10.95 0 003.68-6.915c.71-5.165 4.335-4.75 8.25-4.29.713.088 1.433.11 2.15.065l.555-4.69c-1.42 1.34-3.785 1.8-7.165 2.165zm-11.545.75c-.165-5.625.375-7.875 7.835-8.04 4.835-.11 6.81-3.68 7.61-6.18a128.38 128.38 0 00-4.21-.5c-.55 2.03-2.375 4.61-8.145 4.405-9.415-.335-3.79 8.375-8.46 11.165-2.77 1.655-5.395.42-7.065-.855l.5 4.33c4.98 3.315 12.09.84 11.935-4.325z" fill="#F9D4D4"/><path d="M126.025 61.145l-2.735 6.19h-4.955l-2.37-5.375 4.85-.565 5.21-.25z" fill="#404B7C"/><path d="M133.645 34.125a12.796 12.796 0 01-3.77 9.375 8.853 8.853 0 00-2.465 5.185l-.965 7.66H115.15l-.965-7.665a9.05 9.05 0 00-2.5-5.245 12.85 12.85 0 1121.96-9.31z" fill="#F68D88"/><path d="M120.8 42.925a1.679 1.679 0 01-1.547-1.034 1.678 1.678 0 01.363-1.825 1.673 1.673 0 012.577.253 1.675 1.675 0 01-1.393 2.606zm0-2.915a1.247 1.247 0 00-1.221 1.488 1.246 1.246 0 102.374-.723A1.241 1.241 0 00120.8 40v.01z" fill="#fff"/><path d="M120.8 56.105a.214.214 0 01-.215-.215V42.71a.216.216 0 01.215-.215.215.215 0 01.215.215v13.185a.215.215 0 01-.215.21zm0-17.305a.214.214 0 01-.215-.215v-2.17a.216.216 0 01.215-.215.214.214 0 01.215.215v2.165a.201.201 0 01-.015.084.208.208 0 01-.117.12.209.209 0 01-.083.016zm1.885.78a.214.214 0 01-.15-.365l1.53-1.53a.219.219 0 01.153-.063.214.214 0 01.215.215.212.212 0 01-.063.153l-1.535 1.51a.214.214 0 01-.15.08zm2.95 1.885h-2.165a.215.215 0 110-.43h2.165a.214.214 0 01.152.367.215.215 0 01-.152.063zm-1.415 3.415a.214.214 0 01-.15-.065l-1.53-1.53a.217.217 0 010-.305.214.214 0 01.305 0l1.53 1.53c.031.03.053.07.062.112a.22.22 0 01-.094.224.218.218 0 01-.123.034zm-6.84 0a.214.214 0 01-.15-.365l1.53-1.53a.217.217 0 01.305 0 .212.212 0 01.063.153.212.212 0 01-.063.152l-1.53 1.53a.217.217 0 01-.155.06zm.755-3.415h-2.165a.215.215 0 110-.43h2.165a.214.214 0 01.152.367.215.215 0 01-.152.063zm.78-1.885a.215.215 0 01-.15-.065L117.23 38a.219.219 0 01-.063-.153.212.212 0 01.133-.199.214.214 0 01.235.047l1.53 1.53a.214.214 0 01-.039.316.211.211 0 01-.111.039z" fill="#fff"/><path d="M127.08 59.18a1.13 1.13 0 01-.58.32.93.93 0 01.89.94 1.09 1.09 0 01-.3.74 1.13 1.13 0 01-.735.345l-11.06.785a.941.941 0 01-1.035-.935c.002-.277.111-.542.305-.74.157-.166.361-.28.585-.325a.936.936 0 01-.89-.94 1.104 1.104 0 01.905-1.065.937.937 0 01-.905-.94 1.06 1.06 0 01.305-.735 1.1 1.1 0 01.73-.35l11.05-.78a.94.94 0 011.035.94 1.068 1.068 0 01-.3.735c-.155.166-.357.28-.58.325a.93.93 0 01.905.94c-.007.28-.124.545-.325.74z" fill="#9AB3DA"/><path d="M115.555 58.5a.251.251 0 01-.25-.25.249.249 0 01.25-.25L126 57.25a.254.254 0 01.259.327.24.24 0 01-.048.086.245.245 0 01-.171.087l-10.465.75h-.02zm0 2a.251.251 0 01-.25-.25.25.25 0 01.25-.25l10.315-.77a.251.251 0 01.035.5l-10.33.77h-.02z" fill="#404B7C"/><path d="M129.58 30.576c.912-.884.458-2.832-1.014-4.35-1.472-1.52-3.404-2.034-4.317-1.15-.912.884-.458 2.832 1.014 4.35 1.472 1.52 3.405 2.035 4.317 1.15zM122.665.415l-.935 17.255h-1.88L118.915.415h3.75zM98.09 9.05l11.535 12.86-1.325 1.33-12.86-11.535 2.65-2.655zM86.82 32.535l17.25.935v1.88l-17.25.935v-3.75zm8.63 24.575l12.865-11.54 1.325 1.33-11.535 12.86-2.655-2.65zm48.06 2.635l-11.54-12.86 1.33-1.33 12.86 11.54-2.65 2.65zm11.27-23.48l-17.25-.935v-1.88l17.25-.935v3.75zm-8.63-24.575l-12.865 11.535-1.325-1.33 11.535-12.86 2.655 2.655z" fill="#F9D4D4"/><path d="M96.835 195.125l-.185 4.825-.255 6.675h-4.5l-.46-4.855-.665-7.02 6.065.375z" fill="#ECBDBB"/><path d="M96.835 195.125l-.185 4.825-5.215 1.82-.665-7.02 6.065.375zM88 225.085l22.065.065s.92-8.77-6.27-9.895a3.488 3.488 0 01-.635-.165c-3.89-1.435-5.7-10.085-5.7-10.085s-4.625-1.125-7.375.44c0 0-1.865 9.05-2.165 16.81-.045 1.035.05 1.865.08 2.83z" fill="#404B7C"/><path d="M100.425 216.97a.253.253 0 01-.095 0 8.65 8.65 0 01-3.425-3.09c-2-2.91-3.355-8.29-3.41-8.5a.257.257 0 01.5-.12c0 .055 1.385 5.5 3.34 8.355a8.328 8.328 0 003.165 2.885.252.252 0 01.11.109.249.249 0 01-.185.361z" fill="#9AB3DA"/><path d="M87.775 225.31h22.435s.875-9.06-6.315-10.185a3.488 3.488 0 01-.635-.165c-2.09.765-4.855 2.66-5.885 7.33h-9.58c-.04 1.04-.05 2.055-.02 3.02zm3.825-8.055c.837 0 1.515-1.316 1.515-2.94 0-1.624-.678-2.94-1.515-2.94-.837 0-1.515 1.316-1.515 2.94 0 1.624.678 2.94 1.515 2.94z" fill="#9AB3DA"/><path d="M89.665 193.085s-5.83-43.75-7.665-55.42c0 0-2.5-36.665 7-37.335 9.5-.67 13.335 9.835 14 17 .665 7.165-3.5 66.665-5.335 76l-8-.245z" fill="#F68D88"/><path d="M101.815 116.465a.211.211 0 01-.1 0c-3.92-2-4.945-7.18-5-7.4a.217.217 0 01.174-.229.21.21 0 01.151.028c.046.027.08.07.095.121 0 .05 1.03 5.17 4.765 7.1a.214.214 0 01.02.322.214.214 0 01-.105.058z" fill="#ECBDBB"/><path d="M100.091 156.37c.009-3.59-1.874-6.504-4.205-6.509-2.33-.006-4.226 2.9-4.234 6.49-.009 3.59 1.874 6.504 4.205 6.51 2.33.005 4.226-2.901 4.234-6.491z" fill="#F9D4D4"/><path d="M92 192.715a.217.217 0 01-.215-.195c-2.1-25.575-6.21-61.26-6.25-61.62a.215.215 0 11.425-.05c.04.355 4.15 36.05 6.25 61.63a.216.216 0 01-.195.23l-.015.005z" fill="#ECBDBB"/><path d="M87.165 192.585s7.335-2.335 12.915.25l-.835 6.585-11.665.085-.415-6.92z" fill="#F9D4D4"/><path d="M86.19 124.775a.22.22 0 01-.14-.046.217.217 0 01-.055-.272.213.213 0 01.11-.097c1.55-.645 3.28-1.54 3.375-1.865.135-.47.44-8.82.615-14.32a.207.207 0 01.136-.199.219.219 0 01.084-.011.23.23 0 01.082.018.238.238 0 01.069.048.22.22 0 01.06.154c-.046 1.41-.446 13.795-.636 14.43-.19.635-2.825 1.805-3.625 2.135a.22.22 0 01-.075.025z" fill="#ECBDBB"/><path d="M71.375 107.315s-2.5 2.69-2.56 3.25c-.06.56-11 66.94-12.5 85.27h7.335s23.165-66 23.665-68.835c.5-2.835 1-19.335.835-24-.165-4.665-11.9-4.04-16.775 4.315z" fill="#F68D88"/><path d="M87.335 127.215h-.04a.22.22 0 01-.14-.088.224.224 0 01-.035-.162c.38-2.145.785-12.665.855-19.77a.2.2 0 01.215-.215.215.215 0 01.21.215c-.06 6.37-.45 17.5-.86 19.84a.216.216 0 01-.205.18zm-18.21-9.5a.216.216 0 01-.215-.215.215.215 0 01.215-.215c.195 0 4.84-.385 5.8-6.445a.203.203 0 01.084-.142.218.218 0 01.077-.036.217.217 0 01.084-.002.216.216 0 01.18.245c-1 6.41-6.145 6.8-6.2 6.805l-.025.005zm-5.625 73.75h-.07a.216.216 0 01-.135-.27l20.875-61.5a.209.209 0 01.039-.079.21.21 0 01.24-.071.22.22 0 01.075.045.219.219 0 01.05.245l-20.874 61.5a.214.214 0 01-.2.13z" fill="#ECBDBB"/><path d="M71.128 157.061c.587-3.541-.8-6.722-3.1-7.103-2.299-.381-4.639 2.18-5.226 5.722-.588 3.541.8 6.721 3.099 7.103 2.3.381 4.64-2.18 5.227-5.722z" fill="#F9D4D4"/><path d="M62.875 194.75l-1.56 6.905-1.125 4.97h-4.5l.74-7.615.38-3.885 6.065-.375z" fill="#ECBDBB"/><path d="M56.81 195.125l6.065-.375-1.56 6.905-4.885-2.645.38-3.885zM64.03 225l-21.845.125s-1.13-8.625 6.065-9.75c.246-.053.486-.127.72-.22C52.86 213.72 54.625 205 54.625 205s4.625-1.125 7.375.44c0 0 1.825 9 2.125 16.78.04 1.04-.065 1.815-.095 2.78z" fill="#404B7C"/><path d="M51.655 216.97a.253.253 0 01-.258-.393.256.256 0 01.163-.107 8.326 8.326 0 003.2-2.91c1.95-2.835 3.325-8.3 3.34-8.355a.256.256 0 01.31-.19.257.257 0 01.19.31c-.055.23-1.41 5.61-3.41 8.5a8.648 8.648 0 01-3.425 3.09.253.253 0 01-.11.055z" fill="#9AB3DA"/><path d="M64.31 225.31H41.875s-.875-9.06 6.315-10.185a3.48 3.48 0 00.635-.165c2.09.765 4.855 2.66 5.885 7.33h9.58c.04 1.04.05 2.055.02 3.02zm-3.825-8.055c.837 0 1.515-1.316 1.515-2.94 0-1.624-.678-2.94-1.515-2.94-.837 0-1.515 1.316-1.515 2.94 0 1.624.678 2.94 1.515 2.94z" fill="#9AB3DA"/><path d="M54.335 191.915l-.835 7.17 11.085.75 1.75-6.665s-6.25-2.755-12-1.255z" fill="#F9D4D4"/><path d="M101.375 64.44s10.335 12.26 14.73 25.29a4.69 4.69 0 01-.17 3.42c-1.5 3.305-4.3 10.185-6 11.185-1.7 1-8.25-1.085-8.125-4.085s2.325-10.375 2.325-10.375S98.26 83.125 93.885 77s.365-17.625 7.49-12.56z" fill="#9AB3DA"/><path d="M111.75 90.5a.248.248 0 01-.125-.03c-4.025-2.27-6.705-.45-6.735-.43a.256.256 0 01-.191.05.243.243 0 01-.167-.104.243.243 0 01-.04-.194.243.243 0 01.04-.093.243.243 0 01.073-.07c.12-.084 2.97-2 7.265.406a.25.25 0 01-.12.465zm-9.28 9.875l-1.175 3.375a4.95 4.95 0 002.5 2.75 6.046 6.046 0 003.7.625l2.26-4s-2.495-4.415-7.285-2.75z" fill="#404B7C"/><path d="M106.425 106.29c-1.3 2.555-4.5 7.96-5.5 9.41A9.67 9.67 0 0198 112c1.7-3.105 3.81-8.05 3.81-8.05 3.405-.91 4.615 2.34 4.615 2.34zm-22.3-49.35l-4.53-.13.9-9.15.035-.38 3.53.53.025 3.215.04 5.915z" fill="#ECBDBB"/><path d="M84.085 51c-2.29-.705-3.22-2.18-3.59-3.365l.035-.38 3.53.53.025 3.215zM70 101.94c.19 0 .065 6.125.25 6.125s4.19 1.565 8.44 1.375c4.25-.19 17.5-.56 21.125-3.06l.19-6.25C90.5 103.27 80.5 103.65 70 101.94z" fill="#404B7C"/><path d="M85.115 102.945s.125 6.195.12 6.445c-.005.25 7.29-.22 7.575-.335.285-.115.105-6.625.105-6.625s-2.79.35-7.8.515zm-11.3-.82s-.095 7.19 0 7.345c.095.155 1.815.315 1.815.315s-.03-7.595-.125-7.625c-.095-.03-1.535-.255-1.69-.035zm5.125.345s-.095 7.19 0 7.345c.095.155 1.69 0 1.69 0s.095-7.28 0-7.31c-.095-.03-1.535-.255-1.69-.035zm18.635-1.85s.07 7.175 0 7.345c-.07.17-1.275.22-1.275.22s-.07-7.27 0-7.315c.07-.045 1.155-.445 1.275-.25z" fill="#F9D4D4"/><path d="M75.97 53.625a14.651 14.651 0 0112.97.94l-.375 4.065-11.78.78-.815-5.785z" fill="#404B7C"/><path d="M102 99.5l-1.81 1.31s-12.565 4.44-30.25 2.065l-3.815-3.5a88.096 88.096 0 00-.555-11.455 32.347 32.347 0 00-.945-4.86c0-.035 0-.075-.035-.12-.67-2.385-1-6.065-1.2-9.66a163.71 163.71 0 01-.14-10.905c.19 0 9.875-5.435 18.94-5.565 9.065-.13 19.185 7.63 19.185 7.63S103.625 84 102 99.5z" fill="#9AB3DA"/><path d="M102.59 86.81a.252.252 0 01-.25-.25c0-9.06-.74-17.425-1.055-20.595a.257.257 0 01.131-.247.247.247 0 01.277.029.258.258 0 01.092.168c.315 3.18 1.05 11.56 1.06 20.645a.25.25 0 01-.25.25h-.005zM68.04 74.915c-.255 3.6-.895 9.66-2.47 13a32.352 32.352 0 00-.945-4.86c0-.035 0-.075-.035-.12-.67-2.385-1-6.065-1.2-9.66a163.71 163.71 0 01-.175-7.745c1.22.925 2.28 2.043 3.14 3.31a9.395 9.395 0 011.685 6.075zm22.835 26.96a.254.254 0 01-.174-.08.25.25 0 01-.066-.18c1.11-24.285-7.64-43.38-7.725-43.57a.25.25 0 01.455-.21c.09.19 8.89 19.4 7.775 43.805a.254.254 0 01-.084.173.245.245 0 01-.181.062z" fill="#404B7C"/><path d="M92.75 101.875a.254.254 0 01-.225-.164.244.244 0 01-.015-.096c1.11-24.275-7.455-43.135-7.54-43.32a.25.25 0 11.455-.21c.085.19 8.7 19.15 7.585 43.555a.252.252 0 01-.26.235zM70 98.79a.252.252 0 01-.228-.159.253.253 0 01-.017-.096c.125-5.58-1.895-18.66-1.915-18.79a.253.253 0 01.5-.075c0 .13 2.045 13.255 1.92 18.875a.249.249 0 01-.26.245z" fill="#404B7C"/><path d="M63.25 62.375L48.875 76.94 43 94.5s11.565-1.56 22.315-13.06a18.795 18.795 0 002.875-10.31 10.19 10.19 0 00-4.94-8.755z" fill="#9AB3DA"/><path d="M65.31 81.69a.25.25 0 01-.205-.395 18.724 18.724 0 002.83-10.165 10 10 0 00-3.68-7.75.25.25 0 01.315-.385 10.5 10.5 0 013.865 8.135A19.244 19.244 0 0165.5 81.585a.25.25 0 01-.19.105z" fill="#404B7C"/><path d="M46 62.625s-3.125 2.875-4.435 5.19c-1.31 2.315-3.685 16.75-3 20.565C39.25 92.195 43 94.5 43 94.5s7-2.625 8.25-9.06c1.25-6.435 1.69-14.25 1.5-16.125-.19-1.875-1.625-4.685-1.625-4.685L46 62.625z" fill="#9AB3DA"/><path d="M46.855 92.5a.25.25 0 01-.155-.445c2.365-1.87 3.81-4.105 4.305-6.64a94.202 94.202 0 001.32-10.2.244.244 0 01.27-.23.25.25 0 01.23.27A94.68 94.68 0 0151.5 85.5c-.5 2.655-2 5-4.5 6.94a.25.25 0 01-.145.06zm-.395-32.585l-1.5 4.125a8.525 8.525 0 006.625 2.415L53 62.37s-1.915-3.535-6.54-2.455z" fill="#404B7C"/><path d="M56.155 51.095l-2.53 5.935-1.75 5.375c-3.22.155-4.565-1.935-4.565-1.935l2.25-3.66-.06-5.935s1.25-3.47 1.53-3.565a15.1 15.1 0 012.5 0l.865-7.14a.79.79 0 01.885-.69.79.79 0 01.695.77l.18 10.845z" fill="#ECBDBB"/><path d="M53.56 52.67c-.075.006-.15.006-.225 0-.955-.155-1.045-1.66-1.055-1.83a.25.25 0 01.5 0c0 .33.16 1.28.635 1.36A1.61 1.61 0 0055 51.1a10.119 10.119 0 00-.27-3.17c-.085-.22-.78-.365-1.23-.375a.251.251 0 01-.24-.26.275.275 0 01.26-.24c.24 0 1.45.075 1.685.7.287 1.128.385 2.295.29 3.455a2.115 2.115 0 01-1.935 1.46z" fill="#404B7C"/><path d="M52.79 55.375h-.04a.25.25 0 01-.205-.29 6.696 6.696 0 00-.205-3.32.25.25 0 11.465-.185 7.104 7.104 0 01.23 3.59.25.25 0 01-.245.205z" fill="#404B7C"/><path d="M52.5 51.925a1.42 1.42 0 01-.875-.295.25.25 0 01.325-.38.922.922 0 00.695.165.253.253 0 11.075.5 1.511 1.511 0 01-.22.01zm1.415-.63a.25.25 0 01-.25-.245 3.794 3.794 0 00-.245-1.55 11.2 11.2 0 00-2.155.135.254.254 0 01-.282-.218.252.252 0 01.217-.282c.47-.06 2.03-.245 2.42-.095.39.15.53 1.175.545 2a.248.248 0 01-.15.234.25.25 0 01-.095.021h-.005z" fill="#404B7C"/><path d="M54.625 50.115a.25.25 0 01-.25-.24c-.025-.615-.185-1.37-.37-1.465a6.825 6.825 0 00-2.095-.05.251.251 0 11-.045-.5c.31-.025 1.895-.15 2.375.105s.615 1.5.63 1.885a.25.25 0 01-.24.26l-.005.005z" fill="#404B7C"/><path d="M54.095 50.905a1.775 1.775 0 00.97 1.345 4.695 4.695 0 00-1.81 2.655c-.5 1.845-.06 2.19-.06 2.19l2.46-.845a2.04 2.04 0 001.19-1.07c.655-1.42 1.97-4.29 2.04-4.71.095-.56-.595-.905-1.375-.655s-3.355.81-3.415 1.09z" fill="#ECBDBB"/><path d="M55.87 52.585a3.04 3.04 0 01-.405 0 1.695 1.695 0 01-1.62-1.62.25.25 0 01.045-.18c.055-.075.41-.455 2-.77a.254.254 0 11.095.5 4.864 4.864 0 00-1.63.53 1.16 1.16 0 001.13 1.055 3.84 3.84 0 001.58-.175.25.25 0 11.16.475 4.317 4.317 0 01-1.355.185z" fill="#404B7C"/><path d="M77.165 44.29s2.29 3.04 3.5 3.915S85.835 50 87 49.25s.46-9.915.46-9.915-3.085-4.46-7.625-2.5-2.67 7.455-2.67 7.455z" fill="#ECBDBB"/><path d="M90.335 40.335c-4.42 1.165-9.92-1.42-9.92-1.42a10.297 10.297 0 01-.75 3.46l.895 2-2.31 1.54s-7.79-2.205-7.835-3.205c-.045-1 1.5-7.92 2.295-8.21a27.242 27.242 0 013.79-.5 33.065 33.065 0 012.55-5.73c1.815.81.935 3.295.88 3.45l6.165-7.03c4.875.83 3.915 5.33 3.915 5.33a7.896 7.896 0 014.415-1.625c1.825 3.27.325 10.77-4.09 11.94z" fill="#404B7C"/><path d="M79.385 45.545a3.07 3.07 0 00-3.135-1.97 2.245 2.245 0 00-1.92 1.55c-1.125 2.835 4.165 4.165 5.585 1.75l-.53-1.33z" fill="#ECBDBB"/><path d="M79.125 46.78a.25.25 0 01-.205-.105c-1.32-1.885-3.445-.955-3.535-.915a.25.25 0 01-.205-.455c.025 0 2.6-1.14 4.15 1.085a.25.25 0 01-.205.39z" fill="#404B7C"/><path d="M76.935 47.295a.25.25 0 01-.245-.215 4.44 4.44 0 01.15-1.87.25.25 0 01.47.165 3.968 3.968 0 00-.13 1.63.249.249 0 01-.21.285h-.035v.005zm4.32-4.955s.265-1.5 1.405-1.295c0 0-.07-.67.185-.75.255-.08.535 1.085.535 1.085a5.868 5.868 0 00-2.125.96zm5.52-1.165s-.38-1.315-.965-.72c0 0-.07-.66-.22-.64-.34.05-.115 1.205-.115 1.205.438-.106.9-.05 1.3.155zm-.545 5.42c-.255.347-.555.66-.89.93-.555.43-1.25.655-1.69-.285a3.942 3.942 0 01-.315-1.11s.865.595 2.895.465z" fill="#404B7C"/><path d="M85.345 47.5c-.555.43-1.25.655-1.69-.285a1.961 1.961 0 011.69.285z" fill="#fff"/><path d="M83.146 44.162c.313-.052.514-.408.45-.795-.065-.387-.372-.658-.685-.605-.313.052-.514.408-.45.795.065.387.372.658.685.605z" fill="#404B7C"/><path d="M83.138 43.344a.15.15 0 10-.05-.295.15.15 0 00.05.295z" fill="#fff"/><path d="M86.473 43.61c.314-.053.515-.41.45-.796-.065-.387-.371-.658-.684-.605-.314.052-.515.408-.45.795.065.387.371.658.684.605z" fill="#404B7C"/><path d="M86.47 42.787a.15.15 0 10-.05-.296.15.15 0 00.05.296z" fill="#fff"/><path d="M85.12 45.575H85a.249.249 0 01-.141-.44.255.255 0 01.181-.06s.575.035.655-.325a.115.115 0 000-.08.906.906 0 00-.565-.06.25.25 0 01-.285-.205l-.24-1.365a.25.25 0 01.205-.29.255.255 0 01.29.205l.2 1.14a1.032 1.032 0 01.76.23.56.56 0 01.13.53 1.03 1.03 0 01-1.07.72z" fill="#404B7C"/></svg>