<svg width="161" height="189" fill="none" xmlns="http://www.w3.org/2000/svg"><path d="M55.308 105.721l2.937 13.267 14.328 64.719c.577 2.607 2.09 4.344 3.785 4.344h72.578c1.555 0 2.637-2.527 2.108-4.919l-14.2-64.144-3.063-13.841c-.577-2.607-2.09-4.344-3.786-4.344H57.416c-1.555-.007-2.637 2.519-2.108 4.918z" fill="#88C0C2"/><path d="M55.308 105.721l2.937 13.267h78.597l-3.063-13.841c-.577-2.607-2.089-4.344-3.785-4.344H57.416c-1.555-.007-2.637 2.519-2.108 4.918z" fill="#DE9244"/><path d="M131.911 105.721l-2.937 13.267-14.328 64.719c-.577 2.608-2.089 4.344-3.785 4.344H38.285c-1.556 0-2.638-2.526-2.109-4.919l14.202-64.152 3.063-13.841c.577-2.607 2.09-4.343 3.785-4.343h72.578c1.554 0 2.636 2.526 2.107 4.925z" fill="#fff"/><path d="M110.863 188.492H38.285c-.638 0-1.227-.319-1.706-.91-.868-1.081-1.206-2.911-.843-4.555l14.2-64.145L53 105.042c.621-2.81 2.319-4.697 4.225-4.697h72.578c.637 0 1.227.318 1.705.909.869 1.082 1.206 2.912.843 4.556l-17.267 77.986c-.618 2.808-2.315 4.696-4.221 4.696zm-53.632-87.246c-1.472 0-2.816 1.604-3.347 3.992l-3.063 13.84-14.2 64.145c-.303 1.37-.03 2.931.666 3.797.21.261.555.573 1.002.573h72.574c1.472 0 2.816-1.604 3.346-3.99l17.264-77.984c.303-1.37.03-2.931-.666-3.798-.211-.261-.555-.573-1.003-.573H57.231v-.002z" fill="#262424"/><path d="M131.911 105.721l-2.937 13.267H50.378l3.063-13.841c.577-2.607 2.09-4.344 3.785-4.344h72.578c1.554-.007 2.636 2.519 2.107 4.918z" fill="#DE9244"/><path d="M128.974 119.43H50.378a.453.453 0 01-.439-.348.453.453 0 010-.2L53 105.042c.622-2.81 2.32-4.697 4.225-4.697h72.578c.638 0 1.227.318 1.706.909.868 1.082 1.206 2.912.843 4.556l-2.938 13.267a.45.45 0 01-.441.353zm-78.036-.9h77.674l2.859-12.913c.303-1.37.031-2.931-.666-3.797-.21-.262-.555-.574-1.002-.574H57.231c-1.472 0-2.816 1.604-3.347 3.992l-2.947 13.292z" fill="#DE9244"/><path d="M128.386 122.164a.44.44 0 01-.195-.045.438.438 0 01-.156-.124.435.435 0 01-.089-.379l3.527-16a.45.45 0 01.88.194l-3.529 15.999a.448.448 0 01-.438.355zm-40.091 58.739a.453.453 0 01-.439-.348.451.451 0 010-.2l12.851-58.069a.455.455 0 01.361-.367.46.46 0 01.347.077.46.46 0 01.183.304.443.443 0 01-.011.181l-12.854 58.061a.451.451 0 01-.438.361zm-26.979 0a.453.453 0 01-.439-.348.451.451 0 010-.2l12.853-58.069a.457.457 0 01.193-.298.446.446 0 01.514.008.447.447 0 01.172.485l-12.853 58.061a.453.453 0 01-.44.361z" fill="#262424"/><path d="M118.578 141.737H51.175a.463.463 0 01-.336-.122.447.447 0 01-.142-.328.45.45 0 01.478-.45h67.408a.44.44 0 01.335.123.455.455 0 01.102.508.444.444 0 01-.261.243.447.447 0 01-.181.026zm-5.231 22.706H45.94a.445.445 0 01-.337-.122.452.452 0 01.337-.778h67.407a.445.445 0 01.336.122.444.444 0 01.142.328.463.463 0 01-.142.328.453.453 0 01-.336.122z" fill="#262424"/><path d="M159.376 62.27l-4.724-.778a9.58 9.58 0 00-5.002-5l-.778-4.723a.847.847 0 00-.835-.707h-4.324a.845.845 0 00-.835.707l-.78 4.723a9.583 9.583 0 00-5.002 4.998l-4.724.78a.846.846 0 00-.709.834v4.321a.845.845 0 00.709.835l4.725.779a9.588 9.588 0 005.001 4.998l.78 4.723a.847.847 0 00.835.707h4.324a.846.846 0 00.835-.707l.779-4.721a9.582 9.582 0 005.001-5l4.726-.779a.847.847 0 00.709-.835v-4.32a.842.842 0 00-.711-.834zm-13.502 5.937a2.947 2.947 0 01-2.889-3.517 2.945 2.945 0 114.972 2.655 2.941 2.941 0 01-2.083.862z" fill="#DE9244"/><path d="M145.334 22.117l-7.065-.424a18.764 18.764 0 00-1.658-3.995l4.697-5.295a1.342 1.342 0 00-.056-1.835l-4.837-4.834a1.34 1.34 0 00-1.836-.056l-5.297 4.694a18.8 18.8 0 00-3.998-1.656l-.424-7.06a1.338 1.338 0 00-1.337-1.258h-6.845a1.34 1.34 0 00-1.337 1.258l-.416 7.06a18.775 18.775 0 00-3.997 1.658L105.63 5.68a1.34 1.34 0 00-1.836.056l-4.837 4.834a1.34 1.34 0 00-.055 1.835l4.696 5.295a18.764 18.764 0 00-1.659 3.994l-7.063.424a1.34 1.34 0 00-1.26 1.337v6.836a1.339 1.339 0 001.26 1.337l7.063.423a18.777 18.777 0 001.659 3.997l-4.697 5.294a1.339 1.339 0 00.056 1.835l4.837 4.835a1.342 1.342 0 001.836.055l5.296-4.694a18.804 18.804 0 003.999 1.66l.424 7.06a1.343 1.343 0 001.337 1.258h6.84a1.343 1.343 0 001.338-1.258l.42-7.06a18.75 18.75 0 003.999-1.658l5.296 4.684a1.342 1.342 0 001.836-.055l4.837-4.835a1.339 1.339 0 00.056-1.835l-4.697-5.294a18.764 18.764 0 001.658-3.995l7.065-.424a1.34 1.34 0 001.259-1.336v-6.832a1.339 1.339 0 00-1.259-1.336zm-25.232 11.707a6.957 6.957 0 01-6.825-8.31 6.948 6.948 0 015.467-5.462 6.96 6.96 0 017.142 2.959 6.947 6.947 0 01-.868 8.777 6.955 6.955 0 01-4.916 2.035v.001zM100.2 84.604c6.589 0 11.93-5.338 11.93-11.922 0-6.585-5.341-11.923-11.93-11.923-6.588 0-11.929 5.338-11.929 11.923 0 6.584 5.341 11.922 11.929 11.922z" fill="#88C0C2"/><path d="M86.527 60.026l.878-.878a2.49 2.49 0 013.52 0l1.293 1.292a1.018 1.018 0 010 1.44l-2.96 2.957a1.019 1.019 0 01-1.44 0l-1.292-1.292a2.49 2.49 0 01.001-3.52zm24.616 4.811l-2.965-2.964a1.017 1.017 0 010-1.44l1.293-1.291a2.49 2.49 0 013.52 0l.878.877a2.487 2.487 0 010 3.519l-1.293 1.293a1.02 1.02 0 01-1.441 0l.008.006z" fill="#DE9244"/><path d="M100.2 80.192a7.513 7.513 0 007.515-7.51 7.513 7.513 0 00-7.515-7.51 7.512 7.512 0 00-7.514 7.51 7.512 7.512 0 007.514 7.51z" fill="#fff"/><path d="M100.2 80.59a7.916 7.916 0 01-7.31-4.882 7.905 7.905 0 015.767-10.783 7.915 7.915 0 019.456 7.757 7.922 7.922 0 01-7.913 7.909zm0-15.02a7.119 7.119 0 00-6.574 4.39 7.108 7.108 0 001.542 7.75 7.117 7.117 0 0012.148-5.028 7.117 7.117 0 00-7.116-7.113z" fill="#262424"/><path d="M101.23 72.682a1.03 1.03 0 11-2.035-.215l1.005-5.621 1.006 5.62a.98.98 0 01.024.216z" fill="#DE9244"/><path d="M99.466 71.952a1.03 1.03 0 011.455 1.454.965.965 0 01-.169.136l-4.681 3.267 3.266-4.686a.956.956 0 01.129-.17z" fill="#DE9244"/><path d="M38.401 144.859l7.256 15.825-5.476 2.308-8.9-13.823 7.12-4.31z" fill="#fff"/><path d="M40.178 163.443a.453.453 0 01-.38-.207l-8.896-13.823a.45.45 0 01.145-.629l7.12-4.31a.447.447 0 01.525.048.447.447 0 01.112.149l7.257 15.825a.453.453 0 01-.235.602l-5.476 2.308a.444.444 0 01-.172.037zm-8.27-14.129l8.447 13.116 4.698-1.982-6.853-14.942-6.292 3.808z" fill="#262424"/><path d="M39.49 185.697l1.514 1.553L60.1 168.658s-.714-.733-1.901-1.826c-2.84-2.614-8.393-7.293-13.357-8.94l-7.054 6.862s3.506 7.327.637 16.406a4.543 4.543 0 00.763 4.18c.095.124.195.243.302.357z" fill="#DE9244"/><path d="M39.49 185.696l1.514 1.554L60.1 168.658s-.714-.733-1.901-1.826l-19.017 18.514c.097.122.2.239.308.35z" fill="#fff"/><path d="M41.004 187.7a.446.446 0 01-.319-.135l-1.514-1.553a4.955 4.955 0 01-.338-.384.45.45 0 01.038-.602l19.01-18.514a.455.455 0 01.309-.128.454.454 0 01.312.12c1.182 1.088 1.888 1.813 1.912 1.843a.452.452 0 01-.008.637l-19.088 18.587a.446.446 0 01-.314.129zm-1.192-2.317l1.2 1.231 18.441-17.959c-.27-.266-.698-.684-1.253-1.2l-18.398 17.909.01.009v.01z" fill="#262424"/><path d="M61.683 100.96c-2.039 2.83-25.792 19.472-30.6 22.827l7.293 18.652-8.785 8.979s-8.669-14.21-14.247-23.458c-.494-.817-.956-1.593-1.399-2.322a8.503 8.503 0 011.071-10.182c.717-.767 1.498-1.604 2.33-2.483 7.717-8.2 19.455-20.388 19.455-20.388l1.694-9.801c.823-4.736 3.992-8.785 8.468-10.539a13.483 13.483 0 015.713-.93c8.56.478 9.333 6.907 9.333 6.907s1.945 19.587-.326 22.738z" fill="#88C0C2"/><path d="M33.845 143.921a.448.448 0 01-.41-.263l-9.464-20.532a.45.45 0 01.082-.497L50.904 94.18a.45.45 0 11.655.619l-26.643 28.227 9.337 20.256a.45.45 0 01-.408.639z" fill="#262424"/><path d="M30.616 123.989h-.051l-8.972-1.002a.449.449 0 01-.22-.792.454.454 0 01.32-.103l8.972 1.002a.453.453 0 01.246.765.45.45 0 01-.295.13z" fill="#262424"/><path d="M20.162 119.768c0 3.664-1.982 6.803-4.822 8.192-.495-.817-.957-1.593-1.4-2.322a8.504 8.504 0 011.071-10.182c.717-.767 1.498-1.604 2.33-2.483 1.726 1.642 2.821 4.076 2.821 6.795z" fill="#fff"/><path d="M26.276 146.657l9.212-8.971a1.75 1.75 0 011.456-.484 1.735 1.735 0 011.275.854l4.017 7.021a1.742 1.742 0 01-.297 2.114l-8.598 8.386a1.74 1.74 0 01-2.08.268 1.75 1.75 0 01-.553-.497l-4.622-6.424a1.743 1.743 0 01.19-2.267z" fill="#DE9244"/><path d="M51.958 92.707a.447.447 0 01-.247-.073l-2.345-1.536a3.15 3.15 0 01-1.41-2.988l1.004-9.207a.451.451 0 01.895.097l-1.004 9.207a2.25 2.25 0 001.01 2.136l2.344 1.536a.451.451 0 01-.247.828z" fill="#262424"/><path d="M33.977 156.442l-5.854 16.395-5.534-2.166 3.279-16.107 8.109 1.878z" fill="#fff"/><path d="M28.123 173.288a.456.456 0 01-.16-.03l-5.533-2.167a.448.448 0 01-.277-.509l3.278-16.107a.455.455 0 01.365-.354.45.45 0 01.179.005l8.109 1.879a.45.45 0 01.344.405.448.448 0 01-.026.186l-5.858 16.392a.449.449 0 01-.421.3zm-5.016-2.898l4.75 1.859 5.527-15.481-7.172-1.659-3.105 15.281z" fill="#262424"/><path d="M6.39 185.733v2.31h28.37s0-1.09-.093-2.804c-.223-4.101-.977-11.787-3.538-16.738H20.658s-2.78 8.196-11.72 12.984a4.828 4.828 0 00-2.527 3.754 4.907 4.907 0 00-.02.494z" fill="#DE9244"/><path d="M6.39 185.733v2.31h28.37s0-1.09-.093-2.804H6.41a4.907 4.907 0 00-.02.494z" fill="#fff"/><path d="M34.76 188.492H6.39a.45.45 0 01-.45-.451v-2.309c0-.181.01-.361.028-.54a.453.453 0 01.448-.405h28.256a.45.45 0 01.45.425c.092 1.708.092 2.783.092 2.829a.452.452 0 01-.455.451zm-27.925-.898h27.473c0-.405-.024-1.064-.065-1.912H6.83v1.912h.005z" fill="#262424"/><path d="M74.025 77.487s-1.465-6.306-10.027-5.855a13.47 13.47 0 00-5.578 1.534c-4.258 2.23-6.97 6.596-7.275 11.392l-.627 9.931-15.979 21.072-1.97 2.598a15.676 15.676 0 00-2.988 7.009l-1.115 5.15-5.376 24.679 12.562-.301 11.794-27.886s26.805-23.319 28.719-26.69c1.914-3.37-2.14-22.633-2.14-22.633z" fill="#88C0C2"/><path d="M35.765 114.397a.453.453 0 01-.448-.493.45.45 0 01.09-.23l14.662-19.347.628-9.791a.452.452 0 01.798-.285.45.45 0 01.1.342l-.626 9.931a.45.45 0 01-.09.244L36.124 114.22a.453.453 0 01-.359.178zm-12.68 41.046a.45.45 0 01-.44-.546l5.1-23.439a.451.451 0 11.882.191l-4.984 22.878 11.988-.288h.011a.449.449 0 01.43.445.452.452 0 01-.419.455l-12.561.301h-.012l.005.003z" fill="#262424"/><path d="M33.129 151.577a.434.434 0 01-.203-.048.447.447 0 01-.23-.533l8.12-26.687a.456.456 0 01.087-.159l24.114-28.254.446-17.294a.45.45 0 01.9.024l-.45 17.453a.449.449 0 01-.109.28l-24.16 28.302-8.083 26.601a.452.452 0 01-.432.315z" fill="#262424"/><path d="M34.54 115.562l-1.97 2.597a15.68 15.68 0 00-2.989 7.009l-1.115 5.15c2.907-.115 5.817-2.154 7.26-5.4 1.513-3.428.946-7.158-1.187-9.356z" fill="#fff"/><path d="M24.043 149.268h12.861a1.746 1.746 0 011.708 1.391c.054.261.047.53-.02.788l-2.027 7.829a1.74 1.74 0 01-1.688 1.306H22.873a1.737 1.737 0 01-1.32-.605 1.743 1.743 0 01-.404-1.396l1.17-7.829a1.742 1.742 0 011.724-1.484z" fill="#DE9244"/><path d="M65.554 92.978a.448.448 0 01-.204-.05l-2.498-1.274a3.15 3.15 0 01-1.727-2.817V79.57a.45.45 0 11.902 0v9.266a2.252 2.252 0 001.235 2.014l2.497 1.275a.452.452 0 01-.205.852z" fill="#262424"/><path d="M32.1 56.783s-2.889 16.125-2.632 17.683c.354 2.144 1.296 5.097 1.709 6.27 0 0-.377 3.378.45 4.654.828 1.275 3.306 1.801 4.957 1.801 1.651 0 1.803-2.549 1.803-2.549s.338 2.398 1.464 2.398c1.127 0 1.39-5.588.657-7.276-.733-1.689-2.526-1.052-2.526-1.052l-.065-6.064 3.133-13.466-8.95-2.399z" fill="#fff"/><path d="M36.584 87.642c-1.396 0-4.303-.42-5.336-2.007-.83-1.284-.597-4.182-.53-4.846-.381-1.09-1.334-4.062-1.695-6.25-.26-1.593 2.337-16.177 2.633-17.84a.45.45 0 01.553-.357l8.95 2.397a.451.451 0 01.32.537L38.358 72.69l.067 5.464c.82-.09 1.936.143 2.494 1.434.662 1.524.607 6.06-.28 7.413-.268.407-.577.492-.797.492-.685 0-1.138-.54-1.435-1.147-.326.707-.902 1.297-1.823 1.297zm-4.126-30.298c-1.15 6.456-2.719 15.99-2.55 17.044.362 2.191 1.342 5.213 1.69 6.192a.452.452 0 01.023.201c-.099.895-.224 3.425.381 4.36.671 1.037 2.86 1.593 4.579 1.593 1.206 0 1.351-2.108 1.353-2.13a.45.45 0 01.896-.035c.118.825.524 1.962.99 2.009.17-.139.52-.978.623-2.86.084-1.559-.06-3.117-.35-3.786-.557-1.287-1.904-.826-1.96-.806a.454.454 0 01-.55-.213.45.45 0 01-.052-.206l-.062-6.056c0-.036.003-.071.01-.106l3.029-13.041-8.05-2.16z" fill="#262424"/><path d="M30.322 60.59l13.954 3.739c2.537-9.855 3.346-20.897.124-23.76-8.817-7.849-12.697 9.182-14.078 20.021z" fill="#DE9244"/><path d="M44.118 62.992a.451.451 0 01-.12-.015l-12.271-3.361a.452.452 0 01-.256-.722.453.453 0 01.494-.147l12.272 3.361a.45.45 0 01-.12.884z" fill="#262424"/><path d="M53.838 33.16c-5.36 0-14.557 5.455-14.557 5.455l-.295 3.522s-2.41 6.652-2.41 9.159c0 2.507 4.28 8.257 4.28 8.257s-3.05 19.7-4.28 29.334c0 0 14.503 9.239 40.482.884L70.71 59.81l-.84-20.817s-8.917-5.833-16.032-5.833z" fill="#DE9244"/><path d="M40.286 63.71a.46.46 0 01-.068 0 .451.451 0 01-.378-.514c.274-1.796.47-3.066.54-3.52-.698-.956-4.255-5.954-4.255-8.373 0-2.461 2.166-8.557 2.416-9.257l.203-2.429a.451.451 0 11.899.075l-.208 2.48a.455.455 0 01-.025.117c-.024.065-2.39 6.605-2.39 9.005 0 1.934 3.027 6.423 4.19 7.989a.45.45 0 01.084.337s-.222 1.434-.568 3.704a.45.45 0 01-.44.385zm14.572 27.111c-5.47 0-11.578-.77-16.575-3.385a.452.452 0 11.418-.796c6.883 3.597 15.998 3.597 22.433 2.964a76.882 76.882 0 0012.494-2.274.451.451 0 01.251.865 77.816 77.816 0 01-12.641 2.304 66.313 66.313 0 01-6.38.322z" fill="#262424"/><path d="M54.245 31.546c-3.011.198-4.721 2.195-4.919 3.834-.197 1.64.984 3.146 2.1 3.474 0 0 1.115-3.112 1.966-3.112s1.476 3.604 1.476 3.604 4.032 0 5.114-3.44c.746-2.373-2.23-4.59-5.737-4.36z" fill="#fff"/><path d="M54.868 39.795a.451.451 0 01-.445-.374c-.263-1.518-.746-2.99-1.053-3.222-.32.14-1.036 1.453-1.52 2.806a.45.45 0 01-.552.28c-1.323-.388-2.641-2.11-2.42-3.96.228-1.895 2.176-4.023 5.336-4.228 2.282-.15 4.487.682 5.613 2.115.678.863.885 1.867.584 2.827-1.167 3.713-5.5 3.756-5.543 3.756zm-1.476-4.504c.945 0 1.519 1.864 1.847 3.582.968-.092 3.517-.575 4.313-3.103.27-.857-.086-1.56-.432-2-.934-1.189-2.882-1.902-4.847-1.773-2.676.175-4.316 1.902-4.499 3.437-.16 1.262.626 2.366 1.395 2.818.492-1.271 1.318-2.961 2.223-2.961z" fill="#262424"/><path d="M52.278 33.512s.103 1.033 1.393 1.524a4.943 4.943 0 003.55-1.524l-.36-6.531-1.223.25-2.98.624-.32 4.702-.06.955z" fill="#fff"/><path d="M53.74 35.489h-.092a.45.45 0 01-.138-.03c-1.53-.582-1.675-1.845-1.68-1.9a.468.468 0 010-.074l.376-5.655a.45.45 0 01.357-.41l4.203-.882a.45.45 0 01.543.416l.359 6.53a.45.45 0 01-.121.334 5.387 5.387 0 01-3.806 1.67zm-1.01-1.996c.03.145.2.748 1.029 1.096a4.563 4.563 0 002.994-1.25l-.319-5.816-3.346.704-.358 5.266z" fill="#262424"/><path d="M52.342 32.557c3.568-.352 3.868-4.9 3.868-4.9a5.564 5.564 0 00-.574-.426l-2.98.624-.314 4.702z" fill="#262424"/><path d="M39.155 85.033c.083.943 1.22.89 1.712.503 0 0-.343 1.125 1.87 2.437 2.214 1.313 4.639.902 5.579-.84.94-1.74 2.037-1.941 2.037-1.941s25-3.619 28.034-7.665c1.413-1.884 1.14-8.977-.11-16.578-1.651-10.035-5.003-20.972-8.407-21.96-11.338-3.289-7.386 13.788-4.278 24.265 1.348 4.542 2.104 7.628 2.104 7.628L48.176 81.12s-4.83-1.995-5.558-2.009c-.728-.014-3.546 4.978-3.463 5.92z" fill="#fff"/><path d="M45.386 89.195a5.706 5.706 0 01-2.878-.836c-1.377-.816-1.874-1.603-2.038-2.16a1.716 1.716 0 01-1.03-.072 1.208 1.208 0 01-.733-1.056c-.09-1.03 2.058-4.82 3.095-5.929.319-.339.572-.477.827-.477.718.014 4.19 1.414 5.526 1.962l19.02-9.974c-.235-.923-.937-3.642-2.013-7.266-3.889-13.109-4.334-20.936-1.36-23.924 1.382-1.39 3.467-1.692 6.195-.899 4.192 1.216 7.457 14.602 8.726 22.32 1.105 6.725 1.693 14.7.026 16.92-1.326 1.767-6.514 3.623-15.422 5.518a227.291 227.291 0 01-12.895 2.318c-.065.016-.929.248-1.718 1.712a3.49 3.49 0 01-2.177 1.692 4.32 4.32 0 01-1.15.151zm-4.084-3.544c-.011.092-.054.906 1.665 1.927 1.105.655 2.32.87 3.33.591a2.566 2.566 0 001.624-1.244c1.012-1.878 2.218-2.145 2.352-2.17h.016c6.902-1 25.34-4.292 27.731-7.487 1.215-1.619 1.136-8.143-.193-16.236-1.927-11.716-5.328-20.8-8.088-21.6-2.39-.692-4.174-.468-5.306.67-2.682 2.696-2.15 10.446 1.586 23.034 1.336 4.501 2.102 7.617 2.11 7.645a.451.451 0 01-.22.502L48.384 81.52a.453.453 0 01-.38.017c-2.248-.925-4.798-1.889-5.343-1.968-.704.436-3.106 4.68-3.058 5.427a.32.32 0 00.194.307.905.905 0 00.797-.12.46.46 0 01.556-.025.429.429 0 01.152.494z" fill="#262424"/><path d="M65.058 62.988l14.277-2.2c-1.651-10.035-5.366-20.471-9.467-21.797-11.233-3.628-7.918 13.528-4.81 23.997z" fill="#DE9244"/><path d="M65.058 63.408a.42.42 0 01-.403-.301c-2.118-7.142-5.055-19.724-.923-23.756 1.423-1.387 3.53-1.642 6.267-.758 4.435 1.433 8.165 12.475 9.752 22.128a.42.42 0 01-.35.478l-14.277 2.2a.411.411 0 01-.066.009zm2.054-24.487c-1.152 0-2.084.344-2.79 1.032-3.88 3.783-.658 16.768 1.037 22.563l13.493-2.07c-1.632-9.59-5.248-19.798-9.11-21.045a8.657 8.657 0 00-2.63-.48z" fill="#DE9244"/><path d="M64.395 61.106a.451.451 0 01-.435-.333c-2.034-7.495-3.785-17.24-.582-21.083 1.022-1.226 2.472-1.77 4.303-1.618a.452.452 0 01.25.791.45.45 0 01-.325.107c-1.55-.129-2.709.297-3.542 1.299-3.111 3.733-.86 14.302.76 20.27a.45.45 0 01-.429.567zm1.49.427a.451.451 0 01-.065-.895l12.59-1.865a.451.451 0 01.133.89l-12.59 1.866a.442.442 0 01-.068.004zM60.483 10.23c-2.09 1.508 1.015 5.856 2.23 7.18 1.217 1.323 1.145 5.974 4.463 6.706 3.319.73-.752 7.964 8.198 12.174 6.898 3.24 15.938-2.708 13.334-7.415-2.604-4.707-11.233-5.056-13.566-9.398-1.484-2.759-1.285-7.327-6.549-7.665-3.933-.248-6.46-2.778-8.11-1.581z" fill="#262424"/><path d="M48.384 23.155s-1.413-2.098-2.93-1.384c-1.518.713-1.008 5.77 2.73 5.08l.2-3.696z" fill="#fff"/><path d="M47.51 27.365c-1.7 0-2.71-1.174-3.094-2.39-.434-1.345-.234-3.112.841-3.618 1.846-.867 3.43 1.441 3.497 1.54a.451.451 0 01.077.276l-.206 3.702a.45.45 0 01-.368.418c-.247.047-.497.07-.748.072zm-1.41-5.29c-.159 0-.316.035-.46.104-.478.223-.736 1.374-.367 2.528.19.59.797 1.886 2.475 1.752l.173-3.164c-.252-.33-1.003-1.221-1.817-1.221l-.004.001z" fill="#262424"/><path d="M58.908 13.543l.865-.409a.842.842 0 01.851.073c.355.242.65.561.864.934.192.414.233.882.117 1.323a.83.83 0 01-.377.521l-.929.579a.845.845 0 01-1.236-.418l-.582-1.537a.844.844 0 01.427-1.066zM47.433 23.988c.172 3.128 1.563 6.74 5.35 6.637 2.784-.075 5.864-3.424 6.098-7.645.234-4.221-.502-7.844-5.59-7.59-.543.035-1.083.106-1.617.213-2.95.652-4.077.916-4.303 6.717-.021.508.028 1.077.062 1.668z" fill="#fff"/><path d="M52.625 31.078c-3.87 0-5.453-3.63-5.642-7.065l-.012-.226c-.032-.524-.06-1.02-.043-1.49.221-5.864 1.367-6.414 4.649-7.138a12.804 12.804 0 011.692-.223c1.965-.097 3.473.366 4.48 1.378 1.64 1.648 1.707 4.439 1.583 6.69-.258 4.662-3.651 7.997-6.535 8.075h-.172v-.001zm1.165-15.255c-.155 0-.314.004-.478.013-.518.034-1.033.102-1.543.204-2.868.637-3.735.825-3.942 6.295-.016.425.012.9.04 1.401l.014.228c.081 1.469.663 6.212 4.743 6.212h.145c2.486-.067 5.434-3.171 5.66-7.225.166-3.026-.253-4.927-1.322-6.002-.75-.757-1.84-1.126-3.317-1.126z" fill="#262424"/><path d="M59.007 12.857l.857-.406a.834.834 0 01.843.073c.352.24.645.555.856.924.19.41.23.874.115 1.311a.826.826 0 01-.371.516l-.922.574a.838.838 0 01-1.225-.415l-.579-1.527a.835.835 0 01.426-1.05z" fill="#fff"/><path d="M57.65 22.618a3.003 3.003 0 01-1.898-2.414c-.054-.364-.089-.853-.194-1.294-2.134 2.23-6.165 3.59-7.92 4.099a1.368 1.368 0 01-1.517-.513c-2.05-3.027.394-8.82 4.32-8.708 4.463-3.086 9.667-.843 10.41 2.92.824 4.174-1.943 6.434-3.2 5.91z" fill="#262424"/><path d="M57.58 23.155s2.055-2.12 4.216-1.434c2.16.687.905 5.725-4.434 5.097l.218-3.663z" fill="#fff"/><path d="M58.26 27.322c-.319 0-.638-.02-.955-.058a.452.452 0 01.106-.895c2.893.343 4.558-1.107 4.882-2.598.132-.61.045-1.398-.637-1.617-1.875-.598-3.736 1.296-3.755 1.315a.453.453 0 01-.758-.121.45.45 0 01.11-.505c.093-.096 2.276-2.313 4.678-1.546 1.02.32 1.52 1.398 1.245 2.667-.367 1.695-2.045 3.358-4.915 3.358z" fill="#262424"/><path d="M42.712 89.388h-33a1.296 1.296 0 01-1.265-1.018L4.01 68.215a1.294 1.294 0 011.266-1.573h33a1.296 1.296 0 011.264 1.01l4.435 20.154a1.293 1.293 0 01-1.264 1.582z" fill="#fff"/><path d="M42.712 89.838h-33a1.754 1.754 0 01-1.707-1.371L3.571 68.313a1.751 1.751 0 011.704-2.122h33.002a1.754 1.754 0 011.707 1.371l4.433 20.16a1.751 1.751 0 01-1.705 2.117zM5.275 67.091a.846.846 0 00-.826 1.027l4.436 20.155a.85.85 0 00.825.664h33.002a.847.847 0 00.826-1.028l-4.436-20.154a.85.85 0 00-.825-.664H5.275z" fill="#262424"/><path d="M40.604 89.388H7.605A1.296 1.296 0 016.34 88.37L1.904 68.215a1.294 1.294 0 011.266-1.573h33a1.297 1.297 0 011.265 1.017l4.436 20.155a1.295 1.295 0 01-1.267 1.574z" fill="#fff"/><path d="M40.604 89.838H7.605a1.754 1.754 0 01-1.707-1.371L1.463 68.313A1.751 1.751 0 013.17 66.19h33a1.754 1.754 0 011.707 1.371l4.434 20.16a1.751 1.751 0 01-1.707 2.117zM3.17 67.091a.846.846 0 00-.826 1.027L6.78 88.273a.85.85 0 00.825.664h32.999a.846.846 0 00.825-1.028l-4.438-20.154a.85.85 0 00-.826-.664H3.17z" fill="#262424"/><path d="M62.062 89.388H40.267a1.1 1.1 0 00-1.1 1.1v.912a1.1 1.1 0 001.1 1.1h21.795a1.1 1.1 0 001.101-1.1v-.912a1.1 1.1 0 00-1.101-1.1z" fill="#fff"/><path d="M62.062 92.95H40.269a1.554 1.554 0 01-1.552-1.55v-.912a1.553 1.553 0 011.552-1.551h21.793a1.554 1.554 0 011.552 1.551v.911a1.553 1.553 0 01-1.552 1.552zm-21.793-3.112a.652.652 0 00-.65.65v.911a.651.651 0 00.65.65h21.793a.652.652 0 00.65-.65v-.91a.652.652 0 00-.65-.65H40.269z" fill="#262424"/><path d="M43.222 89.388H10.813a1.1 1.1 0 00-1.101 1.1v.912a1.1 1.1 0 001.101 1.1h32.41a1.1 1.1 0 001.1-1.1v-.912a1.1 1.1 0 00-1.1-1.1z" fill="#fff"/><path d="M43.222 92.95H10.813a1.554 1.554 0 01-1.552-1.55v-.912a1.553 1.553 0 011.552-1.551h32.41a1.554 1.554 0 011.552 1.551v.911a1.553 1.553 0 01-1.553 1.552zm-32.409-3.112a.652.652 0 00-.65.65v.911a.651.651 0 00.65.65h32.41a.652.652 0 00.65-.65v-.91a.652.652 0 00-.65-.65h-32.41z" fill="#262424"/><path d="M79.011 89.206a11.16 11.16 0 00-7.185 3.006 11.147 11.147 0 004.883 18.942 2.212 2.212 0 002.74-2.165 2.203 2.203 0 00-1.649-2.153 6.709 6.709 0 01-4.916-5.121 6.698 6.698 0 012.444-6.663 6.707 6.707 0 0110.823 5.286h4.45a11.144 11.144 0 00-7.191-10.412 11.161 11.161 0 00-4.399-.72z" fill="#fff"/><path d="M77.242 111.67a2.635 2.635 0 01-.637-.081 11.595 11.595 0 01-5.086-19.706 11.609 11.609 0 017.477-3.128l.017.45-.017-.45a11.613 11.613 0 018.497 3.23 11.6 11.6 0 013.56 8.36.453.453 0 01-.45.451H86.15a.453.453 0 01-.451-.451 6.247 6.247 0 00-6.055-6.267 6.255 6.255 0 00-6.439 5.873 6.26 6.26 0 004.704 6.455 2.68 2.68 0 011.966 2.922 2.679 2.679 0 01-2.633 2.342zm2.21-22.021a10.707 10.707 0 00-7.324 2.888 10.695 10.695 0 004.69 18.18 1.719 1.719 0 001.489-.318 1.778 1.778 0 00.69-1.41 1.75 1.75 0 00-1.307-1.709 7.158 7.158 0 01-5.223-5.355 7.148 7.148 0 012.408-7.08 7.158 7.158 0 0111.713 5.05h3.554a10.696 10.696 0 00-3.286-7.27 10.708 10.708 0 00-7.405-2.976z" fill="#262424"/><path d="M105.437 89.206a11.158 11.158 0 00-10.654 9.977 11.147 11.147 0 008.348 11.971 2.214 2.214 0 002.74-2.165 2.21 2.21 0 00-1.645-2.153 6.708 6.708 0 01-4.916-5.121 6.698 6.698 0 015.87-8.04 6.705 6.705 0 017.397 6.663h4.45a11.134 11.134 0 00-3.426-8.03 11.15 11.15 0 00-8.164-3.102z" fill="#fff"/><path d="M103.67 111.67a2.644 2.644 0 01-.638-.081 11.595 11.595 0 01-5.085-19.706 11.609 11.609 0 017.476-3.128 11.61 11.61 0 0111.125 7.048c.612 1.437.927 2.981.927 4.542a.451.451 0 01-.451.451h-4.45a.455.455 0 01-.319-.132.455.455 0 01-.132-.319 6.251 6.251 0 00-10.467-4.636 6.249 6.249 0 00-2.026 4.242 6.266 6.266 0 004.703 6.455 2.675 2.675 0 011.091 4.585 2.677 2.677 0 01-1.754.679zm1.785-22.015a10.708 10.708 0 00-6.901 2.881 10.696 10.696 0 004.692 18.18 1.729 1.729 0 001.487-.319 1.77 1.77 0 00.69-1.409 1.752 1.752 0 00-1.307-1.71 7.151 7.151 0 114.59-13.5 7.158 7.158 0 014.307 6.116h3.554a10.7 10.7 0 00-11.114-10.239h.002z" fill="#262424"/><path d="M1.872 38.528a1.313 1.313 0 10.001-2.626 1.313 1.313 0 000 2.626z" fill="#DE9244"/><path d="M3.98 154.22l.498 1.357a3.064 3.064 0 001.83 1.829l1.35.492-1.35.492a3.07 3.07 0 00-1.83 1.822l-.492 1.349-.493-1.349a3.069 3.069 0 00-1.83-1.828l-1.35-.492 1.35-.493a3.062 3.062 0 001.825-1.822l.493-1.357zm12.464-139.7l.492 1.35a3.064 3.064 0 001.83 1.828l1.35.492-1.35.492a3.066 3.066 0 00-1.83 1.829l-.492 1.349-.49-1.348a3.064 3.064 0 00-1.83-1.828l-1.358-.492 1.35-.493a3.066 3.066 0 001.837-1.83l.491-1.349z" fill="#87BFC1"/><path d="M153.057 113.631l.717 1.967a4.461 4.461 0 002.667 2.665l1.968.717-1.968.716a4.457 4.457 0 00-2.667 2.665l-.717 1.967-.717-1.967a4.467 4.467 0 00-2.671-2.663l-1.969-.717 1.969-.717a4.461 4.461 0 002.671-2.668l.717-1.965z" fill="#DE9244"/></svg>