<svg width="236" height="214" fill="none" xmlns="http://www.w3.org/2000/svg"><g opacity=".4" fill="#D9BA90"><path opacity=".4" d="M90.177 208.13c13.219-.06 11.97 3.631.41 3.631s-11.664-3.579-.41-3.631z"/><path opacity=".4" d="M17.47 205.181c18.128-1.419 23.76 1.282 16.315.967-7.444-.315-9.998 3.2-4.279 4.877 5.719 1.678 31.913 4.778 40.43-.712 8.517-5.49 18.402-6.047 35.015-5.132 16.613.916 24.314-3.662 20.761-5.659-3.554-1.996-18.306-.955-18.306-.955s3.456-1.031-1.504-2.129c-4.959-1.098-17.945 0-33.526 0 0 0-40.348.559-60.188.559-19.84 0-12.847 9.604 5.281 8.184zm75.878-4.27c4.701.385 2.078 1.439-5.252.927-7.33-.511-2.32-1.548 5.252-.927zM46.7 204.627c.204-1.663 7.966.155 9.404-.754 1.44-.909 5.838-1.521 12.59-1.266 4.092.154 1.128 1.502-4.653 1.594-5.782.093-4.452 1.934-7.316 2.445-2.864.512-10.23-.357-10.025-2.019z"/></g><path d="M221.724 162.833c-4.456 17.655-26.053-3-26.396 14.14-.342 17.14-33.765 18.168-52.105 15.94-18.34-2.228-10.455-17.14-24.682-18.169-14.226-1.028-34.622 3.666-42.164-17.244-7.541-20.911-4.456-60.313-3.942-81.566.514-21.254 13.54-9.77 13.883-25.539.172-7.833 2.16-13.979 7.353-18.706 0 0 .024-.024.076-.065.785-.669 7.589-6.202 16.536-5.173 9.517 1.09 12.465 4.703 13.565 14.64 1.1 9.938 17.623 9.198 16.557-6.574-1.066-15.755 27.918-12.475 36.738-11.669 6.273 1.207 10.76 3 11.672 5.608 3.6 10.284.172 23.653 7.885 23.31 7.713-.342 22.796-.856 24.853 15.598 2.056 16.454 4.627 77.815.171 95.469z" fill="#F1D5A7"/><path d="M109.395 48.048c-17.379 1.825-23.432 21.055-23.432 60.851s.192 58.978 30.577 58.978 20.369-71.152 18.557-89.702c-1.812-18.55-10.342-31.741-25.702-30.127zm58.311 1.313c-18.72 0-14.615 61.708-14.615 91.995 0 30.286 25.876 22.209 48.129 22.209 22.253 0 10.568-80.194 6.945-91.463-3.624-11.27-22.282-6.282-26.238-7.417-3.956-1.135 1.479-15.324-14.221-15.324z" fill="#F5DEBB"/><path d="M96.856 100.302c-7.35 1.188-9.645 8.663-2.452 8.5 7.192-.163 20.106-2.452 9.644 5.885-10.462 8.336-28.28 21.086-26.318 29.913 1.962 8.827 8.01 8.337 19.126 8.827 11.115.491 18.471 7.683 12.423 14.058S85.74 182.36 87.048 186.937c1.308 4.577 8.336 4.577 20.923-3.596 12.587-8.173 28.443-20.596 50.02-21.904 21.577-1.308 24.683-1.471 24.356-6.538-.327-5.068-4.904-7.847-24.52-6.539-19.615 1.308-30.24-.49-23.538-10.298 6.702-9.808 34-18.471 58.846-20.433 24.846-1.962 35.635-2.615 36.943-6.702 1.307-4.087-30.716-10.829-74.703 4.74 0 0 6.539-8.009-.49-13.24-7.029-5.23-18.522 2.488-9.808 4.904 7.635 2.116 2.011 10.971-10.554 15.758-11.998 4.571-27.522 15.676-17.59 22.856 0 0-44.76 1.761-10.433-23.249 34.327-25.01 6.538-25.01-9.644-22.394z" fill="#6F7D87"/><path d="M95.581 185.43a.833.833 0 01-.528-1.478c.02-.016 2.007-1.639 5.055-4.042a.833.833 0 011.031 1.309 414.252 414.252 0 00-5.03 4.023.827.827 0 01-.528.188zm11.619-9.131a.835.835 0 01-.506-1.497 363 363 0 019.912-7.312.833.833 0 11.964 1.359 361.88 361.88 0 00-9.866 7.279.83.83 0 01-.504.171zm16.77-11.98a.833.833 0 01-.453-1.534 105.137 105.137 0 013.902-2.41c1.925-1.125 4.383-2.15 7.304-3.047a.834.834 0 01.489 1.593c-2.799.859-5.138 1.833-6.952 2.893a101.752 101.752 0 00-3.839 2.371.823.823 0 01-.451.134zm19.087-7.312a.833.833 0 01-.155-1.652c3.661-.694 7.78-1.269 12.243-1.709a.833.833 0 11.164 1.658c-4.414.436-8.484 1.004-12.097 1.688a.822.822 0 01-.155.015zm20.45-2.333a.834.834 0 01-.045-1.666c3.882-.215 6.464-.245 6.489-.245h.009a.833.833 0 01.009 1.666c-.025.001-2.573.03-6.414.244l-.048.001z" fill="#D3E7F3"/><path d="M135.53 158.789a.845.845 0 01-.342-.073c-.112-.051-2.778-1.261-5.643-3.519a.834.834 0 011.032-1.309c2.695 2.124 5.27 3.296 5.295 3.308a.833.833 0 01-.342 1.593zm-10.831-9.648a.833.833 0 01-.747-.462c-.87-1.745-1.311-3.556-1.311-5.382 0-.631.053-1.272.158-1.906.24-1.462 1.198-3.1 2.847-4.871a.834.834 0 011.22 1.136c-1.401 1.504-2.239 2.89-2.423 4.005-.09.545-.135 1.096-.135 1.636 0 1.566.382 3.126 1.136 4.639a.833.833 0 01-.745 1.205zm7.958-16.465a.832.832 0 01-.466-1.525c3.043-2.052 6.659-4.1 10.748-6.086a.833.833 0 01.728 1.499c-4.018 1.953-7.566 3.961-10.545 5.969a.82.82 0 01-.465.143zm18.22-9.403a.833.833 0 01-.316-1.605c3.69-1.51 7.581-2.922 11.567-4.198a.834.834 0 01.507 1.588 155.352 155.352 0 00-11.443 4.153.834.834 0 01-.315.062zm19.46-6.508a.835.835 0 01-.215-1.639 175.039 175.039 0 0111.985-2.752.833.833 0 11.316 1.637 173.48 173.48 0 00-11.871 2.725.8.8 0 01-.215.029zm20.104-4.111a.833.833 0 01-.117-1.659 164.89 164.89 0 0112.231-1.285.825.825 0 01.887.776.834.834 0 01-.776.887c-3.99.267-8.063.695-12.107 1.272a.781.781 0 01-.118.009zm26.9-1.551h-.027a144.145 144.145 0 00-6.421-.06.847.847 0 01-.844-.822.834.834 0 01.823-.844c2.174-.027 4.359-.008 6.495.06a.833.833 0 01-.026 1.666zm-64.387-.849a.833.833 0 01-.817-.677c-.593-3.088-3.172-4.551-3.198-4.565a.833.833 0 01.809-1.458c.134.075 3.288 1.864 4.025 5.709a.834.834 0 01-.819.991z" fill="#D3E7F3"/><path d="M142.467 127.059a.834.834 0 01-.525-1.481c1.789-1.452 3.372-2.889 4.705-4.272a.834.834 0 011.2 1.156c-1.38 1.432-3.014 2.915-4.855 4.41a.826.826 0 01-.525.187zM98.328 103.92a.834.834 0 01-.042-1.666 82.2 82.2 0 016.533-.021.834.834 0 01-.031 1.666h-.033a79.802 79.802 0 00-6.383.02l-.044.001zm12.49 47.15l-.045-.002c-5.028-.265-9.414-.706-13.034-1.312a.833.833 0 11.274-1.643c3.559.594 7.882 1.029 12.848 1.291a.833.833 0 01-.043 1.666zm-21.426-3.604a.844.844 0 01-.348-.076c-2.198-1.012-3.536-2.252-3.976-3.688a5.474 5.474 0 01-.23-1.609c0-1.85.781-4.034 2.388-6.675a.833.833 0 111.424.866c-1.423 2.34-2.145 4.294-2.145 5.809 0 .405.053.782.157 1.12.294.963 1.33 1.858 3.079 2.662a.834.834 0 01-.349 1.591zm3.867-17.797a.833.833 0 01-.626-1.383c2.468-2.813 5.462-5.874 9.155-9.358a.833.833 0 011.144 1.213c-3.654 3.447-6.613 6.471-9.046 9.244a.83.83 0 01-.627.284zm15.616-15.245a.834.834 0 01-.554-1.457c1.26-1.119 2.435-2.149 3.478-3.064l1.314-1.154c1.359-1.197 1.562-1.909 1.562-2.227 0-.608-.832-1.074-1.53-1.357a.834.834 0 11.627-1.544c1.705.692 2.57 1.669 2.57 2.901 0 1.08-.696 2.217-2.128 3.478l-1.316 1.156a745.858 745.858 0 00-3.47 3.057.829.829 0 01-.553.211zm13.163 36.93c-.745 0-1.572-.004-2.466-.014a.834.834 0 01.009-1.666h.009c3.805.042 6.401-.027 6.426-.027a.818.818 0 01.855.81.833.833 0 01-.81.856c-.02.001-1.57.041-4.023.041z" fill="#D3E7F3"/><path d="M178.797 121.207s4.642-2.321 8.874 2.73 6.416 6.212 10.58 4.846c0 0-.205 5.12-6.28 5.393-6.075.273-6.826-5.802-15.153-.751l1.979-12.218z" fill="#E09433"/><path d="M178.361 118.15l1.683.279-5.971 35.879a1.706 1.706 0 01-1.962 1.4 1.702 1.702 0 01-1.4-1.962l5.97-35.875 1.68.279z" fill="#5B8A72"/><path d="M176.681 117.871l1.68.279-6.25 37.558a1.702 1.702 0 01-1.4-1.962l5.97-35.875z" fill="#4A775F"/><path d="M181.927 118.15a3.566 3.566 0 11-7.125-.229 3.564 3.564 0 013.559-3.338 3.561 3.561 0 013.566 3.567z" fill="#BA233E"/><path d="M181.927 118.15a3.566 3.566 0 11-7.125-.229c.454.737 1.55 1.921 3.779 1.654 2.238-.267 2.763-2.063 2.684-3.496a3.54 3.54 0 01.662 2.071z" fill="#8F2429"/><path d="M176.982 115.421c-1.797.804-1.316 2.632.527 2.05 1.843-.583 1.448-2.934-.527-2.05z" fill="#CE5D79"/><path d="M222.764 87.197s3.104-1.552 5.934 1.826c2.831 3.377 4.291 4.154 7.076 3.24 0 0-.137 3.424-4.2 3.607-4.063.182-4.565-3.88-10.134-.502l1.324-8.171z" fill="#E09433"/><path d="M222.472 85.152l1.126.187-3.993 23.994a1.14 1.14 0 11-2.249-.376l3.993-23.991 1.123.186z" fill="#5B8A72"/><path d="M221.349 84.966l1.123.186-4.18 25.118a1.14 1.14 0 01-.936-1.313l3.993-23.991z" fill="#4A775F"/><path d="M224.857 85.152a2.384 2.384 0 11-4.77 0c0-.052.003-.103.005-.153a2.383 2.383 0 014.322-1.231c.279.387.443.866.443 1.384z" fill="#BA233E"/><path d="M224.857 85.153a2.384 2.384 0 11-4.77 0c0-.053.003-.104.005-.154.304.493 1.037 1.285 2.528 1.106 1.496-.178 1.847-1.379 1.794-2.337.279.387.443.866.443 1.385z" fill="#8F2429"/><path d="M221.55 83.327c-1.202.538-.88 1.76.352 1.371 1.233-.39.969-1.962-.352-1.37z" fill="#CE5D79"/><path d="M143.189 74.038s2.988-3.442 8.118-.763c5.13 2.679 7.293 2.887 10.214.382 0 0 1.552 4.223-3.287 6.484s-7.487-2.417-12.55 4.477l-2.495-10.58z" fill="#E09433"/><path d="M141.808 71.704l1.46-.339 7.198 31.123a1.496 1.496 0 11-2.917.672l-7.197-31.12 1.456-.336z" fill="#5B8A72"/><path d="M140.352 72.04l1.456-.336 7.536 32.579a1.497 1.497 0 01-1.795-1.123l-7.197-31.12z" fill="#4A775F"/><path d="M144.703 70.507a3.131 3.131 0 01-1.697 4.091 3.131 3.131 0 01-4.162-1.886 3.13 3.13 0 011.767-3.903 3.127 3.127 0 012.859.24 3.1 3.1 0 011.233 1.458z" fill="#BA233E"/><path d="M144.703 70.507a3.131 3.131 0 01-1.697 4.091 3.131 3.131 0 01-4.162-1.886c.616.446 1.902 1.039 3.622.074 1.726-.967 1.55-2.601 1.004-3.738.533.33.973.83 1.233 1.459z" fill="#8F2429"/><path d="M139.774 69.952c-1.189 1.255-.185 2.578 1.115 1.486 1.3-1.091.19-2.867-1.115-1.486z" fill="#CE5D79"/><path d="M93.197 81.428s2.182-2.513 5.928-.557c3.747 1.956 5.326 2.109 7.459.279 0 0 1.134 3.084-2.4 4.735-3.534 1.651-5.468-1.765-9.165 3.27l-1.822-7.727z" fill="#E09433"/><path d="M92.189 79.724l1.066-.248 5.256 22.729a1.094 1.094 0 01-2.13.491L91.125 79.97l1.064-.246z" fill="#5B8A72"/><path d="M91.125 79.97l1.064-.246 5.502 23.792a1.094 1.094 0 01-1.31-.82L91.125 79.97z" fill="#4A775F"/><path d="M94.302 78.85a2.287 2.287 0 11-4.227 1.748c-.02-.047-.036-.093-.052-.138a2.285 2.285 0 013.38-2.676c.388.241.71.606.9 1.065z" fill="#BA233E"/><path d="M94.302 78.85a2.287 2.287 0 11-4.227 1.748c-.02-.047-.036-.093-.052-.138.45.326 1.39.759 2.646.054 1.26-.706 1.132-1.9.733-2.73.39.241.71.606.9 1.065z" fill="#8F2429"/><path d="M90.703 78.444c-.868.917-.135 1.883.814 1.086.95-.797.14-2.094-.814-1.086z" fill="#CE5D79"/><path d="M124.506 99.145c1.25-1.06 2.217-2.526 3.178-3.849.941-1.293 2.03-2.724 2.529-4.252.113-.346-.333-.547-.574-.334-1.142 1.014-1.999 2.449-2.854 3.71-.951 1.403-2.086 2.786-2.787 4.333-.151.335.219.637.508.392z" fill="#DDB987"/><path d="M131.359 89.89c.123-.07.242-.16.334-.266a.57.57 0 00.129-.21c.019-.07-.005-.144.008-.21.035-.182-.123-.409-.332-.331-.16.06-.289.055-.414.195-.11.123-.18.276-.235.429-.108.297.262.531.51.392z" fill="#fff"/><path d="M139.786 62.637c-.084-.715-.416-1.424-.736-2.064-.142-.283-.542-.363-.803-.21-.298.174-.34.512-.21.802.269.606.589 1.28 1.054 1.76.226.234.737.074.695-.288z" fill="#DDB987"/><path d="M137.368 58.154c-.386-2.478-1.7-4.947-2.727-7.225a94.55 94.55 0 00-3.757-7.465c-.36-.642-1.332-.072-.986.576 1.258 2.346 2.479 4.704 3.594 7.123 1.091 2.368 1.857 5.05 3.248 7.255.218.347.686.109.628-.264z" fill="#fff"/><path d="M127.137 74.525c-.451-.097-.902-.22-1.363-.26-.477-.04-.575.726-.112.833.448.104.918.12 1.375.164.421.042.511-.648.1-.737z" fill="#DDB987"/><path d="M123.442 73.323c-1.648-.737-3.502-1.344-5.331-1.261-.503.023-.682.853-.126.933 1.772.255 3.442.456 5.128 1.11.447.172.771-.584.329-.782z" fill="#fff"/><path d="M127.033 82.12c-.563.288-1.153.55-1.683.895-.458.298-.061.961.425.727.569-.275 1.099-.643 1.636-.974.414-.255.051-.868-.378-.648z" fill="#DDB987"/><path d="M121.637 84.121c-2.547.66-5.135 1.711-7.177 3.405-.419.347.121 1.022.576.746 2.22-1.35 4.311-2.58 6.828-3.327.526-.156.307-.962-.227-.824zm11.22-17.033c-2.553-1.771-4.543-4.679-7.333-6.055-.467-.23-1.013.367-.586.758 1.221 1.12 2.554 2.136 3.796 3.24 1.167 1.038 2.344 1.998 3.724 2.74.453.243.814-.396.399-.683z" fill="#fff"/><path d="M123.047 59.072c-.31-.332-.609-.735-.997-.979-.329-.206-.767.211-.544.545.255.382.662.668 1.005.97.365.322.872-.177.536-.536z" fill="#DDB987"/><path d="M149.714 57.297c.215-.75.228-1.554.406-2.316.166-.712-.945-1.013-1.094-.301-.172.827-.327 1.799-.043 2.617.12.345.624.375.731 0z" fill="#fff"/><path d="M150.798 51.724c1.042-3.43 2.017-6.88 2.924-10.35.188-.716-.912-1.019-1.108-.305a274.941 274.941 0 00-2.647 10.426c-.126.54.669.761.831.229zm7.489 7.66a1.2 1.2 0 00.943-.614c.223-.406.23-.917-.161-1.215-.202-.153-.59 0-.625.254-.019.14-.005.243-.004.343 0 .099.002.163-.016.22a.353.353 0 01-.24.251c-.403.115-.345.81.103.761z" fill="#DDB987"/><path d="M162.054 54.862c.715-1.122 1.425-2.245 2.056-3.416.558-1.033 1.286-2.113 1.53-3.268.081-.381-.419-.769-.714-.416-.761.91-1.183 2.101-1.719 3.155-.604 1.188-1.175 2.392-1.774 3.583-.207.412.371.755.621.362zm6.89 10.398a120.565 120.565 0 016.769-4.14c.591-.334.188-1.233-.455-1.078a2.297 2.297 0 00-.537.19c-.116.057-.181.226-.141.348.129.395.271.487.678.6l-.141-1.078a46.532 46.532 0 00-6.706 4.468c-.388.31.118.961.533.69z" fill="#fff"/><path d="M172.046 74.528a22.558 22.558 0 012.55-.176c.749-.006 1.413.09 2.104-.24.251-.12.192-.458 0-.592-1.239-.864-3.441-.223-4.764.2-.416.134-.373.867.11.808z" fill="#DDB987"/><path d="M180.434 73.876c3.118-.066 6.23-.252 9.343-.432l-.404-.974-.355.458c-.152.197-.074.53.217.525l.542-.009c.737-.011.731-1.185 0-1.141-3.117.187-6.235.37-9.343.67-.566.056-.591.915 0 .903z" fill="#fff"/><path d="M170.873 82.827c.276.05.546.088.813.176.258.086.489.242.728.367.277.145.701-.1.575-.442-.303-.82-1.444-1.266-2.202-.757-.231.155-.241.598.086.656z" fill="#DDB987"/><path d="M177.044 84.63c2.676 1.912 5.744 3.137 8.764 4.392l-.252-.954c-.2.242-.383.474-.575.723-.181.234.118.577.379.492.253-.078.504-.165.752-.26.548-.202.531-.894 0-1.102-2.974-1.164-6-2.177-8.701-3.918-.399-.257-.741.36-.367.627z" fill="#fff"/><path d="M177.187 98.025a150.301 150.301 0 00-7.318-5.75c-.596-.436-1.176.563-.581.993a163.61 163.61 0 017.177 5.48c.504.408 1.23-.3.722-.723zm-9.416-7.705c-.37-.447-.734-.9-1.112-1.342-.373-.436-1.054.226-.636.637.412.405.837.798 1.257 1.197.33.313.771-.152.491-.492z" fill="#DDB987"/><path d="M84.098 85.35a3.634 3.634 0 01-3.63-3.63 3.634 3.634 0 013.63-3.63 3.634 3.634 0 013.63 3.63 3.634 3.634 0 01-3.63 3.63zm0-6.427a2.8 2.8 0 00-2.796 2.797 2.8 2.8 0 002.796 2.797 2.8 2.8 0 002.797-2.797 2.8 2.8 0 00-2.797-2.797z" fill="#fff"/><path d="M126.563 121.199a2.348 2.348 0 01-2.345-2.345 2.348 2.348 0 012.345-2.345 2.347 2.347 0 012.344 2.345 2.347 2.347 0 01-2.344 2.345zm0-3.856c-.834 0-1.512.678-1.512 1.511 0 .833.678 1.511 1.512 1.511.833 0 1.511-.678 1.511-1.511 0-.833-.678-1.511-1.511-1.511z" fill="#FBF3E5"/><path d="M145.428 176.204a2.67 2.67 0 01-2.666-2.666 2.67 2.67 0 012.666-2.666 2.67 2.67 0 012.667 2.666 2.67 2.67 0 01-2.667 2.666zm0-4.499c-1.01 0-1.832.822-1.832 1.833 0 1.011.822 1.833 1.832 1.833a1.835 1.835 0 001.833-1.833 1.835 1.835 0 00-1.833-1.833zm57.326-23.717a3.151 3.151 0 01-3.148-3.148 3.151 3.151 0 013.148-3.148 3.151 3.151 0 013.148 3.148 3.151 3.151 0 01-3.148 3.148zm0-5.463a2.318 2.318 0 00-2.315 2.315 2.317 2.317 0 002.315 2.315 2.318 2.318 0 002.315-2.315 2.318 2.318 0 00-2.315-2.315zm-25.936-96.792a4.6 4.6 0 01-4.594-4.594 4.6 4.6 0 014.594-4.594 4.6 4.6 0 014.594 4.594 4.6 4.6 0 01-4.594 4.594zm0-8.355a3.765 3.765 0 00-3.761 3.761 3.765 3.765 0 003.761 3.761 3.765 3.765 0 003.761-3.761 3.765 3.765 0 00-3.761-3.761z" fill="#fff"/><path d="M91.736 197.318a1.705 1.705 0 01-1.401-1.961L112.7 60.99l3.362.56-22.365 134.366a1.705 1.705 0 01-1.961 1.402z" fill="#E09433"/><path d="M120.857 64.591c-.159.328-.322.654-.463.99-.121.29-.316.66-.186.972.06.144.188.204.334.136.294-.137.396-.504.502-.79.133-.355.231-.723.338-1.087.09-.305-.381-.52-.525-.221zm-1.979 2.742c-2.571.025-2.117 3.306-2.578 5.032-.874 3.27-2.485 6.92-2.265 10.357.01.155.23.241.312.084 1.105-2.106 1.342-4.69 1.97-6.975.295-1.072.66-2.126.936-3.203.307-1.2.349-4.31 1.709-4.676.342-.092.275-.623-.084-.62zm-5.523 18.57c-.647 2.919-1.292 5.864-1.841 8.801-.085.454.577.651.701.193.783-2.89 1.206-5.981 1.305-8.971.003-.094-.144-.115-.165-.023z" fill="#DDB987"/><path d="M91.736 197.318a1.705 1.705 0 01-1.401-1.961L112.7 60.99l1.681.28-22.645 136.048z" fill="#CD7930"/><path d="M96.826 156.359l-.356 2.14 3.362.559.356-2.14-3.362-.559zm5.016-30.134l-.357 2.14 3.362.559.356-2.139-3.361-.56zm5.015-30.134l-.356 2.14 3.362.56.356-2.14-3.362-.56zm5.016-30.133l-.356 2.14 3.362.56.356-2.14-3.362-.56z" fill="#5B8A72"/><path d="M14.086 75.338s.288 9.14.485 10.206c.196 1.067 5.733 3.576 6.736 3.832 1.004.256 7.69-2.963 8.096-3.552.406-.59-.468-3.738-.508-3.951-.039-.214-2.37-.887-2.37-.887s.524-2.744.556-2.97c.032-.227-5.507-3.544-5.507-3.544l-7.488.866z" fill="#8B4D41"/><path d="M23.183 82.844c-.338 0-.64-.061-.893-.186-.345-.168-.565-.449-.605-.77-.063-.503.295-.949.62-1.244-1.774-.257-3.378-2.146-3.453-2.235a.208.208 0 01.32-.268c.018.023 1.92 2.27 3.709 2.107a.208.208 0 01.125.387c-.273.163-.97.698-.908 1.203.023.18.156.339.375.446.258.127 1.248.453 3.147-.673a.208.208 0 11.212.358c-.967.574-1.897.875-2.65.875zm-.283 5.192l-.024-.001a.209.209 0 01-.184-.231c.07-.602.116-2.285-.491-2.844-.773-.713-3.575-1.528-3.604-1.537a.208.208 0 01.116-.4c.12.035 2.926.852 3.77 1.63.886.817.634 3.102.623 3.199a.208.208 0 01-.207.184z" fill="#1A2D3C"/><path d="M26.033 86.372a.209.209 0 01-.205-.246c.017-.095.401-2.324-1.83-3.372a.208.208 0 11.176-.376c2.529 1.186 2.069 3.798 2.064 3.824a.208.208 0 01-.205.17z" fill="#1A2D3C"/><path d="M28.635 33.275c-.483 4.036-.445 6.777-.445 6.777l-9.088 13.611 6.286 20.616s-1.446 3.437-6.004 4.592c-4.561 1.16-7.105 0-7.105 0-.827-1.372-5.207-13.387-6.402-18.655-.413-1.84-.784-3.646-1.043-5.235-.364-2.21-.534-4-.36-4.87.159-.832 1.156-2.749 2.61-5.153 4.252-6.997 14.31-21.749 16.928-21.741 4.75.008 5.206 5.261 4.623 10.058z" fill="#BA233E"/><path d="M.955 58.708c.245.863.427 1.734.611 2.611.165.782.231 1.61.545 2.345.141.332.606.126.625-.17.1-1.603-.771-3.445-1.342-4.907-.104-.267-.52-.168-.439.12zm1.792-9.448c2.585-5.006 4.973-9.898 8.388-14.417 1.655-2.19 3.077-4.435 4.978-6.442 1.656-1.749 4.045-3.538 5.157-5.673.088-.17-.089-.34-.257-.257-2.218 1.106-4.064 3.81-5.752 5.602-1.78 1.89-3.103 3.99-4.64 6.067-3.385 4.572-6.618 9.461-8.202 14.982-.055.192.233.322.328.138zm20.431-27.415c.605-.035 1.139-.493 1.667-.763.514-.263 1.272-.417 1.59-.915.108-.167.006-.42-.188-.464-.593-.135-1.226.326-1.736.597-.533.282-1.28.576-1.568 1.136-.088.172.017.42.235.409z" fill="#DDB987"/><path d="M12.37 87.793c1.965 1.621 4.649 3.553 7.268 3.783.33.03.436-.459.165-.61-1.152-.644-2.488-.957-3.679-1.547a26.55 26.55 0 01-3.444-2.028c-.236-.164-.534.216-.31.401z" fill="#F1D5A7"/><path d="M4.231 60.353a487.838 487.838 0 003.24 13.088c1.067 4.042 1.788 8.473 3.451 12.312.189.436.976.227.915-.247-.532-4.151-2.175-8.332-3.32-12.354a487.906 487.906 0 00-3.9-12.905c-.078-.245-.445-.145-.386.106z" fill="#DDB987"/><path d="M28.19 40.052l-9.088 13.611 6.286 20.616s-1.446 3.437-6.004 4.592c-4.561 1.16-7.105 0-7.105 0-.827-1.372-5.207-13.386-6.402-18.655 4.844 2.76 6.514-1.918 7.535-6.43 1.136-4.986 10.63-18.547 14.674-20.843l.549.333c-.483 4.035-.445 6.776-.445 6.776z" fill="#8F2429"/><path d="M12.13 71.364a1.2 1.2 0 100-2.401 1.2 1.2 0 000 2.4zm1.378 4.602a1.2 1.2 0 100-2.401 1.2 1.2 0 000 2.4z" fill="#1A2D3C"/><path d="M4.471 50.111c-.167.867 0 2.658.362 4.868a3.865 3.865 0 002.345-.462c.813-.458 1.498-1.25 1.83-2.432.32-1.13.458-2.288.399-3.337a6.324 6.324 0 00-.224-1.433C8.85 46.1 8.16 45.204 7.085 44.958c-1.455 2.4-2.45 4.32-2.614 5.153z" fill="#CE5D79"/><path d="M8.45 49.002a.209.209 0 01-.01-.416l1.602-.076c.11-.013.213.083.218.198a.208.208 0 01-.198.218l-1.601.076h-.01zM8.272 47.8a.208.208 0 01-.06-.407l1.517-.463a.208.208 0 01.122.399l-1.518.462a.21.21 0 01-.06.01zm-.662 8.043a.208.208 0 01-.195-.133l-.732-1.891a.208.208 0 01.389-.15l.731 1.89a.208.208 0 01-.194.284zm7.5-1.97a.207.207 0 01-.056-.008l-5.222-1.46a.208.208 0 01.112-.402l5.222 1.461a.208.208 0 01-.056.409zm-5.354 1.425a.208.208 0 01-.023-.415c1.443-.165 4.831-.538 5.123-.464a.208.208 0 01-.097.405c-.286-.04-3.202.27-4.98.473a.213.213 0 01-.023.001z" fill="#1A2D3C"/><path d="M46.998 121.975a404.482 404.482 0 01-1.662 9c-.2 1.013-.725 2.896-1.442 5.292-3.133 10.487-9.988 30.808-9.988 30.808l-4.795.059-9.534.12 6.892-39S23.206 89.796 23.023 84.9c-.067-1.854.175-4.12.504-6.225A78.484 78.484 0 0124.84 72.2c4.35-13.062 25.396-7.075 26.666 6.167.942 9.842-2.325 31.1-4.508 43.608z" fill="#416050"/><path d="M49.398 115.137c-.857 4.823-2.16 9.563-3.007 14.373-.066.379.494.7.679.286 1.977-4.428 2.75-9.757 2.924-14.578.012-.335-.535-.422-.596-.081z" fill="#DDB987"/><path d="M46.157 135.976c-1.712 2.968-2.597 6.611-3.619 9.868-1.03 3.283-2.387 6.748-2.68 10.19-.038.43.652.627.832.226 1.37-3.047 1.965-6.508 2.912-9.707 1.006-3.395 2.504-6.869 3.059-10.365.046-.29-.336-.502-.504-.212z" fill="#F1D5A7"/><path d="M38.809 159.95a39.32 39.32 0 01-.467 2.619c-.168.768-.482 1.556-.468 2.344.005.271.365.368.506.137.439-.717.527-1.651.664-2.471a26.92 26.92 0 00.298-2.557c.021-.301-.488-.376-.533-.072z" fill="#DDB987"/><path d="M37.817 168.919c-.58 5.897-1.497 13.259 3.276 17.803.341.325 1.05.005.854-.498-1.119-2.879-3.012-4.872-3.247-8.143-.219-3.049-.105-6.111-.372-9.162a.255.255 0 00-.51 0z" fill="#F1D5A7"/><path d="M41.988 190.472c.491 1.152 1.146 2.157 2.035 3.044.748.747 1.743 1.669 2.842 1.749.436.031.563-.511.328-.791-.646-.767-1.702-1.191-2.44-1.888a10.89 10.89 0 01-1.993-2.566c-.29-.515-.991-.062-.772.452zM19.97 93.503c.116 1.65.083 3.467.502 5.072.09.346.584.255.604-.082.095-1.63-.287-3.374-.492-4.99-.048-.382-.643-.403-.614 0zm1.324 10.326c.028 3.964 1.182 8.009 1.5 11.978.325 4.04.044 8.099.35 12.125.04.529.891.736.996.135.715-4.084.322-8.544-.086-12.65-.378-3.807-.661-8.223-2.299-11.713-.107-.229-.462-.108-.46.125z" fill="#DDB987"/><path d="M22.162 132.088c-.272 2.464-1.006 4.795-1.398 7.222-.057.355.472.669.642.271.98-2.296 1.196-5.022 1.331-7.493.02-.375-.535-.359-.575 0z" fill="#F1D5A7"/><path d="M20.749 143.342c-1.224 3.528-2.027 7.236-2.974 10.846-.853 3.249-2.307 6.844-2.415 10.207-.008.252.366.361.484.131 1.523-2.987 1.993-6.853 2.812-10.095.914-3.623 2-7.257 2.632-10.94.06-.352-.42-.493-.54-.149zm-6.323 25.834c-.113 1.724-.26 3.553.23 5.23.089.306.494.218.525-.071.182-1.704-.046-3.445-.005-5.159.012-.486-.72-.478-.75 0zm.841 8.909c.425 2.863.634 5.784.702 8.678.055 2.31-.35 4.802.36 7.036.186.584 1.205.522 1.13-.153-.297-2.674-.127-5.351-.31-8.034-.18-2.611-.67-5.152-1.274-7.695-.096-.404-.667-.223-.608.168z" fill="#DDB987"/><path d="M46.998 121.975a404.482 404.482 0 01-1.662 9c-.2 1.013-.725 2.896-1.442 5.292-3.133 10.487-9.988 30.808-9.988 30.808l-4.795.059c-.988-1.35-1.392-3.213-1.034-5.58 2.813-18.637 11.25-33.758 10.196-38.508-1.054-4.746-4.746-17.758-2.108-20.571 2.637-2.812 5.975-12.658 3.866-13.362-1.783-.596-11.595-5.204-16.504-10.438A78.484 78.484 0 0124.84 72.2c4.35-13.062 25.396-7.075 26.666 6.167.942 9.842-2.325 31.1-4.508 43.608z" fill="#304B3B"/><path d="M30.665 162.677a.208.208 0 01-.203-.254c.063-.282 6.297-28.207 6.763-32.551.467-4.357 4.422-38.555 4.462-38.9a.209.209 0 01.414.048c-.04.345-3.995 34.542-4.462 38.897-.468 4.367-6.708 32.315-6.77 32.597a.208.208 0 01-.204.163z" fill="#1A2D3C"/><path d="M40.961 129.737l-.018-.001-11.572-1.001a.208.208 0 11.036-.415l11.572 1.001a.208.208 0 01-.018.416zm-1.001 1.447l-.014-.001-10.126-.667a.209.209 0 01-.194-.222.206.206 0 01.221-.194l10.126.667a.209.209 0 01-.013.417z" fill="#1A2D3C"/><path d="M46.998 121.975a403.337 403.337 0 01-1.662 9c-.2 1.013-.725 2.896-1.442 5.292-1.396-1.042-2.854-3.121-1.942-7.121.963-4.237 3.338-6.25 5.046-7.171z" fill="#5B8A72"/><path d="M44.988 124.918a.207.207 0 01-.168-.085l-.825-1.124a.21.21 0 01.045-.292.208.208 0 01.291.045l.825 1.124a.21.21 0 01-.168.332zm-.15.974a.207.207 0 01-.138-.052l-1.274-1.124a.208.208 0 11.275-.312l1.274 1.124a.208.208 0 01-.137.364zm-3.598 9.595a.208.208 0 01-.14-.363l1.649-1.499a.209.209 0 01.28.309l-1.649 1.499a.209.209 0 01-.14.054z" fill="#1A2D3C"/><path d="M22.75 171.082c.283-1.83 7.852.976 7.852.976s4.41 16.21 5.064 17.165c.655.955 3.176 3.819 4.628 4.854 1.452 1.034 1.153 2.068-4.032 1.352-5.186-.716-13.461-13.287-13.461-13.287s-.335-9.23-.052-11.06z" fill="#8B4D41"/><path d="M20.938 197.018h4.31c.076-2.458.36-6.85 1.45-6.85 1.224 0 2.228 4.971 2.56 6.85h15.053l-7.607-7.714s-.708.634-1.578.714c-.601.054-3.913-5.476-6.662-9.384-1.272-1.803-2.426-3.264-3.135-3.666-2.255-1.272-4.225-.397-4.488 2.469-.263 2.862.097 17.581.097 17.581z" fill="#E09433"/><path d="M31.894 197.018h12.417l-7.607-7.714s-.708.634-1.578.714c-.601.054-3.913-5.475-6.662-9.384 1.525 2.781 3.49 6.115 4.815 8.863 1.509 3.13.473 5.675-1.385 7.521z" fill="#C27D33"/><path d="M17.142 163.966l.725 9.561 1.965.048 14.93.376.74-8.514.15-1.713-18.51.242z" fill="#638D77"/><path d="M19.832 173.575l14.93.376.74-8.514-1.042-.585-8.063.762s-2.743 5.406-6.565 7.961z" fill="#416050"/><path d="M29.242 173.267l-.02-.001a.208.208 0 01-.188-.226l.769-8.522a.214.214 0 01.226-.189.21.21 0 01.189.226l-.769 8.523a.208.208 0 01-.207.189zm-2.084-1.42l-.02-.001a.208.208 0 01-.188-.227l.613-6.417a.208.208 0 11.415.04l-.613 6.417a.208.208 0 01-.207.188z" fill="#1A2D3C"/><path d="M77.973 136.521c-1.7 11.708-4.2 28.338-3.808 29.254.291.679-3.013.734-6.425.613a164.518 164.518 0 01-7.084-.417l-.791-35.962s-15.65-31.575-18.98-42.346c-.187-.6-.35-1.213-.491-1.834-2.442-10.491 1.137-23.341 12.042-25.374 11.55-2.155 16.25 3.716 18.595 10.962.338 1.03 5.846 35.117 7.767 48.567.409 2.858.654 4.787.654 5.266 0 .904-.641 5.488-1.479 11.271z" fill="#5B8A72"/><path d="M73.894 79.123c1.285 12.474 4.09 24.751 5.41 37.227.075.71 1.174.74 1.133 0-.34-6.172-1.363-12.326-2.45-18.403-1.125-6.291-2.262-12.664-3.842-18.858-.035-.135-.266-.112-.251.034z" fill="#fff"/><path d="M80.03 120.263c.237.716.416 1.448.608 2.177.171.649.204 1.434.605 1.98.173.236.668.281.723-.094.107-.738-.246-1.429-.518-2.109-.292-.732-.664-1.421-1.038-2.114-.11-.204-.454-.065-.38.16zm.68 7.217c-1.278 5.157-1.852 10.559-2.704 15.802a890.344 890.344 0 00-1.213 7.727c-.379 2.468-.97 4.997-1.048 7.494-.018.605.883.713 1.043.141.733-2.608.935-5.436 1.346-8.114.397-2.58.782-5.16 1.155-7.743.729-5.038 1.75-10.136 2.065-15.22.022-.37-.555-.443-.643-.087z" fill="#DDB987"/><path d="M77.22 159.953c-.117.828.228 1.657.449 2.449.22.789.33 1.717.887 2.339.163.182.53.101.574-.151.142-.828-.248-1.668-.48-2.458-.231-.785-.373-1.68-.91-2.316-.14-.167-.488-.09-.52.137z" fill="#F1D5A7"/><path d="M78.722 167.066c-.36 1.4-.527 2.836-.738 4.265-.186 1.254-.542 2.569-.39 3.83.04.317.532.575.7.189.487-1.117.539-2.366.697-3.57.203-1.533.447-3.067.46-4.616.004-.416-.623-.507-.729-.098z" fill="#DDB987"/><path d="M74.45 176.912c-.06.891.038 1.806.37 2.641.239.601.557 1.467 1.274 1.532.117.011.265-.098.285-.217.098-.594-.398-1.046-.636-1.571a5.857 5.857 0 01-.527-2.385c-.005-.497-.734-.488-.767 0z" fill="#F1D5A7"/><path d="M77.267 184.057c.768 2.514 2.613 4.81 4.13 6.927 1.077 1.502 2.5 3.515 4.439 3.841.44.074.84-.442.466-.801-1.563-1.501-3.058-2.625-4.356-4.435-1.375-1.917-2.753-3.816-4-5.818-.217-.347-.806-.128-.679.286z" fill="#DDB987"/><path d="M51.676 120.424c.728 1.323 1.4 2.674 2.145 3.988.59 1.042 1.073 2.301 2.07 3.002.286.202.57-.13.527-.405-.188-1.224-1.206-2.311-1.887-3.321-.796-1.182-1.658-2.317-2.469-3.49-.162-.234-.527-.03-.386.226z" fill="#F1D5A7"/><path d="M56.694 130.645c-.2 3.474-.069 6.958-.308 10.435-.239 3.469-.964 6.89-1.178 10.351-.038.611.838.666 1.02.137 1.12-3.271 1.362-7.051 1.508-10.488.149-3.476.104-7.081-.689-10.483-.048-.205-.341-.147-.353.048zm-1.154 24.777c-.004 2.514-.536 4.932-.685 7.418-.026.436.578.456.714.096.867-2.294.742-5.127.459-7.514-.036-.303-.487-.322-.487 0z" fill="#DDB987"/><path d="M55.178 167.799c-.39 2.668-.263 5.441-.28 8.134-.018 2.944-.1 5.92.093 8.858.043.649.956.646 1.006 0 .232-2.936.164-5.914.139-8.858-.024-2.689.068-5.476-.373-8.134-.047-.287-.542-.292-.585 0z" fill="#F1D5A7"/><path d="M55.062 188.056c.032 1.4-.158 3.048.187 4.406.09.355.686.39.754 0 .243-1.386-.062-3.003-.135-4.406-.026-.515-.818-.522-.806 0z" fill="#DDB987"/><path d="M77.973 136.521c-1.7 11.708-4.2 28.338-3.808 29.254.291.679-3.013.734-6.425.613.441-4.142 1-8.959 1.654-13.8 1.758-13.013 4.925-26.025 4.046-31.475-.88-5.45-12.308-23.034-9.146-26.021 3.167-2.988 3.342-12.308-2.458-10.55-4.605 1.396-15.288 2.787-21.442 1.287-2.442-10.491 1.137-23.341 12.042-25.374 11.55-2.155 16.25 3.716 18.595 10.962.338 1.03 5.846 35.117 7.767 48.567.409 2.858.654 4.787.654 5.266 0 .904-.641 5.488-1.479 11.271z" fill="#4A775F"/><path d="M79.452 125.25c0 .904-.641 5.488-1.479 11.271-5.175-4.183-3.846-14.375.825-16.537.409 2.858.654 4.787.654 5.266z" fill="#82BE9B"/><path d="M69.174 162.564l-.025-.001a.208.208 0 01-.182-.231l4.154-35.563-10.805-53.53a.208.208 0 11.408-.083l10.812 53.562a.21.21 0 01.003.066L69.38 162.38a.208.208 0 01-.206.184z" fill="#1A2D3C"/><path d="M61.95 130.829a.21.21 0 01-.068-.406c.396-.135 9.726-3.32 11.802-3.686a.206.206 0 01.242.169.208.208 0 01-.17.241c-2.044.361-11.642 3.637-11.74 3.67a.199.199 0 01-.066.012zm1.593.981a.209.209 0 01-.058-.408l10.054-2.943a.208.208 0 11.117.399l-10.054 2.943a.2.2 0 01-.059.009zm14.414-9.591a.21.21 0 01-.164-.08l-1.215-1.547a.209.209 0 01.035-.293.209.209 0 01.292.036l1.216 1.547a.208.208 0 01-.164.337zm-.774.663a.213.213 0 01-.115-.035l-1.326-.884a.208.208 0 01.23-.347l1.327.884a.208.208 0 01-.116.382zm-1.878 12.045a.209.209 0 01-.147-.356l1.326-1.326a.209.209 0 01.294.295l-1.326 1.326a.206.206 0 01-.147.061z" fill="#1A2D3C"/><path d="M63.027 171.082c.319-1.83 7.834.976 7.834.976s4.101 16.21 4.738 17.165c.636.955 3.103 3.819 4.535 4.854 1.432 1.034 1.114 2.068-4.058 1.352s-13.208-13.287-13.208-13.287-.159-9.23.16-11.06z" fill="#8B4D41"/><path d="M60.72 197.018h4.316c.118-2.458.483-6.85 1.573-6.85 1.229 0 2.136 4.971 2.437 6.85h15.052l-7.467-7.714s-.714.634-1.589.714c-.553.048-3.312-4.627-5.835-8.423-1.482-2.228-2.888-4.155-3.715-4.627-2.228-1.272-4.214-.397-4.53 2.469-.323 2.862-.242 17.581-.242 17.581z" fill="#E09433"/><path d="M70.48 197.018h13.618l-7.467-7.714s-.714.634-1.589.714c-.553.048-3.312-4.627-5.835-8.423 1.498 3.908 2.802 6.587 3.2 10.291.23 2.174-.736 3.887-1.928 5.132z" fill="#C27D33"/><path d="M58.38 163.966l.543 9.561 4.471.113 12.412.311.934-8.74.156-1.487-18.516.242z" fill="#82BE9B"/><path d="M63.395 173.64l12.41.311.935-8.74c-2.239.178-7.891 1.16-7.891 1.16s-2.244 4.858-5.455 7.269z" fill="#5B8A72"/><path d="M70.305 173.267l-.023-.001a.209.209 0 01-.184-.23l.93-8.522a.206.206 0 01.23-.184.208.208 0 01.185.229l-.931 8.523a.208.208 0 01-.207.185zm-2.057-1.42l-.024-.001a.208.208 0 01-.183-.231l.735-6.416a.209.209 0 11.414.047l-.735 6.416a.208.208 0 01-.207.185z" fill="#1A2D3C"/><path d="M44.092 10.38c.194.3.408.564.64.795l.02.021c1.88 1.793 3.834 1.96 5.186 1.133.704-.424 1.246-1.117 1.536-1.986.59-1.767.708-4.751-.676-6.748v-.006c-.613-.896-1.536-1.583-2.846-1.879-5.164-1.17-5.942 5.45-3.86 8.67z" fill="#8B4D41"/><path d="M44.731 10.756a5.41 5.41 0 000 .419l.022.021c1.879 1.793 3.833 1.96 5.185 1.133-1.24-.408-1.862-1.289-2.254-2.674-.489-1.728-2.78-2.426-2.953 1.1z" fill="#1A2D3C"/><path d="M53.113 4.325c-.674-2.207-3.773-2.285-4.169-2.284a4.915 4.915 0 00-.264-.108c-.572-.264-1.231-.395-1.98-.356a3.79 3.79 0 00-.763.094c-3.055.568-3.726 3.52-3.143 6.011.15 1.01.798 1.926 1.298 2.7 1.688.336 4.308.1 4.308.1.83-1.397 1.45-3.833 1.45-3.833.008-.01.013-.02.02-.031.1.022.45.714.562.737.784.163.994-1.567.994-1.567l.004.004c.125.041 2.383.829 1.683-1.467z" fill="#1A2D3C"/><path d="M49.226 9.594c.383.42 1.428.46 1.278-1.66-.151-2.12-1.13-1.78-1.13-1.78s-.595.024-.653 1.565c-.06 1.54.505 1.875.505 1.875z" fill="#8B4D41"/><path d="M45.395 1.995c1.33.48 1.233 3.36-.893 3.19-2.127-.17-1.574-4.084.893-3.19z" fill="#BA233E"/><path d="M41.264.64c4.794.73 3.813 4.256 1.808 4.414-3.788.299-.193 5.332-3.195 9.507-3.003 4.175-11.961 3.97-13.718-2.259 0 0 6.805 2.165 8.04-4.396 1.05-5.594 3.9-7.75 7.066-7.267z" fill="#1A2D3C"/><path d="M48.576 16.154l.455-5.627-4.408-.044-.83 5.67h4.783z" fill="#8B4D41"/><path d="M38.982 19.114l6.7.327 6.694.328s-.564-2.878-.983-3.613c-.263-.472-2.136-.913-4.359-1.149a31.293 31.293 0 00-3.876-.188c-3.457.06-3.698 1.37-4.176 4.295z" fill="#BA233E"/><path d="M45.681 19.441l6.695.328s-.564-2.878-.983-3.613c-.263-.472-2.136-.913-4.359-1.149a7.194 7.194 0 01-1.352 4.434z" fill="#8F2429"/><path d="M23 74.09s1.9 4.198 12.058 7.677l5.524-8.75 5.792 10.189c3.157-.344 7.489-1.047 12.09-2.475 5.352-1.648 11.053-4.273 15.69-8.45l-10.15-21.403s6.12-9.733 6.259-11.816c.107-1.567-1.992-10.35-3.039-14.623-.349-1.417-.58-2.335-.58-2.335S56.5 18.35 44.684 18.072c-11.816-.279-20.71 5.143-20.71 5.143s1.116 8.23 3.644 17.323c1.036 3.748 2.32 7.645 3.86 11.172 0 0-7.644 14.317-8.476 22.38z" fill="#BA233E"/><path d="M28.766 19.3c1.177-.151 2.348-.268 3.515-.484 1.115-.206 2.457-.205 3.439-.79.184-.11.14-.383-.059-.445-1.048-.327-2.341.045-3.392.257-1.26.254-2.4.705-3.566 1.23-.108.05-.057.247.063.231zm23.291-6.701c-.093.454-.203.837-.229 1.306-.021.4-.113.857.214 1.149.124.11.336.136.457 0 .286-.322.186-.663.147-1.065-.021-.22-.021-.45-.054-.669-.034-.228-.12-.44-.151-.669-.026-.197-.336-.29-.384-.052zm.573 3.798c.384.535.359 1.152.886 1.564.943.736 3.667.546 4.767.658 3.938.4 8.384.85 11.496 3.627.424.38 1.054-.247.626-.626-2.054-1.825-5.374-3.062-8.067-3.458-2.986-.438-7.244.228-9.47-1.949-.12-.116-.343.04-.239.184z" fill="#DDB987"/><path d="M68.089 55.896c1.001 2.771 2.28 5.44 3.542 8.1 1.224 2.581 2.333 5.61 4.181 7.812.272.324.808-.024.694-.404-.79-2.64-2.544-5.129-3.828-7.56-1.421-2.693-2.73-5.45-4.239-8.096-.104-.183-.425-.06-.35.148z" fill="#fff"/><path d="M76.168 74.356l-1.136.825c-.334.243-.754.463-.95.838a.324.324 0 00.361.47c.411-.094.735-.446 1.054-.706l1.087-.888c.299-.244-.1-.768-.416-.539z" fill="#DDB987"/><path d="M27.617 40.539c1.036 3.747 2.32 7.644 3.86 11.171 0 0 7.929 1.771 17.57 8.332 6.963 4.734 8.933 13.71 9.416 20.689a50.923 50.923 0 006.48-2.475c3.253-1.514 6.426-3.462 9.212-5.975L64.003 50.878s6.12-9.733 6.26-11.816c.037-.52-.172-1.825-.5-3.505-.665-3.382-1.84-8.262-2.539-11.118-6.662 1.364-10.87 12.857-14.848 20.03-3.865 6.978-17.42 3.81-24.759-3.93z" fill="#8F2429"/><path d="M56.82 52.923c-.117 2.684 5.492 12.846 8.123 25.333 3.253-1.514 6.426-3.463 9.212-5.975L64.003 50.878s6.12-9.733 6.26-11.816c.037-.52-.172-1.825-.5-3.505l-8.712-1.412c-1.246 4.853-4.107 15.911-4.23 18.778z" fill="#6D1C20"/><path d="M44.583 52.576a.208.208 0 01-.202-.155c-.172-.65-4.222-15.975-4.536-20.264-.315-4.302 1.358-11.474 1.375-11.546a.208.208 0 11.406.095c-.018.072-1.675 7.183-1.365 11.42.31 4.25 4.481 20.03 4.523 20.188a.208.208 0 01-.201.262zm-3.477 18.752a.208.208 0 01-.192-.288c1.554-3.73 3.862-15.85 3.886-15.972a.209.209 0 01.41.077c-.096.5-2.341 12.285-3.911 16.054a.208.208 0 01-.193.129zm6.321-16.329a.208.208 0 01-.047-.412c2.69-.62 9.796-3.645 9.868-3.675a.208.208 0 11.163.383c-.293.125-7.212 3.07-9.937 3.698a.205.205 0 01-.047.006zm-4.951 0a.215.215 0 01-.05-.006c-.068-.017-6.793-1.704-9.93-2.959a.208.208 0 11.155-.386c3.11 1.244 9.808 2.923 9.875 2.94a.208.208 0 01-.05.41z" fill="#1A2D3C"/><path d="M121.009 59.946c-.047.87-.852 3.59-1.358 4.803-.14.322-.252.54-.326.59-.346.234-1.218.35-1.218.35l-5.686-3.134s-2.146 1.568-3.364 1.684c-1.221.117-3.539-1.684-3.539-1.684l-.638-8.7s7.133-4.122 8.063-3.889c.929.233 8.124 8.879 8.066 9.98z" fill="#8B4D41"/><path d="M119.651 64.749c-.14.322-.252.54-.326.59-.346.234-1.218.35-1.218.35l-5.686-3.134s-2.146 1.568-3.364 1.684c-1.221.117-3.539-1.684-3.539-1.684l-.638-8.7c3.481.867 4.986 7.02 4.986 7.02l3.31-.292s4.309 3.928 6.475 4.166z" fill="#733830"/><path d="M113.523 59.574a.208.208 0 01-.147-.356c.656-.655.461-1.058.191-1.615-.245-.506-.549-1.136.017-1.953.438-.632.252-.812-.005-1.06-.27-.262-.639-.62-.046-1.386.19-.246.253-.485.193-.73-.143-.582-.97-1.075-1.276-1.216a.209.209 0 01.174-.378c.052.024 1.287.6 1.507 1.495.091.37.001.735-.269 1.084-.364.472-.24.592.007.83.277.27.696.676.058 1.598-.428.618-.223 1.043.015 1.534.278.575.593 1.227-.271 2.092a.209.209 0 01-.148.061zm5.686 3.539a.208.208 0 01-.153-.067l-3.539-3.829a.209.209 0 01.306-.283l3.539 3.829a.208.208 0 01-.153.35zm.638-2.669a.208.208 0 01-.155-.07l-3.887-4.351a.208.208 0 11.31-.278l3.888 4.352a.209.209 0 01-.156.347z" fill="#1A2D3C"/><path d="M106.176 64.655s-11.438 1.805-17.307 0c-3.76-1.155-13.635-9.108-20.8-15.937-4.017-3.831-7.182-7.312-7.94-9.043-2.109-4.814-.44-18.597 6.024-17.574 5.036.797 23.77 25.85 23.77 25.85l15.199 4.065s2.384 2.314 2.714 6.028c.167 1.882-.19 4.126-1.66 6.611z" fill="#BA233E"/><path d="M71.448 24.016c.576.375 1.088.864 1.563 1.359.396.411.732 1.045 1.292 1.228.212.07.411-.115.419-.32.026-.68-.713-1.288-1.197-1.677-.577-.463-1.207-.761-1.89-1.036-.266-.107-.407.302-.187.446zm5.374 5.052c1.94 3.324 5.087 5.88 7.513 8.841 2.327 2.838 4.243 5.971 6.637 8.773.355.415.95-.186.599-.598-2.395-2.802-4.281-5.963-6.615-8.796-2.353-2.857-5.02-6.157-8.03-8.323-.064-.046-.14.041-.104.103z" fill="#DDB987"/><path d="M93.37 47.712c2.268.955 4.856 1.353 7.247 1.92 2.036.482 4.119 1.102 6.227 1.061.451-.009.595-.75.111-.823-4.467-.676-9.037-2.29-13.54-2.495-.21-.01-.21.268-.046.337z" fill="#fff"/><path d="M108.174 50.433c.51-.048 1.014-.092 1.514-.208.409-.096.972-.18 1.154-.605.053-.122.046-.292-.094-.36-.41-.2-.786.013-1.186.168-.483.187-.959.397-1.446.574-.216.078-.205.456.058.43zm4.262-1.417c1.567-.148 3.184 1.777 4.234 2.769 1.038.98 2.071 1.966 3.109 2.947 2.538 2.4 3.159 4.466 2.297 7.806-.134.52.589.832.869.366 1.711-2.855.252-6.228-1.922-8.332-1.562-1.512-3.15-3.06-4.876-4.386-1.114-.856-2.306-1.895-3.75-1.452-.147.045-.129.298.039.282zM76.215 59.484c5.77 5.748 14.447 11.19 22.997 9.394.677-.142.373-1.11-.28-1.016-8.484 1.205-16.05-3.77-22.456-8.716-.197-.152-.43.17-.261.338zm27.207 8.861c1.256-.198 2.713-.204 3.899-.688.304-.124.296-.615-.083-.611-1.312.012-2.667.572-3.93.884-.275.067-.153.458.114.415z" fill="#DDB987"/><path d="M106.176 64.655s-11.438 1.805-17.307 0c-3.76-1.155-13.635-9.108-20.8-15.937 4.279 3.352 13.461 10.01 19.73 10.706 6.853.763 15.491-.182 20.037-1.38.167 1.882-.19 4.126-1.66 6.611z" fill="#8F2429"/><path d="M93.54 59.697c-.234 2.069-1.918 3.55-4.854 2.578-3.422-1.132-5.118-2.691-5.725-4.22-1.131-2.843 1.486-5.592 3.703-5.328 5.028.595 7.175 4.278 6.876 6.97z" fill="#CE5D79"/><path d="M93.54 59.697c-.234 2.069-1.918 3.55-4.854 2.578-3.422-1.131-5.118-2.691-5.725-4.22 1.708.708 3.353 1.206 4.838 1.37 1.824.202 3.773.283 5.74.272z" fill="#BA233E"/><path d="M85.012 53.85a.209.209 0 01-.2-.148l-.443-1.441a.208.208 0 01.398-.123l.444 1.442a.208.208 0 01-.2.27zm.776-.111a.208.208 0 01-.206-.18l-.222-1.552a.208.208 0 11.413-.06l.222 1.554a.208.208 0 01-.207.238zm7.654 8.874a.207.207 0 01-.112-.033l-1.387-.888a.208.208 0 11.225-.35l1.386.887a.208.208 0 01-.112.384zm6.471.24a1.207 1.207 0 10-2.298-.74 1.207 1.207 0 002.298.74zm4.833.097a1.208 1.208 0 10-2.301-.738 1.208 1.208 0 002.301.738z" fill="#1A2D3C"/></svg>