<svg width="218" height="218" fill="none" xmlns="http://www.w3.org/2000/svg"><path opacity=".6" d="M21.763 39.313c5.566-22.051 32.54 3.748 32.969-17.66.428-21.41 42.175-22.694 65.082-19.91 22.907 2.782 13.059 21.408 30.828 22.692 17.77 1.285 43.246-4.579 52.666 21.54 9.419 26.118 5.566 75.333 4.924 101.879-.643 26.547-16.913 12.203-17.341 31.899-.214 9.784-2.698 17.461-9.185 23.366 0 0-.03.03-.094.081-.98.835-9.48 7.746-20.655 6.461-11.886-1.362-15.568-5.874-16.943-18.287-1.374-12.413-22.012-11.488-20.68 8.212 1.331 19.679-34.87 15.581-45.888 14.575-7.835-1.507-13.44-3.746-14.579-7.005-4.496-12.845-.214-29.544-9.848-29.115-9.634.428-28.473 1.07-31.042-19.482-2.57-20.553-5.78-97.195-.214-119.246z" fill="#EDD3A5"/><g opacity=".5"><path opacity=".5" d="M123.126 13.599c-23.577 0-18.401 29.09-18.976 39.643-.575 10.553 4.313 25.384 19.551 25.384 15.239 0 13.514-21.39 13.514-34.225 0-12.834.575-30.802-14.089-30.802z" fill="#E09432"/><g opacity=".5"><path opacity=".5" d="M118.779 94.064c-18.21 0-18.97 27.095-18.59 47.04.38 19.945-.759 44.783 21.245 44.783s17.452-32.364 17.831-49.299c.38-16.934 1.518-42.524-20.486-42.524z" fill="#E09432"/><path opacity=".5" d="M118.779 103.869c-10.437 0-12.785 30.541 1.043 30.541 13.829 0 12.786-30.541-1.043-30.541z" fill="#E9B36B"/></g><g opacity=".5"><path opacity=".5" d="M45.924 13.422C26.2 15.26 26.633 37.002 25.42 71.133c-1.211 34.132.855 62.57 7.843 77.513 6.988 14.944 29.3 31.456 42.415 27.82 13.115-3.635 19.17-20.166 8.965-31.122-10.206-10.957-15.998-21.073-16.295-41.588-.297-20.516.04-39.641-.795-64.277-.834-24.635-11-27.047-21.63-26.057z" fill="#E09432"/><path opacity=".5" d="M46.45 27.067c-15.146-.538-17.945 47.207.532 47.521 18.477.315 19.41-46.813-.532-47.521z" fill="#E9B36B"/></g></g><path d="M217.344 50.308l-21.1 143.992c-.15 1.054-.683 2.016-1.433 2.75v.004c-.9.883-2.117 1.442-3.379 1.442h-72.509c-1.066 0-1.979-.4-2.62-1.055l-.005.005-8.933-8.938 3.017-4.525 8.291-12.446L136.44 50.308c.338-2.317 2.496-4.196 4.813-4.196h60.991l5.234-7.85 8.808 8.8c.825.771 1.25 1.938 1.058 3.246z" fill="#192D3C"/><path d="M194.811 197.05v.004c-.9.883-2.117 1.442-3.379 1.442h-72.509c-1.066 0-1.979-.4-2.62-1.055l-.005.005-8.933-8.938 3.017-4.525h71.366l13.063 13.067z" fill="#151F27"/><path d="M182.485 189.551h-72.509c-2.319 0-3.923-1.88-3.583-4.199l21.1-143.989c.34-2.319 2.495-4.199 4.814-4.199h72.509c2.319 0 3.923 1.88 3.583 4.199l-21.1 143.989c-.34 2.319-2.495 4.199-4.814 4.199z" fill="#27465B"/><path d="M174.465 41.897h-13.194c-.768 0-1.298-.622-1.186-1.389.113-.767.826-1.389 1.593-1.389h13.194c.767 0 1.298.622 1.185 1.389-.112.767-.825 1.389-1.592 1.389z" fill="#192D3C"/><path d="M109.726 185.352l20.632-140.793c.07-.478.514-.866.992-.866h72.509c.478 0 .809.388.739.866l-20.632 140.793c-.07.478-.515.865-.993.865h-72.508c-.478 0-.809-.387-.739-.865z" fill="#5B8972"/><path d="M152.282 108.539c-3.117 0-6.016 2.525-6.473 5.642l-1.697 11.585c-.011.075-.023.154-.026.229h-.008l-1.677 11.446 6.912-6.029h45.89l3.352-22.873h-46.273zm5.965-40.709c-3.116 0-6.016 2.525-6.472 5.642l-1.698 11.585c-.011.075-.023.154-.025.23h-.009l-1.677 11.445 6.913-6.03h45.89l3.352-22.872h-46.274zm-11.931 81.418c-3.116 0-6.016 2.525-6.472 5.641l-1.698 11.585c-.011.075-.023.155-.025.23h-.009l-1.677 11.445 6.913-6.029h45.89l3.352-22.872h-46.274z" fill="#416050"/><path d="M192.59 149.248l2.851 2.851a7.662 7.662 0 012.164 6.531l-2.082 14.212c-.294 2.004-2.747 2.817-4.179 1.384l-2.106-2.106 3.352-22.872zm5.965-40.709l2.853 2.853a7.665 7.665 0 012.165 6.528l-2.078 14.216c-.292 2.005-2.746 2.818-4.179 1.386l-2.104-2.105 3.343-22.878zm5.966-40.709l2.85 2.85a7.662 7.662 0 012.163 6.535l-2.083 14.175c-.295 2.004-2.747 2.816-4.179 1.384l-2.108-2.108 3.357-22.836z" fill="#151F27"/><path d="M205.452 111.062l-1.7 11.584c-.458 3.116-3.354 5.645-6.466 5.645h-50.063l-6.912 6.03 1.679-11.446h.008c0-.075.013-.154.025-.229l.35-2.38 1.346-9.204c.459-3.116 3.359-5.641 6.475-5.641h50.442c.616 0 1.196.1 1.725.279 2.141.746 3.454 2.862 3.091 5.362z" fill="#fff"/><path d="M205.452 111.062l-1.7 11.584c-.458 3.116-3.354 5.645-6.466 5.645h-50.063l-6.912 6.03 1.679-11.446h.008c0-.075.013-.154.025-.229l.35-2.38c41.646-.12 55.434-8.975 59.988-14.566 2.141.746 3.454 2.862 3.091 5.362z" fill="#E0E0DF"/><path d="M153.459 111.495l1.178 3.394 3.665.544-3.097 2.642.093 3.729-3.092-1.761-3.607 1.761 1.186-3.729-2.323-2.642 3.825-.544 2.172-3.394zm14.042 0l1.178 3.394 3.665.544-3.097 2.642.093 3.729-3.092-1.761-3.607 1.761 1.186-3.729-2.323-2.642 3.825-.544 2.172-3.394zm14.042 0l1.178 3.394 3.665.544-3.097 2.642.093 3.729-3.092-1.761-3.607 1.761 1.186-3.729-2.323-2.642 3.825-.544 2.172-3.394z" fill="#DF9334"/><path d="M195.585 111.495l1.178 3.394 3.665.544-3.097 2.642.093 3.729-3.092-1.761-3.607 1.761 1.186-3.729-2.323-2.642 3.825-.544 2.172-3.394z" fill="#C8C8C8"/><path d="M211.415 70.354l-1.696 11.583c-.458 3.117-3.358 5.646-6.471 5.646H153.19l-6.912 6.03 1.679-11.447h.008c0-.075.013-.154.025-.229l1.696-11.583c.458-3.117 3.354-5.642 6.471-5.642h50.446c.52 0 1.012.071 1.47.204 2.292.655 3.725 2.842 3.342 5.438z" fill="#fff"/><path d="M211.415 70.355l-1.696 11.583c-.458 3.117-3.358 5.646-6.471 5.646H153.19l-6.912 6.03 1.679-11.447h.008c30.696 0 50.908-6.108 60.108-17.25 2.292.654 3.725 2.842 3.342 5.438z" fill="#E0E0DF"/><path d="M159.424 70.787l1.178 3.393 3.665.544-3.097 2.642.093 3.73-3.091-1.761-3.608 1.76 1.187-3.73-2.323-2.64 3.824-.545 2.172-3.393zm14.043 0l1.177 3.393 3.665.544-3.097 2.642.093 3.73-3.091-1.761-3.608 1.76 1.187-3.73-2.323-2.64 3.824-.545 2.173-3.393zm14.042 0l1.177 3.393 3.665.544-3.097 2.642.093 3.73-3.091-1.761-3.608 1.76 1.187-3.73-2.323-2.64 3.824-.545 2.173-3.393zm14.042 0l1.177 3.393 3.665.544-3.097 2.642.093 3.73-3.091-1.761-3.608 1.76 1.187-3.73-2.323-2.64 3.824-.545 2.173-3.393z" fill="#DF9334"/><path d="M199.486 151.771l-1.7 11.583c-.454 3.117-3.354 5.646-6.467 5.646h-50.058l-6.913 6.029 1.675-11.446h.009c.004-.075.016-.154.025-.229l.491-3.358 1.209-8.225c.454-3.117 3.354-5.642 6.471-5.642h50.441c1.067 0 2.025.296 2.8.812 1.488.992 2.317 2.784 2.017 4.83z" fill="#fff"/><path d="M199.486 151.771l-1.7 11.583c-.454 3.117-3.354 5.646-6.467 5.646h-50.058l-6.913 6.029 1.675-11.446h.009c.004-.075.016-.154.025-.229l.491-3.358c8.317-.838 18.484-1.775 29.83-1.775 18.741 0 27.279-6.321 31.091-11.28 1.488.992 2.317 2.784 2.017 4.83z" fill="#E0E0DF"/><path d="M147.494 152.204l1.177 3.394 3.665.544-3.097 2.641.093 3.73-3.091-1.761-3.608 1.761 1.187-3.73-2.323-2.641 3.824-.544 2.173-3.394zm14.042 0l1.177 3.394 3.665.544-3.097 2.641.093 3.73-3.091-1.761-3.608 1.761 1.187-3.73-2.323-2.641 3.824-.544 2.173-3.394z" fill="#DF9334"/><path d="M175.578 152.204l1.177 3.394 3.665.544-3.097 2.641.093 3.73-3.091-1.761-3.608 1.761 1.187-3.73-2.323-2.641 3.824-.544 2.173-3.394zm14.042 0l1.177 3.394 3.665.544-3.097 2.641.093 3.73-3.091-1.761-3.608 1.761 1.187-3.73-2.323-2.641 3.824-.544 2.173-3.394z" fill="#C8C8C8"/><path d="M144.628 56.897h-6.562c-1.41 0-2.385-1.143-2.179-2.552l.535-3.646c.206-1.41 1.516-2.552 2.926-2.552h6.562c1.41 0 2.385 1.143 2.178 2.552l-.534 3.646c-.206 1.41-1.517 2.552-2.926 2.552zm48.646 0h-39.063c-1.409 0-2.384-1.143-2.178-2.552l.535-3.646c.206-1.41 1.516-2.552 2.926-2.552h39.062c1.41 0 2.385 1.143 2.178 2.552l-.534 3.646c-.207 1.41-1.517 2.552-2.926 2.552z" fill="#FCFDFF"/><path d="M189.415 50.236c-1.122.952-1.362 2.523-.536 3.49.726.852 2.036.943 3.085.274l1.161 1.36c.144.168.417.168.61 0 .193-.169.233-.442.089-.61l-1.16-1.36c.837-.985.917-2.368.104-3.214-.815-.848-2.316-.82-3.353.06zm2.344 2.812c-.665.58-1.608.58-2.103 0-.498-.583-.36-1.526.305-2.106.669-.584 1.612-.584 2.11 0 .495.58.357 1.523-.312 2.106zm-68.732 128.864c.509 0 .982-.413 1.056-.921l17.453-119.094c.074-.509-.278-.922-.787-.922s-.982.413-1.056.922L122.241 180.99c-.075.508.277.921.786.921z" fill="#192D3C"/><path d="M140.648 79.162h-5.128c-.983 0-1.664-.797-1.52-1.781l1.101-7.513c.144-.983 1.059-1.781 2.042-1.781h5.128c.983 0 1.664.797 1.52 1.781l-1.101 7.513c-.144.984-1.059 1.781-2.042 1.781z" fill="#fff"/><path d="M141.089 72.726h-4.124c-.427 0-.723-.346-.66-.773a.926.926 0 01.886-.773h4.125c.427 0 .723.346.66.773a.928.928 0 01-.887.773zm-.49 3.344h-4.124c-.427 0-.723-.347-.66-.774a.926.926 0 01.887-.773h4.124c.427 0 .723.346.66.773a.926.926 0 01-.887.774z" fill="#192D3C"/><path d="M188.448 98.996h-37.223c-1.025 0-1.735-.832-1.585-1.857.151-1.026 1.104-1.857 2.129-1.857h37.224c1.025 0 1.735.831 1.584 1.857-.15 1.025-1.103 1.857-2.129 1.857zm-5.965 40.708H145.26c-1.026 0-1.735-.831-1.585-1.857.15-1.025 1.103-1.857 2.129-1.857h37.223c1.026 0 1.735.832 1.585 1.857-.15 1.026-1.104 1.857-2.129 1.857zm-5.966 40.709h-37.223c-1.025 0-1.735-.831-1.585-1.857.151-1.026 1.104-1.857 2.129-1.857h37.224c1.025 0 1.735.831 1.584 1.857-.15 1.026-1.103 1.857-2.129 1.857z" fill="#BB233D"/><path d="M114.565 17.335c3.72 3.981 6.625 8.531 9.67 13.031.318.471 1.089.023.765-.447-3.026-4.387-5.864-9.64-10.203-12.885-.18-.134-.374.149-.232.301zm11.561 15.685c.26.453.539.89.828 1.326.251.38.493.805.859 1.08.211.158.527-.105.445-.343-.147-.427-.493-.794-.775-1.145a23.236 23.236 0 00-1.006-1.19c-.174-.19-.476.054-.351.271zm4.109-20.812c.152 1.083.417 2.162.837 3.174.275.66.565 1.557 1.296 1.788.123.04.237-.065.242-.184.03-.73-.649-1.392-.982-2.016a10.695 10.695 0 01-1.024-2.864c-.052-.246-.403-.135-.369.102zm2.776 8.386c1.077 4.426 2.497 8.775 3.722 13.162.149.533.983.306.832-.23-1.214-4.303-2.146-9.087-4.19-13.086-.105-.206-.417-.06-.364.154zm12.637 5.736c.068 1.707-.152 3.78.386 5.41.051.154.301.18.339 0 .357-1.683-.084-3.706-.204-5.41-.023-.332-.534-.338-.521 0zm-29.037 20.31c.711.134 1.409.304 2.102.509.547.161 1.115.476 1.686.347.144-.033.157-.202.079-.3-.382-.482-1.153-.574-1.726-.698-.686-.15-1.38-.252-2.077-.328-.267-.029-.329.421-.064.47zm.507 9.793c1.049-.185 2.099-.368 3.147-.554.899-.16 1.906-.204 2.693-.68.13-.078.129-.331-.046-.357-.878-.128-1.737.174-2.596.365-1.111.247-2.22.5-3.329.749-.314.07-.178.531.131.477zM43.656 42.498a3.634 3.634 0 01-3.63-3.63 3.634 3.634 0 013.63-3.63 3.634 3.634 0 013.63 3.63 3.634 3.634 0 01-3.63 3.63zm0-6.427a2.8 2.8 0 00-2.797 2.796 2.8 2.8 0 002.797 2.797 2.8 2.8 0 002.797-2.797 2.8 2.8 0 00-2.797-2.796z" fill="#fff"/><path d="M75.415 131.129a2.348 2.348 0 01-2.345-2.345 2.348 2.348 0 012.345-2.345 2.348 2.348 0 012.345 2.345 2.348 2.348 0 01-2.345 2.345zm0-3.856c-.834 0-1.512.678-1.512 1.511 0 .833.678 1.512 1.512 1.512.833 0 1.511-.679 1.511-1.512s-.678-1.511-1.511-1.511z" fill="#FBF3E5"/><path d="M91.161 168.406a2.67 2.67 0 01-2.666-2.666 2.67 2.67 0 012.666-2.667 2.67 2.67 0 012.666 2.667 2.67 2.67 0 01-2.666 2.666zm0-4.499c-1.01 0-1.833.822-1.833 1.833 0 1.011.822 1.833 1.833 1.833 1.01 0 1.833-.822 1.833-1.833a1.835 1.835 0 00-1.833-1.833zm10.181-21.352a3.153 3.153 0 01-3.148-3.149 3.152 3.152 0 013.148-3.148 3.152 3.152 0 013.148 3.148 3.152 3.152 0 01-3.148 3.149zm0-5.463a2.317 2.317 0 00-2.315 2.314 2.317 2.317 0 002.315 2.315 2.318 2.318 0 002.315-2.315 2.317 2.317 0 00-2.315-2.314zm16.959-97.367a4.6 4.6 0 01-4.594-4.594 4.6 4.6 0 014.594-4.594 4.6 4.6 0 014.594 4.594 4.6 4.6 0 01-4.594 4.594zm0-8.355a3.765 3.765 0 00-3.761 3.761 3.765 3.765 0 003.761 3.761 3.765 3.765 0 003.761-3.761 3.765 3.765 0 00-3.761-3.76z" fill="#fff"/><path d="M68.464 182.802l-6.807-3.742-9.095-.359 3.862-21.439s-21.377-25.507-22.713-32.272c-1.336-6.764 3.716-26.464 13.663-23.819 9.948 2.646 12.368 10.346 12.253 17.664 0 0 1.635 3.028 3.912 7.35 3.493 6.622 8.496 16.278 11.445 22.72 1.47 3.215 2.432 5.627 2.44 6.468.009.986-.65 3.464-1.613 6.55-2.58 8.26-7.347 20.879-7.347 20.879z" fill="#416050"/><path d="M61.657 179.06l-9.095-.359 3.862-21.439s-21.377-25.507-22.713-32.272c-1.336-6.764 3.716-26.464 13.663-23.819 9.948 2.646 12.368 10.346 12.253 17.664 0 0 1.635 3.028 3.913 7.35-4.339 1.332-12.254 3.763-13.444 4.098-1.647.463 12.713 3.524 13.386 5.509.675 1.981-9.25 1.622-10.299 2.356-1.05.73 14.226 17.049 13.877 19.173-.228 1.367-3.267 13.357-5.403 21.739z" fill="#304B3B"/><path d="M59.235 129.777c-.828 0-4.14-.486-18.428-3.509a.268.268 0 01.112-.525c6.814 1.442 17.126 3.536 18.27 3.536.017 0 .032 0 .045-.002a.268.268 0 01.3.43c-.03.031-.065.07-.3.07zm-.097-.433zm.001-.001zm.821 6.239a.28.28 0 01-.09-.015l-14.794-5.241a.269.269 0 01.178-.506l14.795 5.241a.269.269 0 01-.09.521z" fill="#192D3C"/><path d="M62.04 173.308a.268.268 0 01-.259-.339l4.714-17.334c-1.378-2.128-18.197-28.112-18.991-29.423a.269.269 0 01.458-.278c.806 1.331 18.865 29.228 19.048 29.51a.267.267 0 01.033.216L62.3 173.11a.269.269 0 01-.259.198z" fill="#192D3C"/><path d="M75.811 161.923c-1.709-.569-3.271-1.903-3.929-3.699-1.122-3.078-1.079-7.332 3.102-9.319 1.47 3.215 2.432 5.627 2.44 6.469.009.985-.65 3.463-1.613 6.549z" fill="#5B806B"/><path d="M73.69 151.086a.262.262 0 01-.133-.036l-1.993-1.153a.268.268 0 11.269-.463l1.992 1.152a.268.268 0 01-.134.5zm-1.207 1.184a.265.265 0 01-.04-.003l-1.569-.231a.269.269 0 01.078-.531l1.57.232a.267.267 0 01-.04.533zm-.145 9.552a.268.268 0 01-.222-.419l1.385-2.046a.269.269 0 01.444.302l-1.385 2.045a.267.267 0 01-.222.118z" fill="#192D3C"/><path d="M53.497 184.437l-1.928 10.482 12.75 1.735 2.605-10.967-13.427-1.25z" fill="#CA8073"/><path d="M87.807 217.013H61.83l-1.677-3.421-.362 3.421h-9.218c-1.634-8.713-.814-22.024-.814-22.024l14.02-1.309 2.097-.194c3.978 9.995 21.93 23.527 21.93 23.527z" fill="#DF9334"/><path d="M56.428 217.013h-5.854c-1.634-8.713-.814-22.024-.814-22.024l14.02-1.309c-4.519 4.409-8.282 13.585-7.352 23.333z" fill="#C17D34"/><path d="M58.131 213.858h-6.263a.268.268 0 110-.537h6.263a.268.268 0 010 .537zm21.656 0H63.262a.268.268 0 110-.537h16.525a.268.268 0 010 .537zM61.3 200.891a.264.264 0 01-.195-.085.267.267 0 01.011-.378c.118-.112 2.94-2.739 7.494-3.969a.269.269 0 01.14.518c-4.419 1.193-7.238 3.814-7.266 3.841a.27.27 0 01-.184.073zm4.075 4.022a.268.268 0 01-.159-.485c.034-.024 3.386-2.465 6.478-3.638a.268.268 0 01.19.502c-3.023 1.146-6.318 3.545-6.35 3.569a.266.266 0 01-.159.052z" fill="#192D3C"/><path d="M72.253 180.876l-3.007 10.853-21.225-5.624 2.11-10.152.284-1.383 21.838 6.306z" fill="#5B806B"/><path d="M70.4 187.561l-1.154 4.168-21.225-5.624 2.11-10.152c2.99.643 13.052 2.879 12.9 3.623-.159.812.168 5.695 7.37 7.985z" fill="#364E41"/><path d="M56.62 186.674a.269.269 0 01-.265-.311l1.337-8.238a.271.271 0 01.308-.222.269.269 0 01.222.308l-1.338 8.238a.268.268 0 01-.264.225zm2.38-.259h-.023a.269.269 0 01-.244-.291l.493-5.665a.268.268 0 11.535.047l-.494 5.665a.268.268 0 01-.267.244z" fill="#192D3C"/><path d="M62.3 119.904c.337.768.82 1.474 1.235 2.202.383.669.693 1.394 1.236 1.951.24.245.586-.014.534-.311-.143-.814-.632-1.533-1.051-2.232-.422-.703-.855-1.425-1.427-2.017-.283-.293-.67.078-.527.407zm3.351 6.924c2.815 4.784 5.92 9.288 8.33 14.316a93.78 93.78 0 013.396 8.028 73.852 73.852 0 011.325 3.834c.433 1.404.5 2.862.897 4.262.06.211.32.174.393 0 .977-2.327-.606-5.464-1.408-7.667a96.203 96.203 0 00-3.3-7.943c-2.465-5.254-5.32-10.799-9.125-15.222-.242-.282-.69.081-.508.392zm13.468 33.062c-.3.926-.44 1.896-.742 2.825-.27.829-.68 1.615-.732 2.494-.012.19.23.26.354.147.683-.62.973-1.542 1.234-2.405.288-.952.562-1.973.529-2.974-.012-.372-.528-.44-.643-.087zm-2.242 6.865a179.523 179.523 0 00-3.902 11.518c-.158.523.626.722.808.223 1.382-3.79 2.65-7.68 3.771-11.554.128-.442-.52-.603-.677-.187zm-2.938 14.742c-.385.904-.885 2.034-.556 3.023.056.169.292.214.386.051.48-.824.518-1.903.812-2.803.121-.372-.485-.64-.642-.271zm-1.122 5.279c-.626 2.288-1.34 5.077-1.158 7.479.167 2.222 1.357 4.271 2.526 6.107.288.454.991.049.724-.423-1.18-2.082-2.47-4.201-2.334-6.688.117-2.141.745-4.241.885-6.388.025-.373-.547-.437-.643-.087zm2.575 15.317c.381.469.754.947 1.15 1.404.345.399.665.848 1.207.962.124.026.298-.061.278-.212-.07-.558-.441-.894-.817-1.284-.44-.456-.905-.888-1.36-1.328-.306-.295-.715.14-.458.458zm4.086 4.417c1.855 2.255 4.238 4.185 6.433 6.103 1.428 1.248 3.242 3.568 5.201 3.806.513.062.599-.756.12-.886-1.254-.34-2.474-1.763-3.454-2.61-.974-.84-1.937-1.693-2.898-2.547-1.652-1.467-3.221-3.074-4.995-4.393-.328-.244-.63.256-.407.527z" fill="#fff"/><path d="M25.18 183.986l-3.2 11.833 12.982 1.231 3.496-10.716-13.279-2.348z" fill="#CA8073"/><path d="M58.968 217.013H32.992l-1.676-3.421-.363 3.421h-9.217c-1.635-8.713-.815-22.024-.815-22.024l14.02-1.309 2.097-.194c3.979 9.995 21.93 23.527 21.93 23.527z" fill="#DF9334"/><path d="M27.59 217.013h-5.854c-1.635-8.713-.815-22.024-.815-22.024l14.02-1.309c-4.519 4.409-8.281 13.585-7.351 23.333z" fill="#C17D34"/><path d="M29.292 213.858H23.03a.268.268 0 110-.537h6.262a.268.268 0 010 .537zm21.656 0H34.423a.268.268 0 110-.537h16.525a.268.268 0 010 .537zM32.462 200.89a.268.268 0 01-.184-.463c.117-.111 2.939-2.738 7.494-3.968a.269.269 0 01.14.518c-4.42 1.193-7.238 3.814-7.267 3.841a.27.27 0 01-.183.072zm4.074 4.023a.268.268 0 01-.158-.485c.033-.024 3.385-2.465 6.477-3.638a.268.268 0 01.19.502c-3.023 1.146-6.318 3.545-6.35 3.569a.266.266 0 01-.159.052z" fill="#192D3C"/><path d="M51.574 158.375c-.087.983-.979 3.383-2.237 6.362-3.371 7.975-9.334 20.071-9.334 20.071l-6.412-4.383-9.017-1.234 5.917-20.966s-18.809-27.454-19.483-34.317c-.68-6.862 3.566-28.27 13.212-24.675 9.642 3.596 13.996 13.783 13.175 21.054a962.008 962.008 0 004.854 11.8c2.23 5.517 4.783 11.996 6.654 17.175.309.854.6 1.671.867 2.442 1.154 3.342 1.88 5.833 1.804 6.671z" fill="#5B8B72"/><path d="M33.59 180.426l-9.018-1.236 5.918-20.966s-18.81-27.455-19.485-34.317c-.676-6.862 3.568-28.268 13.213-24.673 9.645 3.595 13.999 13.781 13.177 21.054 0 0 1.334 3.171 3.183 7.693-4.447.907-12.56 2.561-13.777 2.779-1.684.301 12.312 4.737 12.79 6.778.48 2.037-9.364.72-10.478 1.349-1.116.625 12.51 18.344 11.957 20.425-.36 1.339-4.543 12.979-7.48 21.114z" fill="#4A775E"/><path d="M48.903 149.262c-2.005-.096-6.275-.354-6.55-.775-.367-.546 1.004-4.654.637-5.021-.362-.366-8.125-2.008-8.033-3.558.091-1.554 1.825-7.763 1.825-7.763l5.296-.183.17.125c2.23 5.517 4.784 11.996 6.655 17.175z" fill="#304B3B"/><path d="M36.075 131.147c-.586 0-3.324-.614-18.13-5.282a.268.268 0 11.16-.512c6.742 2.126 17.003 5.267 17.888 5.29a.269.269 0 01.257.456c-.025.022-.054.048-.175.048zm-.184-.447zm0-.001zm.241 6.291a.27.27 0 01-.114-.026L21.8 130.316a.267.267 0 11.227-.485l14.218 6.647a.269.269 0 01-.113.512z" fill="#192D3C"/><path d="M34.553 174.739a.267.267 0 01-.25-.363l6.367-16.797c-1.165-2.252-15.392-29.74-16.055-31.122a.268.268 0 11.483-.232c.674 1.403 15.95 30.916 16.104 31.214.035.067.04.147.012.218l-6.41 16.909a.268.268 0 01-.251.173z" fill="#192D3C"/><path d="M49.335 164.739c-1.646-.732-3.072-2.211-3.553-4.062-.819-3.172-.364-7.402 3.989-8.975 1.152 3.342 1.876 5.836 1.802 6.674-.086.982-.98 3.384-2.238 6.363z" fill="#5B806B"/><path d="M48.299 153.749a.265.265 0 01-.156-.05l-1.872-1.34a.268.268 0 11.312-.436l1.872 1.34a.268.268 0 01-.156.486zm-1.318 1.062a.292.292 0 01-.065-.008l-1.539-.383a.268.268 0 11.13-.52l1.539.382a.269.269 0 01-.065.529zm-1.068 9.493a.269.269 0 01-.206-.44l1.577-1.902a.268.268 0 11.413.342l-1.577 1.903a.268.268 0 01-.207.097z" fill="#192D3C"/><path d="M43.96 183.259l-4.043 10.511-20.581-7.65 3.081-9.902.417-1.348 21.125 8.389z" fill="#83BE9C"/><path d="M41.47 189.733l-1.553 4.037-20.581-7.651 3.081-9.901c2.914.93 12.713 4.129 12.49 4.855-.237.792-.384 5.685 6.563 8.66z" fill="#5B8B72"/><path d="M27.865 187.518a.269.269 0 01-.26-.336l2.128-8.07a.268.268 0 11.52.137l-2.129 8.07a.268.268 0 01-.26.199zm2.395-.027a.27.27 0 01-.264-.317l1.039-5.59a.267.267 0 01.312-.215.27.27 0 01.215.313l-1.04 5.59a.268.268 0 01-.263.219z" fill="#192D3C"/><path d="M8.78 119.207c-.862 4.151.186 8.061 1.917 11.849 2.053 4.491 4.49 9.167 7.212 13.284.282.426.882.059.676-.395-3.574-7.864-10.644-15.461-9.445-24.689.026-.205-.32-.25-.36-.049zm11.297 27.569c.301.479.641.908 1.006 1.339.285.338.634.996 1.095 1.06.117.017.23-.046.232-.177.008-.462-.51-.833-.798-1.159-.399-.454-.793-.887-1.253-1.281-.147-.126-.397.035-.282.218zm3.228 4.859c2.278 3.181 4.454 5.963 3.563 10.124-.721 3.367-2.77 6.291-3.315 9.707-.083.525.678.764.816.225 1-3.896 3.451-7.543 3.645-11.62.173-3.644-2.177-6.091-4.327-8.731-.172-.212-.543.07-.382.295zm-2.592 22.631c-1.429 3.741-2.52 7.626-3.684 11.455-.565 1.86-1.123 4.143.925 5.276.514.284.959-.478.46-.786-2.277-1.405.128-6.309.7-8.215.754-2.515 1.54-5.024 2.13-7.583.081-.351-.406-.474-.531-.147zm-2.169 19.998c-.381.7-.548 1.464-.782 2.221-.208.671-.539 1.338-.437 2.048.025.171.254.192.36.095.527-.48.67-1.265.866-1.926.225-.765.46-1.512.44-2.317-.006-.23-.33-.336-.447-.121zm-1.215 7.44c-1.189 4.955-.76 10.615-.215 15.634.072.661 1.116.671 1.046 0-.268-2.584-.434-5.173-.434-7.772 0-2.591.328-5.183.285-7.769-.006-.383-.589-.483-.682-.093z" fill="#DBB785"/><path d="M99.333 59.943l1.272 6.248-.908 4.061 6.742 1.33v-3.569l2.371-4.85-9.477-3.22z" fill="#BB6A5C"/><path d="M105.399 37.164h-1.872v.475c-2.194 1.129-3.77 4.175-3.77 7.767 0 3.592 1.576 6.639 3.77 7.767v.475h1.872c3.116 0 5.642-3.69 5.642-8.242 0-4.552-2.526-8.242-5.642-8.242z" fill="#BF7C34"/><path d="M105.632 53.648h-2.337v9.967h2.337v-9.967z" fill="#DF9334"/><path d="M103.527 53.648c3.116 0 5.642-3.69 5.642-8.242 0-4.552-2.526-8.242-5.642-8.242-3.115 0-5.641 3.69-5.641 8.242 0 4.552 2.526 8.242 5.641 8.242z" fill="#DF9334"/><path d="M104.132 50.867c-.196.045-.396.07-.604.07-2.092 0-3.788-2.475-3.788-5.529 0-3.058 1.696-5.533 3.788-5.533.208 0 .408.025.604.07-1.809.422-3.188 2.705-3.188 5.463 0 2.754 1.379 5.038 3.188 5.459z" fill="#BF7C34"/><path d="M107.315 45.408c0 1.075-.208 2.08-.575 2.925-.567 1.325-1.508 2.275-2.608 2.533-1.809-.42-3.188-2.704-3.188-5.458 0-.667.079-1.3.229-1.892.463-1.858 1.588-3.25 2.959-3.57 1.804.425 3.183 2.704 3.183 5.462z" fill="#5B8972"/><path d="M106.74 48.333c-.567 1.325-1.508 2.275-2.608 2.533-1.809-.42-3.188-2.704-3.188-5.458 0-.667.079-1.3.229-1.892.492 3.721 2.909 5.73 5.567 4.817z" fill="#416050"/><path d="M100.415 57.772c-.011-.591.698-2.017 1.784-2.328 1.086-.31 6.05-1.163 7.291-.698 1.241.466.853 11.093.776 11.48-.078.388-6.671.931-6.981.466-.311-.465-2.715.078-2.87-8.92z" fill="#CA8073"/><path d="M102.043 59.746a.268.268 0 01-.041-.533l5.973-.93a.268.268 0 01.083.53l-5.973.93a.258.258 0 01-.042.003zm1.086 3.956a.268.268 0 01-.031-.534l4.654-.543a.268.268 0 11.063.532l-4.654.543a.3.3 0 01-.032.002z" fill="#192D3C"/><path d="M103.285 61.65s-2.405-4.732-3.258-4.887c-.853-.155-2.095.853-2.25 1.784-.155.931 2.87 5.585 3.801 5.508.931-.078 2.327-1.32 1.707-2.405z" fill="#CA8073"/><path d="M101.578 64.323a.268.268 0 01-.022-.536c.465-.038 1.168-.472 1.475-1.054.179-.341.186-.66.021-.95-.019-.037-1.319-2.588-2.324-3.967a.268.268 0 01.433-.315c1.031 1.413 2.309 3.921 2.363 4.028.248.434.244.954-.019 1.453-.364.693-1.2 1.281-1.904 1.34h-.023z" fill="#192D3C"/><path d="M107.903 71.633s-.48 5.504-1.18 11.304c-.616 5.08-1.395 10.388-2.175 12.421a2.923 2.923 0 01-.312.638c-1.763 2.495-8.513 3.379-11.45 2.495a10.31 10.31 0 01-1.158-.466c-5.492-2.504-24.684-13.442-29.517-19.346-3.108-3.8-2.33-11.433 1.287-15.913 2.525-3.133 6.438-4.724 11.375-2.387 0 0 13.171 12.283 18.305 18.592l4.55-10.421 10.275 3.083z" fill="#902429"/><path d="M106.723 82.937c-.616 5.08-1.395 10.388-2.175 12.421a2.923 2.923 0 01-.312.638c-1.763 2.496-8.513 3.379-11.45 2.496-.25-.076-.646-.234-1.158-.467-5.492-2.504-24.684-13.442-29.517-19.346-3.108-3.8-2.33-11.433 1.287-15.913 5.605-.979 6.88 2.388 6.88 2.388.387 7.383 19.237 21.57 20.212 22.35.97.775.192-4.858 1.942-5.638 1.75-.775 3.108 3.692 4.275 5.834 1.029 1.887 6.158 2.712 10.016-4.763z" fill="#6D1C1F"/><path d="M104.548 95.358a2.923 2.923 0 01-.312.638c-1.763 2.496-8.513 3.379-11.45 2.496-.25-.076-.646-.234-1.158-.467.237-1.859 1.075-3.9 3.358-5.109 4.05-2.141 8.1-.52 9.562 2.442z" fill="#D05C79"/><path d="M93.108 96.425a.264.264 0 01-.12-.028l-1.422-.711a.268.268 0 11.24-.48l1.422.711a.268.268 0 01-.12.508zm.813-1.321a.266.266 0 01-.165-.057l-1.423-1.118a.268.268 0 11.331-.422l1.423 1.118a.268.268 0 01-.166.479zm7.421-1.524a.268.268 0 01-.255-.353l.61-1.83a.268.268 0 11.509.17l-.61 1.829a.268.268 0 01-.254.183zm-6.505-1.932a.268.268 0 01-.238-.143c-1.942-3.68-1.67-11.104-1.657-11.418.006-.148.126-.272.279-.258a.269.269 0 01.257.28c-.003.075-.28 7.593 1.596 11.146a.268.268 0 01-.237.393zM91.38 89.92a.268.268 0 01-.267-.246c-.305-3.662.872-8.328.922-8.525a.269.269 0 01.52.133c-.012.047-1.205 4.777-.907 8.348a.268.268 0 01-.268.29zm15.059-15.919a.266.266 0 01-.075-.01l-8.553-2.48a.268.268 0 11.15-.514l8.553 2.479a.269.269 0 01-.075.525zm-1.927 3.656a1.17 1.17 0 100-2.339 1.17 1.17 0 000 2.339zm-.552 4.205a1.169 1.169 0 100-2.337 1.169 1.169 0 000 2.337z" fill="#192D3C"/><path d="M82.125 97.327c.672.29 1.34.59 2.016.869.556.229 1.105.528 1.714.425.163-.028.173-.23.088-.334-.381-.464-1.012-.595-1.563-.78-.68-.23-1.37-.436-2.055-.654-.275-.087-.473.357-.2.474zm7.63 3.032c2.38.617 4.917.875 7.355 1.174 1.877.231 3.761.268 5.454-.698 2.366-1.35 5.989-5.372 5.331-8.29-.063-.278-.487-.27-.555 0-.773 3.072-3.297 7.091-6.543 7.988-3.398.938-7.509-.654-10.971-.691-.296-.003-.36.442-.07.517zm18.534-10.111c.529-2.627 1.328-5.22 1.56-7.897.261-3.01.065-6.014.787-8.976.144-.594-.774-.847-.917-.252-.67 2.8-.591 5.637-.727 8.496-.132 2.799-1.582 5.863-.957 8.63.028.123.228.127.254 0zM68.876 55.54c2.005.665 3.799 1.816 5.78 2.489.183.062.321-.192.186-.32-1.505-1.431-3.874-2.128-5.84-2.623-.297-.074-.413.36-.126.455zm7.132 4.034c1.534-.035 3.05 2.201 4.027 3.157 1.038 1.017 2.075 2.035 3.118 3.047 1.976 1.917 3.883 4.17 6.134 5.757.272.192.674-.197.47-.47-2.104-2.8-5.123-5.184-7.644-7.61-1.29-1.242-2.535-2.672-3.961-3.758-.744-.566-1.297-.784-2.202-.554-.238.06-.19.437.058.431zm15.739 12.491c.776-.323 1.652-1.004 1.595-1.939-.01-.161-.187-.229-.307-.127-.555.471-.91 1.122-1.497 1.57-.218.166-.103.626.209.496zm3.367-4.205c.627-1.035 1.173-2.088 1.482-3.262.239-.912.557-1.966.177-2.862-.062-.145-.282-.12-.352 0-.454.787-.39 1.772-.598 2.649-.265 1.115-.599 2.214-1.088 3.252-.12.253.23.468.379.222zm1.166-8.99c-.81-1.294-1.15-2.316-.46-3.745.36-.747.871-1.39.899-2.238.005-.151-.192-.284-.325-.186-.896.662-1.638 2.228-1.797 3.336-.177 1.238.546 2.218 1.275 3.148.183.233.562-.068.408-.314zm15.646-5.884c.536 2.377.908 4.791 1.015 7.227.098 2.221-.222 4.404-.224 6.615-.001.367.533.437.635.086 1.282-4.424.487-9.767-.825-14.093-.117-.385-.689-.226-.601.165zm-.412 15.423c-.32.534-.657 1.055-.999 1.575-.316.482-.669.941-.757 1.522-.027.18.136.332.311.239.516-.274.816-.756 1.123-1.239.352-.554.667-1.135.977-1.714.23-.43-.403-.803-.655-.383zM96.139 49.978c-.441-4.168-1.894-9.31 1.74-12.517 1.416-1.25 3.268-1.943 5.1-2.3 2.03-.395 3.471.004 5.329.75.198.08.349-.178.261-.34-1.838-3.357-8.555-.858-10.78.83-4.448 3.373-3.038 8.959-2.129 13.642.052.266.508.21.479-.065zm13.335-13.179c.622 1.154.987 2.444 1.696 3.546.083.129.313.088.305-.083-.065-1.368-.819-2.604-1.532-3.737-.186-.296-.635-.035-.469.274zm2.512 6.511c.047 3.077-.254 5.883-.732 8.91-.05.32.361.542.548.232 1.59-2.644 1.08-6.237.718-9.143-.041-.33-.54-.354-.534 0z" fill="#fff"/><path d="M60.726 54.518l-2.606-1.88 3.511-5.775.503-.83 2.553 2.079-2.284 3.696-1.677 2.71z" fill="#BB6A5C"/><path d="M62.403 51.808c-1.005-1.638-.97-3.607-.772-4.945l.503-.83 2.553 2.079-2.284 3.696z" fill="#192D3C"/><path d="M67.263 51.076c-.462.382-1.062.553-1.717.545-1.351-.002-2.932-.76-3.978-1.985a5.031 5.031 0 01-.87-1.464c-.612-1.497-.524-2.973-.524-2.973-.076-.877-.047-1.67.128-2.359.221-.867.675-1.554 1.434-1.997.449-.258 1.003-.431 1.676-.505 3.02-.327 4.567 2.065 4.705 4.357.138 2.292.567 5.216-.854 6.381z" fill="#CA8073"/><path d="M65.546 51.622c-1.351-.003-2.932-.762-3.978-1.986a5.031 5.031 0 01-.87-1.463c-.612-1.498-.524-2.974-.524-2.974-.076-.877-.047-1.67.128-2.359.221-.867.675-1.554 1.434-1.997.04.044.07.094.09.151.28.797.964 1.552.964 1.552s.082 6.507 2.756 9.076z" fill="#BB6A5C"/><path d="M61.904 47.13l.021 1.056-1.228-.013c-.61-1.5-.522-2.975-.522-2.975-.078-.876-.05-1.67.126-2.357.8-.068 2.072 1.393 2.072 1.393l.087 2.44-.556.456z" fill="#192D3C"/><path d="M68.246 43.71s-2.124.96-4.863 1.07c-1.212.053-2.54-.062-3.86-.5 0 0-.088-.535-.068-1.287.026-1.693.56-4.504 3.765-4.841l.072-.008c3.283-.296 4.39 2.211 4.76 3.96.196.906.194 1.607.194 1.607z" fill="#B9233E"/><path d="M63.383 44.78c-1.212.053-2.54-.062-3.86-.5 0 0-.088-.535-.068-1.287.026-1.693.56-4.504 3.765-4.841l.072-.008c-.737 2.564-.4 4.949.09 6.636z" fill="#8E2429"/><path d="M68.246 43.71s-2.262 1.021-5.123 1.076c-1.139.027-2.376-.102-3.6-.506 0 0-.088-.535-.068-1.287.788.153 1.962.32 3.296.311 1.661-.005 3.576-.282 5.302-1.2.195.906.193 1.606.193 1.606z" fill="#DF9334"/><path d="M63.123 44.787c-1.139.026-2.376-.103-3.6-.507 0 0-.088-.535-.068-1.287.788.153 1.962.321 3.296.311a13.3 13.3 0 00.372 1.483z" fill="#BF7C34"/><path d="M57.389 43.566a.782.782 0 00.247 1.015c.978.666 3.261 1.8 6.92 1.244 3.482-.53 5.034-1.735 5.66-2.43a.751.751 0 00-1.063-1.063c-.76.682-2.31 1.73-4.8 1.94-2.853.24-4.934-.549-5.93-1.046a.781.781 0 00-1.034.34z" fill="#B9233E"/><path d="M61.336 47.008s-.872-1.417-1.995-.74c-1.124.678-.165 4.58 2.765 3.033l-.77-2.294z" fill="#BB6A5C"/><path d="M69.06 52.485c2.513-.319 3.147-3.938 2.812-5.954-.052-.315-.576-.31-.632 0-.183 1.015-.068 2.05-.36 3.056-.334 1.145-1.004 1.78-1.942 2.452-.168.12-.14.48.121.446zm2.384-9.414c.063.37.063.74.006 1.11-.043.279-.169.537-.121.819.016.094.133.1.193.05.258-.207.29-.596.321-.908a3.323 3.323 0 00-.107-1.151c-.049-.193-.325-.109-.292.08zm-.04-1.84c-1.356-3.656-6.03-7.635-10.054-5.271-4.165 2.446-7.313 7.593-6.363 12.446.101.519.895.3.793-.219-.852-4.31 1.729-7.905 4.884-10.529 2.084-1.732 4.308-1.675 6.593-.353 1.622.939 2.93 2.42 3.768 4.086.104.207.462.062.38-.16zm-18.328 8.085a3.27 3.27 0 01-.678.403c-.239.105-.476.136-.628.363-.113.168.012.352.169.416.275.112.601-.086.843-.215a4.06 4.06 0 00.74-.521c.313-.271-.134-.688-.446-.446z" fill="#fff"/><path d="M76.286 75.754c-.73 1.966-2.513 5.412-4.68 9.312-5.324 9.588-12.962 21.938-12.962 21.938l3.28 10.333c-5.297 3.025-12.1 5.292-12.1 5.292l-5.796-8.571-4.034 9.829c-28.475-4.283-32.458-14.225-32.458-14.225C12.723 91.02 19.182 76.77 23.894 67.8c.08-.154.163-.309.242-.459a26.665 26.665 0 0119.466-13.895c5.2-.809 8.873-.418 10.173-.385l.153 2.047 13.087 2.458.212-1.322c4.6 2.109 7.546 4.135 7.546 4.135s4.034 8.57 1.513 15.375z" fill="#BB233D"/><path d="M68.157 91.133c-4.667 8.033-9.513 15.871-9.513 15.871l3.28 10.333c-5.297 3.025-12.1 5.292-12.1 5.292l-5.796-8.571-4.034 9.829c-28.475-4.283-32.458-14.225-32.458-14.225C12.723 91.02 19.182 76.77 23.894 67.8 22.332 83 33.848 90.425 40.953 93.854c6.483 3.133 20.495.658 30.654-8.788a395.36 395.36 0 01-3.45 6.067z" fill="#902429"/><path d="M68.157 91.133c-4.667 8.033-9.513 15.871-9.513 15.871-13.929 4.087-30.479-1.271-14.57-3.754 10.541-1.65 18.683-6.863 24.083-12.117z" fill="#6D1C1F"/><path d="M45.629 115.381l-.02-.001a.268.268 0 01-.248-.288l.575-7.619a.268.268 0 01.035-.113l9.775-17.107a.268.268 0 11.466.266l-9.746 17.055-.57 7.559a.268.268 0 01-.267.248zm8.663-15.815a1.097 1.097 0 100-2.194 1.097 1.097 0 000 2.194z" fill="#192D3C"/><path d="M50.073 105.949a1.097 1.097 0 100-2.193 1.097 1.097 0 000 2.193zm-32.845 4.859a.268.268 0 01-.259-.34c5.087-18.378 11.888-30.594 11.956-30.715a.268.268 0 01.467.262c-.067.121-6.838 12.285-11.906 30.596a.268.268 0 01-.258.197z" fill="#192D3C"/><path d="M14.576 102.854a.268.268 0 01-.065-.528c.203-.051 2.538-.722 5.496-1.573 6.845-1.969 17.19-4.943 17.89-5.06a.268.268 0 11.088.529c-.669.112-11.411 3.2-17.83 5.047a801.854 801.854 0 01-5.514 1.577.244.244 0 01-.065.008zm1.989 2.486a.268.268 0 01-.065-.529c.672-.168 13.572-1.602 14.12-1.663a.268.268 0 01.06.533c-3.729.414-13.52 1.518-14.05 1.651a.295.295 0 01-.065.008z" fill="#192D3C"/><path d="M66.22 76.288c.627 3.315.206 8.126.206 8.126l-8.971 5.713-10.022-8.522c.19-3.087 2.118-9.263 2.118-9.263l-4.476-1.929c.352-10.055 4.74-16.539 4.74-16.539a36.986 36.986 0 014.032.113 39.988 39.988 0 0112.344 3.026c2.538 1.083 2.37 1.005 3.756 1.896 1.123 4.302-.112 16.68-.112 16.68l-3.616.699z" fill="#8E2429"/><path d="M57.188 90.515c-3.577-12.405-3.341-33.803-3.163-37.205a38.712 38.712 0 0112.512 3.05c-2.988 17.485-9.349 34.155-9.349 34.155z" fill="#5B8972"/><path d="M70.04 74.354l-3.642 1.287c.588 3.455.092 7.263.092 7.263l-9.302 7.611-9.731-10.536c.225-3.225 2.262-8.254 2.262-8.254l-4.308-2.275c.475-10.504 4.215-16.753 4.215-16.753.913-.1 2.887-.048 4.537.19-.175 3.358-.319 24.1 3.21 36.342 0 0 6.125-16.101 9.075-33.36 1.52.496 3.766 1.813 3.766 1.813 1.075 4.48-.174 16.672-.174 16.672z" fill="#fff"/><path d="M57.59 84.01a.255.255 0 01-.25-.303c1.795-9.218 2.616-24.997 2.624-25.156a.25.25 0 01.267-.241c.14.007.25.127.242.267-.008.16-.83 15.974-2.632 25.227a.255.255 0 01-.25.206z" fill="#192D3C"/><path d="M57.518 51.169c1.349-.268 5.128.33 6.446 1.768 0 0 .081 1.78-.158 2.848 0 0-.754.766-3.071.648-2.318-.118-4.525-2.238-4.525-2.238l1.308-3.026z" fill="#5B8972"/><path d="M64.981 56.82c-.134.434-.308.764-.482.851-.589.279-3.024-1.11-3.024-1.11s-.358-.884.201-1.75c0 0 .096-.047.26-.12.677-.297 2.487-1.042 3.017-.731.463.277.343 1.844.028 2.86z" fill="#B9233E"/><path d="M64.981 56.82c-.134.434-.308.764-.482.851-.589.279-3.024-1.11-3.024-1.11s-.358-.884.201-1.75c0 0 .096-.047.26-.12.55.45.654.996.742 1.507.084.484 1.643 1.181 2.303.622z" fill="#8E2429"/><path d="M61.901 56.347c-.324.766-.91.941-1.645.807-.937-.17-1.716-.554-1.535-1.97.098-.77.288-1.276.624-1.536.283-.223.665-.273 1.175-.17.981.197 1.805.703 1.584 2.112a3.178 3.178 0 01-.203.757z" fill="#B9233E"/><path d="M61.901 56.348c-.324.766-.91.941-1.645.807-.937-.17-1.716-.554-1.535-1.97.098-.77.288-1.276.624-1.536-.16.79-.303 2.35.94 2.706.802.226 1.307.141 1.616-.007z" fill="#8E2429"/><path d="M59.316 54.341s-2.203-1.878-2.942-1.673c-.739.204-1.024 3.274-.527 3.698.497.424 3.21-.282 3.21-.282s.575-.761.259-1.743z" fill="#B9233E"/><path d="M16.773 76.209c-5.404 10.713-9.64 21.904-13.661 33.194-.176.492.623.716.785.216 3.679-11.342 8.384-22.333 13.139-33.257.075-.175-.173-.33-.263-.153zM5.978 111.878c.237.573.518 1.131.907 1.617.314.393.76 1.035 1.319.952.1-.015.183-.138.179-.235-.02-.476-.576-.793-.879-1.118a8.852 8.852 0 01-1.088-1.401c-.136-.22-.546-.075-.438.185z" fill="#DBB785"/><path d="M48.36 50.418c-4.8-.305-9.735 1.203-13.948 3.427-4.085 2.156-8.468 5.42-10.569 9.642-.094.188.141.394.3.232 3.305-3.35 6.262-6.618 10.471-8.898 4.324-2.343 8.903-3.268 13.745-3.772.4-.041.412-.605 0-.63zM22.052 66.364c-.956 1.033-1.872 2.286-2.46 3.566-.09.197.136.395.307.237 1.03-.952 1.943-2.216 2.624-3.44.16-.29-.233-.62-.47-.363z" fill="#fff"/><path d="M16.838 68.903c-3.04 4.924-5.876 10.57-7.408 16.176-.07.258.307.428.438.185 2.816-5.204 4.627-10.826 7.75-15.905.304-.496-.475-.95-.78-.456z" fill="#DBB785"/><path d="M24.924 57.292c-1.807 2.273-3.438 4.673-5.081 7.065-.33.48.453.933.779.456 1.62-2.371 3.257-4.728 4.71-7.206.144-.246-.22-.551-.408-.315z" fill="#fff"/><path d="M8.22 86.759c-.56 1.46-1.502 2.9-1.888 4.41-.059.229.218.382.387.226 1.173-1.083 1.75-2.953 2.163-4.454.119-.434-.508-.587-.663-.182zm-5.592 14.013c-1.16 3.34-3.242 7.436-1.909 10.944 1.076 2.828 2.731 6.897 5.588 8.358.361.184.672-.244.421-.546-1.038-1.247-2.15-2.281-2.988-3.7-.728-1.233-1.348-2.546-1.925-3.856-.962-2.186-.62-3.782.008-6.005.475-1.677.926-3.355 1.328-5.051.082-.343-.409-.473-.523-.144z" fill="#DBB785"/><path d="M60.856 107.715c.275 1.901.862 3.771 1.512 5.575.504 1.397.994 2.995 1.964 4.137.184.216.475-.024.434-.253-.293-1.644-1.207-3.184-1.774-4.76-.577-1.603-1.003-3.249-1.543-4.863-.129-.384-.649-.221-.593.164zm1.268-2.338c.545-1.036 1.355-2.056 1.642-3.2.032-.125-.12-.278-.24-.185-.979.754-1.462 2.057-1.906 3.173-.115.291.36.486.504.212zm3.584-5.348c1.597-2.39 3.664-4.428 5.395-6.717.256-.338.533-.953.863-1.216.888-.713 1.703.181 2.618.67 1.616.865 3.211 1.886 4.952 2.473.362.122.5-.373.24-.57-1.037-.784-2.223-1.33-3.373-1.932-1.086-.569-2.28-1.422-3.448-1.806-.847-.278-1.031-.144-1.626.554-2.188 2.567-4.526 5.273-6.358 8.113-.3.464.434.885.737.431z" fill="#fff"/><path d="M55.52 141.208l-2.167 6.8a1.35 1.35 0 01-1.496.921 230.05 230.05 0 00-4.467-.625c-.737-.1-1.442-.192-2.02-.267a1.51 1.51 0 01-1.3-1.716c.137-.917.32-2.067.52-2.942.158-.7-.275-1.4-.967-1.587l-6.733-1.83a1.343 1.343 0 01-.987-1.162l-.921-8.975 10.025-.254.137 2.35.063 1.058c.029.55.391 1.021.908 1.2l7.092 2.429a3.682 3.682 0 012.312 4.6z" fill="#CC8273"/><path d="M47.39 148.304c-.737-.1-1.442-.192-2.02-.267a1.51 1.51 0 01-1.3-1.716c.137-.917.32-2.067.52-2.942.158-.7-.275-1.4-.967-1.587l-6.733-1.83a1.343 1.343 0 01-.987-1.162l-.921-8.975 10.025-.254.137 2.35-7.02 1.637s-.346 4.908 0 4.908c.345 0 7.745 1.288 8.433 1.721.691.43-.688 5.334-.43 6.796.1.567.546.979 1.263 1.321z" fill="#BB6A5C"/><path d="M48.366 146.048a.268.268 0 01-.262-.328l.83-3.612a2.197 2.197 0 00-.905-2.297l-1.535-1.038a.269.269 0 01.3-.445l1.535 1.039a2.736 2.736 0 011.127 2.86l-.83 3.613a.268.268 0 01-.26.208zm3.012.345a.268.268 0 01-.258-.341l1.228-4.36a2.17 2.17 0 00-.926-2.432l-1.566-1a.268.268 0 11.29-.452l1.565 1a2.704 2.704 0 011.153 3.029l-1.228 4.36a.27.27 0 01-.258.196z" fill="#192D3C"/><path d="M46.136 130.967l-12.77.962s-2.26-11.387-4.305-24.954a430.41 430.41 0 01-1.704-12.48c-1.63-13.537-2.375-26.537-.013-30.745 5.134-9.154 19.513-6.746 20.475 3.612.967 10.359-1.683 63.605-1.683 63.605z" fill="#BB233D"/><path d="M34.364 128.704a.266.266 0 01-.22-.125c-.082-.123-.036-.296.087-.378.23-.154 1.767-.34 9.526-.931l.881-.067a.268.268 0 11.041.534l-.882.068c-2.64.201-8.82.672-9.294.856a.249.249 0 01-.139.043zm-.341-8.97a1.307 1.307 0 100-2.615 1.307 1.307 0 000 2.615zm.674 5.62a1.308 1.308 0 10-.001-2.616 1.308 1.308 0 000 2.616z" fill="#192D3C"/><path d="M34.328 100.758a6.308 6.308 0 01-5.267 6.217 430.45 430.45 0 01-1.704-12.48 6.3 6.3 0 016.97 6.262z" fill="#D05C79"/><path d="M29.982 96.038a.268.268 0 01-.223-.417l1.178-1.767a.268.268 0 11.447.297l-1.178 1.768a.268.268 0 01-.224.12zm1.473.737a.267.267 0 01-.223-.417l1.03-1.547a.268.268 0 11.447.298l-1.03 1.546a.268.268 0 01-.224.12zm2.209 9.499a.269.269 0 01-.201-.091l-1.62-1.841a.27.27 0 01.024-.379.27.27 0 01.379.025l1.62 1.841a.268.268 0 01-.202.445z" fill="#192D3C"/></svg>