<svg width="202" height="154" fill="none" xmlns="http://www.w3.org/2000/svg"><path d="M6.735 42.717c2.825-2.308 6.651-2.642 10.144-2.005 3.73.668 7.128 2.467 10.573 3.979 3.556 1.576 7.175 2.706 11.08 2.897 3.89.207 7.78-.35 11.557-1.306 7.89-1.99 15.13-5.81 22.702-8.69 3.794-1.448 7.715-2.706 11.747-3.279 2.19-.318 4.398-.398 6.604-.159 2.096.223 4.144.716 6.191 1.226 4.525 1.13 9.033 2.116 13.669 2.674 4.778.573 9.604.764 14.414.604.302-.016.302-.493 0-.477a93.062 93.062 0 01-25.94-2.738c-4.048-1.018-8.064-2.069-12.27-1.862-4.08.207-8.113 1.29-11.955 2.61-7.7 2.658-14.938 6.558-22.749 8.93-3.968 1.193-8.08 2.021-12.24 2.037-4.222.016-8.19-.971-12.048-2.658-3.81-1.656-7.541-3.709-11.684-4.345-3.525-.542-7.287-.112-10.129 2.212-.238.207.096.557.334.35zM92.237 28.17c11.002 4.758 23.495 3.963 34.751.509 6.096-1.878 12.16-4.393 18.653-4.377 6.54.015 12.748 2.308 19.145 3.326 5.81.923 12.208.812 17.193-2.69.254-.175.016-.589-.238-.414-4.604 3.232-10.446 3.518-15.844 2.786-6.111-.828-11.985-2.96-18.161-3.406-6.175-.446-12.001 1.416-17.795 3.326-5.779 1.894-11.621 3.375-17.701 3.725-6.731.398-13.541-.51-19.749-3.2-.285-.127-.523.287-.254.414zM.67 67.85a24.515 24.515 0 0111.843-4.425 23.683 23.683 0 016.366.239c2.175.382 4.27 1.114 6.35 1.846 3.858 1.337 7.684 2.356 11.748 1.417 3.508-.812 6.683-2.643 9.794-4.378 3.668-2.053 7.478-4.154 11.732-4.536.302-.032.302-.51 0-.477-7.588.684-13.287 6.398-20.368 8.579-1.793.557-3.667.843-5.54.732-2.302-.143-4.54-.86-6.7-1.608-2.174-.748-4.349-1.56-6.635-1.99a24.242 24.242 0 00-5.969-.35A24.835 24.835 0 00.432 67.453c-.254.159-.016.573.238.398zm42.085 6.112c6.175-6.542 15.256-9.216 24.035-9.296 5.096-.047 10.176.685 15.145 1.751 4.73 1.003 9.318 2.308 14.208 1.656 5.111-.685 9.89-2.881 14.462-5.19.27-.143.032-.556-.238-.413-4.35 2.196-8.874 4.281-13.716 5.046-2.477.381-4.97.35-7.446-.048-2.508-.398-4.953-1.067-7.445-1.592-9.08-1.91-18.748-2.722-27.67.382-4.398 1.528-8.462 3.963-11.668 7.354-.207.238.127.573.333.35zm73.581 4.758c2.587.908 5.238.064 7.604-1.066 2.651-1.273 5.143-2.849 7.858-3.979s5.636-1.894 8.588-1.528c2.699.334 5.191 1.544 7.557 2.833 2.238 1.226 4.445 2.563 6.826 3.502a21.701 21.701 0 008.35 1.464c5.826-.127 10.779-3.04 16.098-5.013 4.968-1.847 11.588-2.675 15.573 1.655.206.223.54-.112.333-.334-3.127-3.39-8.112-3.773-12.398-2.865-5.588 1.177-10.414 4.6-16.034 5.698-3 .589-6.143.51-9.112-.207-2.762-.669-5.239-1.974-7.715-3.359-2.239-1.257-4.509-2.562-6.969-3.31-2.556-.78-5.223-.796-7.811-.16-3.159.78-6.064 2.324-8.906 3.884-2.937 1.592-6.334 3.534-9.747 2.34-.254-.111-.381.35-.095.446zm41.799 7.672c6.572.398 11.985-4.074 18.192-5.427 1.651-.366 3.398-.525 5.08-.239 1.508.255 2.874.876 4.175 1.671 2.239 1.37 4.414 3.136 7.144 3.327 3.318.223 6.255-1.846 8.731-3.788.239-.191-.095-.525-.333-.334-2.413 1.878-5.302 3.931-8.541 3.629-2.81-.255-5.032-2.292-7.397-3.613-5.446-3.057-11.272-.653-16.495 1.655-3.349 1.464-6.826 2.88-10.541 2.658-.317-.032-.317.446-.015.462zM8.29 116.825c2.302-2.196 5.716-3.056 8.78-2.212 3.206.875 5.27 3.645 7.842 5.555 5.127 3.804 12.112 3.199 17.748.955 6.652-2.642 12.192-7.417 18.828-10.107 3.238-1.321 6.746-2.165 10.27-1.926 3.43.239 6.35 1.719 9.065 3.724 2.7 1.99 5.24 4.346 8.398 5.603 3.382 1.337 7.192 1.05 10.367-.716.27-.144.031-.557-.238-.414a11.769 11.769 0 01-10.494.461c-2.826-1.257-5.143-3.358-7.604-5.204-2.524-1.894-5.207-3.375-8.382-3.82-3.27-.446-6.604.111-9.7 1.146-6.778 2.276-12.366 6.971-18.796 9.979-5.937 2.786-13.573 4.091-19.208-.095-2.81-2.085-5.017-5.062-8.636-5.762-3.064-.589-6.319.334-8.573 2.499-.222.207.111.557.333.334zm60.992 8.882a14.152 14.152 0 018.859-2.26c2.857.238 5.556 1.305 8.175 2.371 2.54 1.035 5.112 2.117 7.842 2.563 2.858.461 5.747.111 8.493-.732 3.287-1.019 6.335-2.643 9.335-4.282.27-.143.032-.557-.238-.414-5.493 2.977-11.525 6.112-17.97 4.871-5.382-1.035-10.113-4.377-15.653-4.855-3.207-.27-6.414.573-9.097 2.324-.238.175 0 .589.254.414zm59.928 10.791a28.52 28.52 0 0112.303-6.78 27.717 27.717 0 017.144-.892c2.683.032 5.35.462 8.017.717 5.175.493 10.144-.382 14.986-2.276 4.62-1.799 8.969-4.919 13.938-5.683 5.811-.891 10.303 2.977 14.002 6.94.206.223.54-.111.333-.334-3.048-3.263-6.635-6.638-11.271-7.163-5.08-.573-9.699 2.42-14.113 4.473-5.08 2.371-10.557 3.995-16.192 3.677-2.81-.16-5.588-.669-8.414-.812a27.713 27.713 0 00-7.16.541 28.813 28.813 0 00-13.906 7.226c-.222.239.111.573.333.366z" fill="#E8E8E8"/><path d="M36.262 35.92c4.445 3.455 10.24 1.927 15.081.335 6.001-1.99 12.081-3.247 18.431-3.374.302 0 .302-.478 0-.478-5.842.112-11.604 1.114-17.16 2.929-5.033 1.64-11.288 3.947-16.018.255-.239-.191-.572.143-.334.334zM79.061 6.984c5.366-.398 10.541-1.894 15.732-3.151 5.398-1.321 10.811-2.197 16.383-1.592 5.62.605 11.065 2.308 16.574 3.518 5.302 1.178 10.684 1.719 16.113 1.448a57.575 57.575 0 0017.843-3.788c.286-.111.159-.573-.127-.462-10.366 3.995-21.685 4.84-32.543 2.579-5.414-1.13-10.716-2.786-16.193-3.581-5.286-.764-10.446-.335-15.653.811-6.032 1.321-11.953 3.263-18.129 3.725-.301.048-.301.525 0 .493zm85.916 39.888c4.635-1.72 9.445.732 14.081 1.177 2.492.24 4.969 0 7.398-.573 2.381-.573 4.699-1.416 7.127-1.782 2.604-.398 5.382-.239 7.636 1.241.254.175.492-.239.238-.414-4-2.61-8.89-1.21-13.112-.031-2.651.748-5.303 1.289-8.065 1.177-2.635-.095-5.159-.827-7.731-1.368-2.556-.526-5.191-.812-7.683.111-.302.096-.175.557.111.462zM3.163 95.162c4.032-3.597 9.715-.413 14.192.271 5.175.796 10.35-.637 15.288-2.021.301-.08.174-.541-.127-.462-5.461 1.528-11.113 3.04-16.78 1.687-4.144-.987-9.208-3.088-12.922.191-.223.191.11.525.349.334zm50.768 44.695c1.286-1.528 3.27-2.356 5.27-2.101 1.144.143 2.191.668 3.24 1.13.872.382 1.761.7 2.666.955a19.84 19.84 0 0011.859-.414c.285-.096.159-.557-.127-.462-4.255 1.481-8.954 1.481-13.192-.111-1.842-.685-3.556-1.783-5.604-1.624a6.504 6.504 0 00-4.461 2.276c-.19.255.159.589.35.351zm27.019-1.306a30.986 30.986 0 018.874-1.241c.302 0 .302-.478 0-.478a31.954 31.954 0 00-9 1.258c-.286.095-.175.557.126.461zm3.779-123.72a98.395 98.395 0 018.064 6.956c.222.207.556-.128.333-.334a100.96 100.96 0 00-8.16-7.02c-.237-.207-.475.207-.237.398zM57.201 23.22c.27-1.497.556-2.993.826-4.505.063-.303-.397-.43-.46-.128-.27 1.497-.556 2.993-.826 4.505-.048.302.413.43.46.127z" fill="#161616"/><path d="M148.737 32.706c.508 0 .92-.414.92-.924a.922.922 0 10-1.841 0c0 .51.412.924.921.924zm-120.301 76.24c.605 0 1.095-.491 1.095-1.098a1.097 1.097 0 10-2.191 0c0 .607.49 1.098 1.096 1.098zM23.134 9.452a2.512 2.512 0 002.508-2.515 2.512 2.512 0 00-2.508-2.515 2.511 2.511 0 00-2.509 2.515 2.511 2.511 0 002.509 2.515zm5.032 2.435a.842.842 0 10-.002-1.685.842.842 0 00.002 1.685zm48.069 141.579a1.876 1.876 0 001.874-1.879 1.876 1.876 0 00-1.874-1.878 1.876 1.876 0 00-1.873 1.878c0 1.038.839 1.879 1.873 1.879zM163.294 12.73c.912 0 1.651-.74 1.651-1.655 0-.914-.739-1.655-1.651-1.655s-1.651.74-1.651 1.655c0 .914.739 1.655 1.651 1.655zm2.111-3.645a1.017 1.017 0 000-2.037 1.017 1.017 0 000 2.037z" fill="#EC615B"/><path d="M25.658 6.81a2.512 2.512 0 002.508-2.516 2.512 2.512 0 00-2.508-2.514 2.511 2.511 0 00-2.509 2.514 2.511 2.511 0 002.509 2.515zm-1.254 103.617c.692 0 1.254-.563 1.254-1.257 0-.695-.562-1.258-1.255-1.258-.692 0-1.254.563-1.254 1.258 0 .694.562 1.257 1.255 1.257zm44.084 39.394c.614 0 1.112-.499 1.112-1.115a1.113 1.113 0 10-2.222 0c0 .616.497 1.115 1.11 1.115zm88.71-142.773a2.639 2.639 0 002.635-2.642c0-1.46-1.18-2.642-2.635-2.642a2.638 2.638 0 00-2.635 2.642 2.638 2.638 0 002.635 2.642zm-43.387 40.015a.572.572 0 100-1.145.572.572 0 000 1.145zm-5.857-34.11c-.334.78-.651 1.576-.985 2.356-.111.286.35.414.461.127.333-.78.651-1.576.984-2.356.111-.286-.349-.414-.46-.127z" fill="#5222D0"/><path d="M107.874 13.335a6.33 6.33 0 011.35 2.117c.111.287.571.16.46-.127A7.412 7.412 0 00108.208 13c-.207-.223-.556.111-.334.334zm-.778 2.388c.461.859.985 1.67 1.572 2.435.19.238.603 0 .413-.239a19.736 19.736 0 01-1.572-2.435c-.159-.27-.555-.032-.413.239z" fill="#5222D0"/><path d="M109.255 15.484c-.19.891-.365 1.783-.555 2.674-.064.302.397.43.46.127.191-.891.365-1.782.556-2.674.063-.286-.397-.414-.461-.127zm43.419 65.608a6.589 6.589 0 00-.747 2.245c-.047.302.413.43.461.127a6.273 6.273 0 01.698-2.117c.143-.286-.27-.525-.412-.255z" fill="#5222D0"/><path d="M152.642 81.236c.317.843.682 1.655 1.095 2.435.143.27.556.032.413-.239a20.414 20.414 0 01-1.048-2.324c-.111-.286-.571-.159-.46.128zm-.81 2.434c.413.59.81 1.179 1.223 1.768.174.254.587.016.412-.24-.412-.588-.809-1.177-1.222-1.766-.175-.255-.588-.016-.413.239z" fill="#5222D0"/><path d="M153.562 83.591a2.592 2.592 0 00-.492 1.544c0 .303.477.303.477 0 0-.477.142-.923.428-1.305.175-.255-.238-.493-.413-.239zM19.88 126.152c-.43.94-.858 1.863-1.287 2.802-.127.27.286.525.413.239.429-.94.857-1.863 1.286-2.802.127-.27-.27-.509-.413-.239z" fill="#5222D0"/><path d="M19.959 126.28l1.238 2.96c.11.287.571.159.46-.127l-1.238-2.961c-.111-.286-.572-.159-.46.128z" fill="#5222D0"/><path d="M18.482 129.383c.429.844.841 1.704 1.27 2.547.08.143.27.143.381.048.334-.271.492-.732.667-1.098l.762-1.528c.143-.271-.27-.51-.413-.239-.222.446-.46.891-.683 1.337-.19.382-.365.907-.698 1.178l.381.047c-.429-.843-.841-1.703-1.27-2.546-.127-.255-.54-.016-.397.254zm161.179-77.211a8.927 8.927 0 00-.937 2.976c-.047.303.429.303.477 0a8.22 8.22 0 01.857-2.738c.159-.27-.254-.509-.397-.238z" fill="#5222D0"/><path d="M179.597 52.729c.493.955.969 1.91 1.461 2.865.143.27.556.032.413-.239-.492-.955-.969-1.91-1.461-2.865-.143-.27-.555-.032-.413.239zm-.841 2.483c.397.955.873 1.846 1.445 2.69.174.254.587.016.412-.24a13.58 13.58 0 01-1.397-2.578c-.111-.27-.571-.143-.46.128z" fill="#5222D0"/><path d="M180.915 55.419a19.573 19.573 0 00-.682 2.738c-.048.302.412.43.46.127.159-.923.381-1.83.682-2.738.096-.286-.365-.414-.46-.127zm-3.095 74.028c-.191.637-.366 1.258-.556 1.894-.079.303.365.414.46.128.191-.637.365-1.258.556-1.895.095-.302-.365-.429-.46-.127z" fill="#5222D0"/><path d="M177.788 129.797c.285.637.587 1.274.873 1.894.127.287.54.032.413-.238-.286-.637-.588-1.274-.874-1.894-.127-.287-.539-.048-.412.238zm-.397 1.847c.143.748.492 1.416.984 1.989.207.239.54-.111.334-.334a3.751 3.751 0 01-.858-1.767c-.063-.318-.524-.191-.46.112z" fill="#5222D0"/><path d="M178.645 131.58a6.399 6.399 0 00-.286 2.038c.016.302.492.302.476 0a5.593 5.593 0 01.27-1.91c.096-.287-.365-.414-.46-.128zM13.894 45.47c-.349.765-.682 1.529-1.032 2.293-.127.27.286.525.413.239.35-.764.683-1.528 1.032-2.292.127-.271-.286-.526-.413-.24z" fill="#5222D0"/><path d="M12.926 48.16c.365.94.714 1.863 1.08 2.802.11.287.57.16.46-.127-.365-.94-.715-1.862-1.08-2.801-.11-.287-.571-.16-.46.127zm.968-2.657c.492.86.985 1.735 1.477 2.594.158.27.555.032.412-.239-.492-.86-.984-1.734-1.476-2.594-.159-.27-.572-.032-.413.239z" fill="#5222D0"/><path d="M15.482 47.89a25.747 25.747 0 00-1.334 2.945c-.11.286.35.414.46.127.366-.97.794-1.926 1.287-2.833.142-.27-.27-.51-.413-.239zM133.56 60.146c.317-.605.921-1.019 1.619-.987.572.016 1 .414 1.508.605.889.318 1.159-.255 1.826-.684.905-.605 1.778.748 2.746.732.556-.016 1.016-.287 1.032-.876-.127.064-.238.144-.365.207.492.255.984.51 1.461.78.27.143.508-.27.238-.414a40.582 40.582 0 01-1.461-.78.25.25 0 00-.365.207c-.048 1.13-2.238-.477-2.651-.525-.937-.127-1.302 1.035-2.111.907-.858-.143-1.397-.764-2.318-.604a2.188 2.188 0 00-1.588 1.193c-.111.27.286.51.429.239zm6.08-3.231c.714-.796 1.842.207 2.651.302.937.112 1.667-.89 2.572-.382.746.43 2.111 1.449 2.651.144.111-.287-.349-.414-.46-.128-.381.924-1.747-.366-2.207-.557-.619-.27-1.032-.047-1.587.223-.667.318-1.143.207-1.778-.08-.286-.127-.572-.238-.889-.286-.493-.064-.937.032-1.286.414-.207.239.127.573.333.35z" fill="#5222D0"/><path d="M126.75 19.367c.222-.413.476-.525.762-.334.127.048.254.112.381.191.143.064.285.16.428.207.254.08.508.112.762.048.683-.191 1.032-1.05 1.762-1.035.683.016 1.175.669 1.889.335.302-.144.508-.398.794-.558.635-.35 1.413-.222 1.953.223.238.191.571-.143.333-.334-.714-.589-1.698-.764-2.524-.302-.365.207-.667.652-1.143.589-.27-.032-.508-.223-.762-.319-.381-.143-.73-.19-1.111-.016-.476.223-.794.844-1.318.955-.666.144-1.111-.54-1.73-.557-.587-.016-1.27.557-.873 1.146.159.255.571.016.397-.239zm5.27-2.817c.191-1.034 1.985-.032 2.62-.143.412-.064.714-.35 1.095-.493.603-.24 1.191-.144 1.746.19.27.16.508-.254.238-.413-.476-.287-.984-.43-1.524-.382-.238.016-.46.08-.666.159-.635.27-.889.573-1.683.382-.762-.191-2.064-.573-2.27.573-.08.302.381.43.444.127zM11.83 74.073c.207-1.003 1.588.366 1.858.541.301.207.635.35 1 .27.476-.079.841-.477 1.333-.588.794-.175 1.588.08 2.16.653.222.222.555-.128.333-.335-.492-.493-1.095-.796-1.794-.843a2.527 2.527 0 00-1.032.127c-.524.175-.937.684-1.572.43-.666-.27-.92-.955-1.682-1.035-.492-.047-.953.143-1.048.653-.08.302.381.43.445.127zm5.287-1.146c.35-.477 1.953.478 2.413.59.746.174 1.508.174 2.27.079.302-.048.175-.51-.127-.462-1.318.175-2.334-.175-3.524-.653-.54-.206-1.08-.286-1.445.207-.175.24.238.478.413.24zm38.703 33.362c.254-.398.651-.653 1.143-.653.413 0 .667.255 1.032.366.365.127.667.048.984-.159.62-.414.921-.923 1.762-.891.762.015 1.493.382 2.16.716.27.143.507-.271.237-.414-1.254-.637-2.778-1.242-3.984-.207-.27.223-.302.287-.715.366-.46.096-.412.032-.761-.111a1.818 1.818 0 00-.921-.144c-.588.064-1.048.398-1.35.876-.158.27.254.509.413.255zm5.286.923c.747-.653 2.16.716 3.08.589.556-.08.81-.494 1.175-.876.698-.748 1.746-.859 2.603-.302.255.159.493-.239.239-.414-.62-.398-1.35-.525-2.064-.318a2.44 2.44 0 00-.857.445c-.381.319-.62.892-1.16.987-1.158.207-2.254-1.417-3.349-.446-.222.207.111.542.333.335zM39.453 5.122c.127-.525.429-.939.937-1.162.444-.19.81-.063 1.27-.08.508-.031.889-.286 1.19-.668.46-.573.762-1.162 1.413-1.544a3.009 3.009 0 012.429-.254c.302.095.413-.367.127-.462-1.524-.462-3.032.127-3.953 1.417-.365.509-.635 1.018-1.333 1.034-.429.016-.794-.08-1.207.064-.698.239-1.175.827-1.333 1.528-.08.302.38.43.46.127zm2.238 1.831c-.682-1.815 2.588-1.72 3.572-2.07 1.223-.43 2.27-1.193 3.302-1.957.238-.175 0-.59-.238-.414-.698.525-1.413 1.034-2.175 1.448-.952.51-1.857.669-2.889.828-1.095.175-2.524.939-2.016 2.276.095.286.556.175.444-.111zm63.31 91.25c1.206-3.168 3.254-5.237 5.366-7.386 2.778-2.817 7.937-8.054 13.192-7.226 4.476.7 3.984 5.014 10.128 8.15 5.794 2.976 8.017.031 13.795 3.23.858.478 6.906 3.932 8.287 10.458.572 2.706.429 6.414-.762 6.764-1.349.398-1.81-7.401-7.207-10.457-4.128-2.34-9.811-1.21-10.271.462-.492 1.766 5.207 2.928 8.429 9.072 1.413 2.674 1.715 5.109 2.143 8.452.397 3.151.842 9.614-.619 9.996-1.206.318-1.857-3.996-6.286-7.529-2.334-1.862-4.826-2.626-9.811-4.154-4.493-1.369-6.763-2.038-7.985-.923-1.81 1.655-.413 5.857-.159 6.605 1.778 5.348 6.318 7.576 5.985 8.149-.444.717-8.731-1.353-15.494-7.99-5.778-5.682-12.24-16.49-8.731-25.673zm51.832 18.447c-.064.446-.397 2.929 1.063 4.52 1.62 1.751 3.588.414 5.572 2.149 1.826 1.592 1.588 3.979 2.144 3.931.635-.047 1.603-3.278.238-5.236-.429-.621-1.477-1.178-3.556-2.26-2.128-1.114-2.413-1.067-2.969-1.671-1.381-1.497-1.175-3.454-1.667-3.454-.381 0-.714 1.177-.825 2.021zm-13.653 18.686c-.889 1.337-.794 2.77-.714 4.282.095 1.544.159 2.801 1.063 3.931 1.032 1.289 2.747 1.83 2.969 1.544.175-.223-.603-.828-1.302-2.149-.079-.159-1.111-2.117-1.063-4.409.047-2.865 1.73-4.568 1.301-4.87-.317-.239-1.539.589-2.254 1.671z" fill="#EC615B"/><path d="M149.546 108.946c2.667 1.767 1.207 5.858 2.953 8.245.174.239.587 0 .413-.239-1.81-2.483-.27-6.525-3.128-8.419-.254-.176-.492.238-.238.413z" fill="#EC615B"/><path d="M148.594 97.423a15.437 15.437 0 015.635 8.849c.064.303.524.175.461-.127a15.887 15.887 0 00-5.842-9.12c-.27-.207-.508.207-.254.398zm-9.208 8.817a17.67 17.67 0 015.191 7.036c.111.286.572.159.461-.128-1.159-2.833-2.953-5.3-5.318-7.242-.223-.191-.572.143-.334.334zm6.302 9.662c.429 1.146.715 2.308.826 3.517.032.303.508.303.476 0a14.35 14.35 0 00-.857-3.644c-.079-.287-.54-.16-.445.127zm-24.431 2.642c-.397 2.404.063 4.807 1.365 6.876.159.255.572.016.413-.239a9.284 9.284 0 01-1.318-6.509c.048-.303-.412-.43-.46-.128zm2 8.181a10.962 10.962 0 002.175 2.801c.222.207.556-.127.333-.334a11.13 11.13 0 01-2.095-2.706c-.143-.27-.556-.031-.413.239zm-18.224-24.257a12.174 12.174 0 00.444 4.473c.079.302.54.175.46-.127a11.85 11.85 0 01-.428-4.346c.032-.302-.445-.302-.476 0zm.92 6.096a10.583 10.583 0 001.382 3.47c.158.255.571.016.412-.239a10.609 10.609 0 01-1.333-3.358c-.064-.287-.524-.159-.461.127z" fill="#5222D0"/><path d="M64.504 9.07a53.626 53.626 0 00-1.508 4.87c-.54 2.085-1.81 7.576-1.683 14.802.127 6.972 1.492 12.097 2.746 16.665 1.953 7.13 4.334 12.256 5.747 15.232 0 0 4.493 9.534 11.938 19.753 1.318 1.798 3 4.074 3 4.074 1.223 1.64 2.27 3.009 3 3.995a14.788 14.788 0 007.16 4.52c2.064-1.766 4.128-3.549 6.192-5.315.936.89 1.889 1.766 2.825 2.658a53.595 53.595 0 013.366-3.184c3.937-3.422 7.191-5.173 7.953-5.586.651-.35 1.207-.621 1.588-.796a657.151 657.151 0 01-1.762-3.55 40.456 40.456 0 013.27-2.562 38.18 38.18 0 014.683-2.833c-.016-1.337-.191-3.359-1.064-5.587a15.271 15.271 0 00-1.762-3.279c-3.667-5.3 7.144 9.311-6.985-10.903-5.477-7.83-8.207-11.762-9.461-13.386-3.921-5.14-7.001-8.659-9.192-11.157-4.19-4.791-6.08-6.574-7.604-7.88-2.08-1.814-4.381-3.771-7.858-5.586-2.19-1.13-4-1.75-6.636-2.658a85.191 85.191 0 00-7.953-2.308z" fill="#fff"/><path d="M64.012 9.356c-3.445 10.648-3.445 22.14-.969 32.995a73.825 73.825 0 002.318 8.038c.46 1.337 1.016 2.642 1.508 3.963.175.462.207.923.413 1.385.302.716.619 1.432.937 2.149a100.034 100.034 0 001.857 3.979c.65 1.305 1.445 2.547 2.032 3.867.222.494.413 1.02.667 1.497.333.605.825 1.066 1.174 1.655.73 1.226 1.43 2.483 2.191 3.693 3.477 5.618 7.43 10.919 11.478 16.123.19.239.524-.095.333-.334-3.572-4.6-7.064-9.263-10.207-14.15-.778-1.21-1.525-2.42-2.255-3.66a66.038 66.038 0 01-1.032-1.8c-.333-.588-.777-1.002-1.127-1.575-.285-.477-.492-.987-.698-1.496-.286-.685-.667-1.305-1.016-1.958a68.034 68.034 0 01-1.873-3.724c-.62-1.322-1.207-2.659-1.794-3.995-.254-.59-.35-1.21-.588-1.815-.254-.653-.524-1.305-.778-1.974a78.814 78.814 0 01-2.508-7.83c-1.397-5.38-2.207-10.904-2.286-16.475-.08-6.255.778-12.51 2.715-18.479.047-.238-.413-.366-.492-.08z" fill="#000"/><path d="M64.234 9.356c2.651.207 5.35 1.13 7.842 2.005 2.46.876 4.89 1.83 7.144 3.136 4.493 2.61 8.461 6.032 12.08 9.757 3.731 3.836 7.129 8.054 10.415 12.271 3.27 4.203 6.397 8.548 9.414 12.94 3.333 4.887 6.54 9.87 9.683 14.899.159.254.572.016.413-.239-5.763-9.184-11.716-18.256-18.336-26.851-6.397-8.325-13.255-16.824-22.24-22.475-2.445-1.544-5.064-2.658-7.763-3.66-2.73-1.003-5.715-2.038-8.636-2.277-.318 0-.318.478-.016.494z" fill="#000"/><path d="M88.3 88.557a129.745 129.745 0 0124.718-19.737c2.54-1.56 5.111-3.024 7.747-4.393.27-.143.031-.557-.238-.413a129.872 129.872 0 00-26.004 17.954 128.089 128.089 0 00-6.556 6.255c-.222.223.111.557.333.334z" fill="#000"/><path d="M87.84 88.923a13.92 13.92 0 007.096 4.282c.302.08.429-.382.127-.462a13.538 13.538 0 01-6.89-4.17c-.206-.223-.54.127-.333.35zm32.845-24.368a16.384 16.384 0 012.112 7.083c.016.302.492.302.476 0a16.979 16.979 0 00-2.175-7.322c-.143-.27-.556-.032-.413.239z" fill="#000"/><path d="M95.222 93.077a183.256 183.256 0 0127.813-20.994c.254-.159.016-.573-.238-.414a184.329 184.329 0 00-27.909 21.074c-.222.207.112.541.334.334z" fill="#000"/><path d="M101.207 87.952c.873.86 1.746 1.72 2.619 2.595.095.095.254.095.333 0a45.442 45.442 0 0110.954-8.58c.508-.286 1.477-.556 1.778-1.097.318-.542-.159-1.274-.413-1.736a14.894 14.894 0 00-1.539-2.26c-.191-.238-.524.096-.334.335.556.684 1.048 1.4 1.461 2.164.095.16.301.43.317.621-.063.287-.127.557-.19.844-.08.047-.159.08-.238.127-.318.239-.731.382-1.08.589a50.448 50.448 0 00-4.032 2.53 46.728 46.728 0 00-7.017 6.113h.333c-.873-.86-1.746-1.72-2.619-2.595-.222-.207-.556.127-.333.35zM65.139 48.718c3.905-4.616 8.477-8.611 13.16-12.415 4.7-3.804 9.62-7.37 15.129-9.9.286-.128.032-.542-.238-.414-5.461 2.499-10.335 6.032-15.002 9.788-4.763 3.852-9.414 7.911-13.383 12.59-.206.255.127.59.334.35zM93.523 28.63c-.524.033-.746-.843-.158-.89.206-.016.444.08.523.286.111.302-.174.62-.476.62-.222 0-.238.367 0 .367.492 0 .92-.462.841-.955-.063-.414-.492-.669-.888-.653-.43.032-.762.382-.715.812.048.43.429.828.873.796.238-.032.238-.398 0-.382zm24.241 35.209c.016 0 .016 0 .032-.016-.048 0-.095-.016-.143-.016.175.08.08-.255.064-.303 0-.047.016-.111.031-.159a.538.538 0 01.223-.239c.206-.095.428.064.492.271.127.414-.476.62-.635.255-.095-.207-.397-.032-.302.175.191.445.842.477 1.159.143.365-.398.095-1.066-.397-1.21-.524-.143-1.032.414-.905.923.048.207.318.462.524.255.159-.159 0-.51-.238-.414-.206.08-.111.414.095.335z" fill="#000"/><path opacity=".15" d="M64.504 9.165a88.5 88.5 0 019.62 7.21c2.302 1.99 8.27 7.322 15.732 17.667C97.952 45.264 102 50.867 102.81 57.122c.413 3.263.984 12.558-7.191 23.986 3.381-2.578 6.778-5.173 10.16-7.751 1.476 2.435 2.937 4.87 4.413 7.305-1.588 1.178-3.175 2.34-4.763 3.518.778.94 1.556 1.862 2.334 2.801a33.485 33.485 0 013.413-2.88 32.73 32.73 0 015.668-3.343c-.635-1.226-1.255-2.467-1.89-3.693 2.731-1.798 5.461-3.613 8.192-5.411a20.816 20.816 0 00-1.349-5.507c-1.016-2.579-2.302-4.298-2.794-4.967-3.556-4.822-1.826-3.66-9.271-14.15-5.35-7.544-8.303-11.762-13.034-17.221-3.032-3.502-5.048-5.81-8.27-8.659-3.43-3.04-7.589-6.653-13.939-9.295a41.651 41.651 0 00-9.985-2.69z" fill="#494949"/><path opacity=".11" d="M115.478 55.403a18.175 18.175 0 01-1.143 4.345c-1.651 4.09-4.191 5.873-9.493 11.253-2.508 2.547-6.239 6.319-5.89 6.733.334.398 4.414-2.754 11.542-7.465a293.761 293.761 0 019.985-6.32l-5.001-8.546z" fill="#494949"/><path opacity=".08" d="M120.812 64.427c-.222.048.318 1.783-.333 3.948-.476 1.591-1.286 2.355-3.27 4.759a111.661 111.661 0 00-3.604 4.6l9.335-6.399c-1.413-5.634-1.937-6.94-2.128-6.908z" fill="#494949"/><path d="M94 116.523c.047.461.222.827.492 1.273 1.143 1.846 3.032 2.976 4.397 3.629a49.875 49.875 0 00-1.667 7.146c-.444 2.881-.968 6.24-.286 6.463.238.079.937-.144 7.43-13.036a331.875 331.875 0 002.143-4.314c-3.461-1.559-6.906-3.135-10.366-4.695-.334.255-2.318 1.703-2.144 3.534z" fill="#161616" stroke="#161616" stroke-width="2" stroke-miterlimit="10"/><path d="M86.76 81.315c-2.92 2.037-4.81 4.011-6.492 5.794-.683.716-3.953 4.202-7.398 9.677a63.606 63.606 0 00-3.43 6.16 6.56 6.56 0 00.906 2.53c.65 1.051 1.381 1.513 2.524 2.531 1.397 1.242 1.905 1.974 2.715 2.802 1.571 1.623 3.778 2.849 8.128 5.252 5.46 3.008 8.397 4.107 9.302 4.441 1.112.398 2.048.7 2.715.907.317-1.48.698-3.056 1.175-4.711a71.24 71.24 0 011.35-4.155 138.835 138.835 0 01-10.383-8.419 120.116 120.116 0 01-3.524-3.263 61.96 61.96 0 014.778-5.157 54.904 54.904 0 013.334-2.993 44.286 44.286 0 018.747-5.523c.682-4.568-.127-8.834-2.62-10.218-3.111-1.72-7.842 1.576-11.826 4.345z" fill="#fff"/><path d="M83.554 83.686a55.07 55.07 0 00-13.573 17.286c-.334.684-.81 1.448-.873 2.212-.064.812.428 1.433.873 2.054a33.176 33.176 0 003.556 4.058c2.73 2.627 5.873 4.791 9.175 6.622 4.064 2.26 8.367 4.059 12.653 5.841.286.112.413-.35.127-.461-7.017-2.929-14.177-5.921-20.035-10.903-1.317-1.13-2.571-2.34-3.698-3.661-.588-.7-1.175-1.417-1.683-2.165-.318-.461-.556-.891-.476-1.48.079-.573.412-1.114.666-1.639a53.388 53.388 0 015.445-8.802 53.757 53.757 0 018.176-8.611c.238-.207-.095-.541-.333-.35z" fill="#000"/><path d="M97.016 89.178a54.07 54.07 0 00-14.065 13.227c-.175.254.238.493.412.238a53.533 53.533 0 0113.89-13.067c.255-.143.017-.557-.237-.398z" fill="#000"/><path d="M84.078 101.099a252.199 252.199 0 0013.78 11.635c.237.191.57-.143.332-.334a246.327 246.327 0 01-13.779-11.635c-.222-.207-.556.127-.333.334z" fill="#000"/><path d="M97.873 112.671a60.97 60.97 0 00-2.35 8.674c-.063.303.397.43.46.128a63.044 63.044 0 012.35-8.675c.096-.286-.365-.414-.46-.127z" fill="#000"/><path opacity=".11" d="M92.904 87.395c-2.19.191-3.842 1.799-8.937 8.898a257.214 257.214 0 00-4.842 6.971 155.17 155.17 0 014.143 3.008c5.064 3.804 7.191 5.937 11.493 8.261a32.75 32.75 0 002.175 1.082c.365-1.002.73-2.005 1.08-3.008-1.207-1.05-2.413-2.085-3.636-3.135a538.89 538.89 0 00-10.017-8.325A40.155 40.155 0 0188 96.738c2.81-2.944 5.604-4.934 7.779-6.462.746-.525 1.38-.94 1.793-1.21-2.047-1.575-3.65-1.766-4.667-1.67z" fill="#494949"/><path opacity=".08" d="M93.54 91.55a15.37 15.37 0 00-5.05 2.18c-4.54 3.04-6.063 7.688-6.508 9.279a325.68 325.68 0 007.588 5.762 342.93 342.93 0 007.525 5.38c.365-.525.73-1.066 1.08-1.592a113.594 113.594 0 01-10.398-8.579 97.972 97.972 0 01-3.191-3.072 56.695 56.695 0 018.953-9.359z" fill="#494949"/><path d="M123.591 111.318l5.064 4.791c-.445 10.155.397 12.542 1.286 12.717 1.381.271 3.746-4.52 4.778-8.292.778-2.865.857-5.38.778-7.083-2.635-2.356-5.271-4.711-7.906-7.083a1342.521 1342.521 0 01-4 4.95z" fill="#161616" stroke="#161616" stroke-width="2" stroke-miterlimit="10"/><path d="M90.555 82.684c.142 2.642 1.984 4.25 1.984 4.25 1.143 1.002 2.429 1.273 3.064 1.353.508.206 1.016.43 1.54.636a61.18 61.18 0 003.524 4.616c2.064 2.483 4.842 5.444 11.636 11.046a236.432 236.432 0 0012.891 9.868 11.143 11.143 0 002.524-1.703c1.953-1.735 2.858-3.756 3.27-4.902-.92-.891-2.286-2.228-3.873-3.884-7.049-7.305-11.748-13.56-15.335-18.367a255.417 255.417 0 01-8.748-12.48c-7.667 2.102-12.668 6.177-12.477 9.567z" fill="#fff"/><path d="M93.015 87.538c1.27.446 2.524.876 3.794 1.322.286.095.413-.367.127-.462-1.27-.446-2.524-.876-3.794-1.321-.285-.096-.412.366-.127.462z" fill="#000"/><path d="M96.286 88.382c5.969 8.229 13.7 14.882 21.717 21.042a549.254 549.254 0 006.969 5.252c.254.191.476-.238.238-.413-8.033-5.969-16.113-12.017-22.94-19.371a72.894 72.894 0 01-5.556-6.749c-.19-.238-.603 0-.428.24zm9.366-11.094a183.585 183.585 0 0018.939 24.368 180.863 180.863 0 006.207 6.415c.222.223.555-.127.333-.334a183.444 183.444 0 01-20.113-23.43 176.228 176.228 0 01-4.969-7.258c-.159-.254-.572-.016-.397.24z" fill="#000"/><path d="M130.528 107.768c-.921 2.738-2.699 5.285-5.382 6.494-.285.128-.031.542.238.414 2.794-1.257 4.636-3.931 5.588-6.78.112-.287-.349-.414-.444-.128z" fill="#000"/><path opacity=".09" d="M105.668 77.034a149.68 149.68 0 00-2.175-2.881c-.508.939-1.207 2.514-1.27 4.472-.143 4.425 3.095 6.32 12.382 16.633 4.048 4.489 6.192 7.194 11.414 12.542a264.613 264.613 0 003.001 3.009 289.505 289.505 0 011.73-3.009 193.327 193.327 0 01-12.001-13.242c-2.874-3.486-5.445-6.606-8.097-10.49-.682-.97-2.413-3.565-4.984-7.034z" fill="#494949"/><path opacity=".09" d="M108.478 81.506a27.71 27.71 0 001.587 5.125c2.619 6.176 6.493 8.786 13.462 16.506 1.334 1.48 3.397 3.82 5.81 6.844.556-.796 1.112-1.576 1.667-2.372-.508-.477-1.317-1.225-2.302-2.18-1.809-1.751-6.715-6.638-16.081-18.56a280.331 280.331 0 01-4.143-5.363z" fill="#494949"/><path d="M56.947 67.436c-.317.127-.793.398-2.206 2.674-1.524 2.45-2.556 4.122-3.318 6.764a20.861 20.861 0 00-.778 6.256c.111.509.19 1.257-.064 2.085-.333 1.05-.936 1.305-2.08 2.737-.46.573-1.221 1.544-1.825 2.865-.666 1.48-.333 1.672-.968 3.12-.762 1.735-1.89 2.929-2.08 3.12-1.047 1.098-1.556 1.13-2.016 2.085-.524 1.082-.365 2.101-.317 2.403.031.223.365 2.165 1.492 2.404.302.063.778.031.968-.255.302-.446-.397-1.066-.524-2.149-.11-.987.318-1.782.588-2.276.81-1.512 1.746-1.29 2.603-2.547.826-1.241.048-1.623.842-3.963.444-1.305.889-2.61 2.08-3.581.539-.446 1.063-.684 1.555-1.433a4.286 4.286 0 00.65-1.75c.874 1.4 1.795 2.307 2.462 2.865.889.732 1.904 1.591 2.762 1.273.46-.175.873-.7.793-1.066-.047-.207-.238-.271-.73-.717 0 0-.19-.175-.619-.636-.286-.303-.698-.86-1.063-1.91.142-.16.507-.51 1-.542.54-.016.952.367 1.365.78.778.764.746 1.226 1.238 1.688.381.366 1.08.748 2.46.652a11.843 11.843 0 00-.317-.78c-.492-1.066-.746-1.178-.778-1.623-.016-.35.127-.446.778-1.56.556-.955.826-1.433.842-1.687.079-.94-.73-1.258-.905-2.34-.159-.907.238-1.64.524-2.212 1.65-3.359 2.698-5.492 2.397-7.1-.46-2.514-4.461-4.631-6.81-3.644z" fill="#161616"/><path d="M56.217 68.009c-2.302 2.356-3.778 5.348-4.762 8.468-.953 3.04-1.667 6.51-.16 9.486.144.27.556.032.414-.239-1.493-2.929-.683-6.398.285-9.375.953-2.96 2.366-5.762 4.556-8.006.207-.223-.127-.557-.333-.334zM53.836 81.76c.19-.095.38-.174.571-.27.143.08.286.175.429.255.175.159.333.366.445.573.222.382.333.843.301 1.29-.063.859-.683 1.527-.841 2.355-.096.51.238.875.524 1.257a12.008 12.008 0 001.682 1.799c.223.207.572-.128.334-.335-.397-.366-.794-.732-1.143-1.145-.572-.653-1.08-1.21-.683-2.117.35-.796.715-1.544.556-2.452-.127-.7-.524-1.416-1.143-1.798-.524-.319-1.16-.255-1.445.334-.143.287.27.525.413.255z" fill="#161616"/><path d="M51.328 86.026c.92 1.48 2.19 2.706 3.73 3.518.46.239 1.334.796 1.89.557.523-.223.428-.86.285-1.29-.095-.286-.556-.159-.46.128.365 1.162-1.175.35-1.477.191a8.75 8.75 0 01-1.397-.907 9.426 9.426 0 01-2.175-2.451c-.142-.24-.555 0-.396.254zm10.937-14.611a47.693 47.693 0 00-1.793 9.677c-.016.096.079.207.174.223 1 .27.857 1.512.492 2.213-.365.668-.936 1.225-1.222 1.941-.508 1.29 1 1.703.968 2.834l.238-.24c-1.428-.079-2.635-.843-3.35-2.084-.507-.892-1.095-1.083-2.11-1.019-.302.016-.302.493 0 .478.38-.016.84-.064 1.19.127.302.175.397.477.556.748.27.462.619.875 1.032 1.21.777.636 1.682.955 2.667 1.018a.244.244 0 00.238-.239c.016-.668-.429-1.066-.794-1.575-.762-1.067.492-2.053.984-2.96.54-.988.524-2.58-.778-2.913.064.08.111.159.175.222a46.47 46.47 0 011.778-9.55c.095-.27-.365-.398-.445-.111z" fill="#161616"/><path d="M50.486 83.273c.111.955-.016 1.894-.476 2.753-.429.812-1.127 1.401-1.81 2.022-1.206 1.13-1.762 2.371-2.143 3.963-.413 1.687-.905 3.04-2.127 4.313-.92.94-2 1.815-2.572 3.04a3.825 3.825 0 00.238 3.693c.413.653 1.826 1.958 2.366.716.222-.509-.032-1.146-.207-1.639-.159-.43-.365-.86-.365-1.337 0-.669.381-1.242.826-1.703 1.08-1.13 2.46-1.767 2.936-3.374.27-.908.08-1.815.143-2.738.08-1.146.62-2.117 1.445-2.897 1.254-1.194 2.92-2.18 2.92-4.122 0-.303-.475-.303-.475 0-.016 1.862-1.826 2.785-2.969 3.963-.889.907-1.397 2.053-1.413 3.326-.016.844.127 1.64-.159 2.452-.317.923-.984 1.544-1.714 2.148-.937.748-2.016 1.624-2.016 2.945 0 .637.317 1.21.508 1.814.047.16.222.589.143.717-.16.016-.334.047-.492.063-.286.175-.508.144-.667-.095-.35-.223-.651-.891-.778-1.273-.508-1.497.19-2.834 1.19-3.916.842-.923 1.826-1.703 2.525-2.754.746-1.114.968-2.435 1.286-3.708.238-.923.555-1.815 1.19-2.547.556-.652 1.254-1.146 1.826-1.782a5.061 5.061 0 001.302-4.043c-.016-.303-.493-.303-.46 0z" fill="#161616"/><path d="M40.183 63.886c-.333.191-.952.526-1.08 1.226-.158.78.398 1.417.477 1.496-.095.112-.381.446-.413.955-.032.844.715 1.337.746 1.37-.031.03-.492.508-.333 1.161.127.557.62.796.683.812-.032.095-.143.51.063.891.318.573 1.08.541 1.159.541.54-.032 1.048-.398 1.286-.955a3.588 3.588 0 002.175.478c.73-.08 1.27-.366 1.556-.541a19.284 19.284 0 002.778 3.74c1.158 1.21 3.317 3.486 6.524 4.425 4 1.178 7.54-.35 9.573-1.226 5.46-2.355 8.175-6.685 9.176-8.308 1.682-2.77 2.27-5.141 2.778-7.29.825-3.406.54-4.743.27-5.523-.16-.478-1.096-3.215-3.255-3.534-1.762-.27-3.222 1.242-3.397 1.433-.603.636-.92 1.48-1.556 3.135-.317.844-.524 1.48-.619 1.767-1.032 3.359-1.556 5.03-1.698 5.38-.381.955-1.286 3.136-3.461 4.839-2.08 1.623-4.255 1.973-5.223 2.117-1.46.206-3.255.461-5.16-.478-2.127-1.05-3.08-2.96-3.333-3.47-.762-1.576-.905-3.326-1.016-4.568-.143-1.592-.032-2.833-.953-3.82-.174-.175-.587-.62-1.016-.541-.619.127-.968 1.321-1.286 2.451-.27.955-.19 1.067-.412 1.29-.46.461-1.048.222-3.064.334-1.175.08-1.588.207-1.969.413z" fill="#fff"/><path d="M43.47 63.202c-1.715-.318-4.731.127-4.493 2.483.206 2.117 2.714 2.483 4.223 1.56.253-.16.015-.573-.239-.414-1.254.764-3.524.557-3.524-1.353 0-1.846 2.588-2.053 3.905-1.814.302.063.429-.398.127-.462z" fill="#000"/><path d="M39.39 66.465c-1.715 2.1 2.413 4.743 3.635 2.1.127-.27-.286-.524-.413-.238-.952 2.037-4.127 0-2.873-1.528.19-.223-.143-.573-.35-.334z" fill="#000"/><path d="M39.485 68.598c-.365.828-.111 1.878.73 2.308.826.43 1.857.031 2.286-.764.143-.27-.27-.51-.413-.239-.317.557-1.032.875-1.635.589-.603-.287-.825-1.067-.555-1.656.127-.27-.286-.509-.413-.238z" fill="#000"/><path d="M39.866 70.73c-.064.844.428 1.608 1.286 1.783.793.16 1.524-.366 1.794-1.082.11-.287-.35-.414-.46-.127-.207.54-.779.89-1.35.716-.588-.175-.826-.716-.794-1.29.016-.302-.46-.302-.476 0zm1.508-5.204c.413-.048.841-.032 1.19.207.334.222.524.668.334 1.034-.143.27.27.51.413.239.254-.493.143-1.067-.238-1.464-.43-.462-1.112-.557-1.715-.494-.286.048-.286.525.016.478z" fill="#000"/><path d="M42.85 71.75c.826-.303 1.62.381 2.477.286.65-.08 1.222-.43 1.762-.749.254-.159.016-.573-.238-.413-.81.493-1.508.843-2.477.557-.587-.175-1.047-.366-1.65-.144-.286.112-.175.573.126.462zm.492-8.134c.826.286 1.937.334 2.398-.573.253-.51.095-1.13.206-1.672.127-.732.54-1.337 1.111-1.798.238-.191-.095-.525-.333-.334a3.493 3.493 0 00-1.223 2.005c-.079.446.032.971-.095 1.4-.286.86-1.238.749-1.905.51-.317-.095-.444.366-.159.462z" fill="#000"/><path d="M46.708 59.605c1.35.175 1.524 2.45 1.746 3.485.27 1.353.413 2.722.667 4.075.413 2.165 1.667 3.884 3.667 4.855 2.096 1.002 4.477.955 6.668.35 2.254-.637 4.587-1.783 6.048-3.677.19-.239-.143-.573-.333-.334-1.524 1.974-4 3.135-6.382 3.693-2.397.557-5.017.35-7.017-1.21-2.159-1.671-2.207-4.186-2.635-6.685-.207-1.178-.381-2.451-.81-3.565-.27-.7-.698-1.337-1.476-1.449-.318-.048-.445.414-.143.462z" fill="#000"/><path d="M46.359 71.606c1.92 2.356 3.778 5.046 6.318 6.78 2.492 1.688 5.572 1.863 8.461 1.385 5.874-.987 10.859-4.982 13.716-10.139 1.635-2.928 2.604-6.175 3.032-9.502.032-.302-.444-.302-.476 0-.73 5.682-3.207 11.253-7.62 15.01-2.175 1.846-4.762 3.23-7.54 3.9-2.874.7-6.192.795-8.811-.749-2.794-1.64-4.747-4.568-6.747-7.035-.19-.223-.524.111-.333.35z" fill="#000"/><path d="M74.569 53.54c-1.318-.525-2.715.16-3.636 1.13-1.08 1.115-1.62 2.595-2.016 4.06-.46 1.703-.873 3.39-1.524 5.03-.698 1.766-1.587 3.437-2.603 5.029-.175.254.238.493.412.239 1.636-2.531 2.89-5.285 3.668-8.198.412-1.528.682-3.12 1.444-4.504.762-1.4 2.381-3.024 4.128-2.324.285.112.412-.35.127-.461zM42.088 70.476c.445.032.35.78.27 1.05-.095.287.365.414.46.128.207-.605.064-1.592-.73-1.656-.301-.016-.301.462 0 .478z" fill="#000"/><path d="M42.358 69.011a.96.96 0 01-.35 1.003c-.253.175-.015.59.239.414.492-.35.73-.955.572-1.544-.064-.302-.524-.175-.46.127z" fill="#000"/><path d="M42.628 67.356c.429.207.143.891-.063 1.162-.191.239.222.478.412.239.365-.478.556-1.496-.11-1.815-.27-.127-.509.287-.239.414z" fill="#000"/><path opacity=".11" d="M39.358 67.42c.254-.143.667.748 1.73 1.194.397.159.89.27 3.143 0 .73-.096 1.683-.223 2.826-.43a11.9 11.9 0 001.62 3.693c.396.589 2 2.88 5.095 4.233 3.318 1.465 6.319.971 7.477.764.985-.175 3.731-.7 6.176-2.833 1.635-1.416 2.683-3.135 4.223-7.608a82.94 82.94 0 003.254-12.495c.635.653 1.62 1.83 2.175 3.582.27.843.524 2.085.317 4.027-.428 4.186-2.524 7.672-3.794 9.454-1.317 1.862-3.667 5.078-8.017 7.067-.587.27-3.905 1.72-8.128 1.528-.968-.048-1.857-.095-2.952-.493-1.191-.43-2.382-1.544-4.747-3.74-.984-.908-1.953-1.863-2.937-3.248-.19-.27-.35-.509-.46-.668-.334.223-.826.477-1.381.414-.747-.064-1-.605-1.62-.51-.54.08-.54.526-1.19.764-.508.175-1.223.16-1.699-.207-.35-.27-.397-.573-.794-2.292-.38-1.687-.492-2.1-.317-2.196z" fill="#494949"/><path d="M57.503 63.282c-.302.063-.413.668-.603 1.607a9.963 9.963 0 00-.175 1.417c-.635.748-.698 1.432-.714 1.703-.016.557.174.987.54 1.783.253.573.523 1.018.714 1.32-.683.16-1.159.606-1.19 1.083-.033.462.38.828.539.955.714.62 1.238.16 2.143.653.73.398.667.843 1.73 1.432.667.366.874.287.953.239.27-.175.175-.748.127-1.13-.063-.462-.254-1.162-.778-1.974.62-.223 1.238-.446 1.842-.652-.445.047-.54.063-.54.063 0-.016 1.095-.461 2.032-.063.778.334.841 1.034 1.492 1.082.365.032.778-.175.953-.478.365-.62-.318-1.528-.477-1.734-.65-.86-1.603-1.115-2.032-1.194.143-.319.302-.828.334-1.465.031-1.082-.413-1.878-.62-2.212-.285-.94-.555-1.878-.84-2.833-.445 1.034-.937 1.353-1.318 1.432-.429.096-.667-.111-1.366 0-.666.112-.698.319-1.08.303-.888-.096-1.19-1.433-1.666-1.337z" fill="#161616"/><path d="M57.9 68.311c.27.318.698.525 1.127.414a.916.916 0 00.683-.796c.015-.159-.223-.159-.239 0-.031.334-.317.573-.65.59-.302.015-.556-.16-.747-.383-.11-.111-.27.064-.174.175zm3.397-.525c.397.573 1.683.62 1.635-.287-.016-.159-.254-.159-.238 0 .048.653-.92.558-1.19.16-.096-.128-.302 0-.207.127zm-.619 1.767c0 .016.016.032.016.048.047.016.11.031.159.047-.032-.063-.08-.095-.16-.095.064-.016.112-.048.175-.064-.015-.016-.031-.047-.047-.063-.08.031-.143.063-.222.095.11.175.063.493 0 .669-.08.238-.413.557-.62.238-.079-.127-.285-.016-.206.128.206.318.635.302.873.032.238-.271.365-.86.159-1.178-.064-.112-.254-.048-.222.095a.35.35 0 00.158.207c.064.048.16 0 .175-.064.032-.143-.016-.477-.238-.382-.206.08-.127.398-.032.526.032.047.111.08.159.047.175-.127.175-.366-.016-.461-.127-.096-.238.111-.111.175z" fill="#fff"/><path d="M60.694 69.6c.063.367.19.812.619.876.429.064.556-.35.556-.684 0-.16-.239-.16-.239 0 0 .238-.079.573-.396.413-.239-.111-.27-.43-.302-.668-.032-.144-.27-.08-.238.063z" fill="#fff"/><path d="M56.312 68.39c.302-1.654 1.493-3.071 3.112-3.549 1.62-.477 3.492.176 4.239 1.735.127.271.54.032.412-.238-.81-1.672-2.794-2.42-4.556-2.006-1.873.446-3.318 2.053-3.667 3.932-.048.302.413.43.46.127z" fill="#161616"/><path d="M57.154 65.987c-.016-.795.127-1.591.46-2.307.032-.064.064-.112.08-.176.11-.19.126-.222.031-.095-.095.08-.08.143.064.239.031.047.08.111.11.159.239.382.445.78.62 1.194.111.286.571.159.46-.128-.158-.382-.889-2.324-1.508-1.894-.301.207-.492.907-.587 1.242a5.61 5.61 0 00-.222 1.782c.031.287.508.287.492-.016zm4.842-1.289c.158-.27.317-.54.492-.811.08-.112.19-.223.238-.35.11-.064.127-.128.063-.208-.063-.111-.047-.08.032.096.27.684.46 1.353.54 2.1.032.303.508.303.476 0a8.532 8.532 0 00-.286-1.543c-.095-.286-.238-.94-.508-1.114-.206-.128-.38-.032-.524.143-.365.43-.65.955-.936 1.449-.159.254.254.493.413.238zm-6.112 3.438c-.111 2.674 2.302 4.966 4.984 4.41 1.239-.256 2.382-1.067 2.97-2.197.618-1.194.967-3.088.158-4.266-.175-.255-.588-.016-.413.239.715 1.066.365 2.817-.206 3.883-.524.971-1.556 1.656-2.636 1.879-2.397.477-4.476-1.592-4.381-3.948 0-.318-.476-.318-.476 0z" fill="#161616"/><path d="M56.217 72.338c.381-1.416 2.286-1.337 3.286-.716 1.064.637 1.604 1.878 1.715 3.072.031.334.158.668-.397.461-.206-.08-.476-.382-.635-.54-.286-.287-.54-.59-.857-.828a2.57 2.57 0 00-1.143-.51c-.667-.127-1.874-.047-1.937-1.002-.016-.303-.492-.303-.476 0 .047.62.444 1.034 1.016 1.241.444.16.936.127 1.397.239.571.143.952.445 1.349.86.397.397 1.08 1.288 1.762 1.161.572-.111.445-.764.397-1.194-.175-1.528-.984-3.04-2.477-3.629-1.254-.493-3.063-.207-3.444 1.274-.096.286.365.414.444.111zm6.334-2.068c.651-.876 2.127-.526 2.81.063.397.334.667.796.794 1.305.032.16.111.493.063.668-.158.462-.492.319-.778.096-.396-.302-.698-.732-1.19-.923a1.628 1.628 0 00-.73-.096c-.239 0-.46.064-.699.032-.444-.064-1.063-.477-.317-1.05.238-.191-.096-.526-.334-.335-.365.287-.555.717-.397 1.178.223.605.794.732 1.381.7.588-.031.969-.015 1.445.383.222.19.413.413.667.588.333.24.825.462 1.19.128.842-.78-.127-2.515-.793-3.056-.953-.78-2.7-1.003-3.493.095-.206.223.207.462.381.223z" fill="#161616"/><path d="M57.138 71.017c1.032-.334 2.603.319 3.238 1.162.048.064.143 0 .096-.064-.667-.907-2.255-1.575-3.366-1.21-.08.017-.047.128.032.112zm5.524-.684a1.856 1.856 0 011.826-.637c.08.016.111-.095.032-.111-.73-.143-1.46.095-1.937.668-.048.064.032.144.08.08zm-4.937-6.781c.159.414.27.828.318 1.258l.095-.048a.909.909 0 00-.254-.175c-.048-.016-.095 0-.095.048 0 .143-.016.27-.016.413l.095-.047c-.222-.255-.397.318-.46.43-.032.063.063.127.095.063.016-.032.222-.477.27-.414.032.048.095 0 .095-.047 0-.144.016-.271.016-.414l-.095.047c.095.032.158.08.222.16.032.031.111.016.095-.048a5.134 5.134 0 00-.333-1.29c.032-.031-.08 0-.048.064zm4.905-.207c-.174.335-.27.669-.301 1.05 0 .033.048.065.08.065.222-.064.253.111.27.302 0 .048.063.08.094.048.08.127.143.239.223.366-.016.08.11.111.11.032.033-.223-.11-.796-.412-.478l.095.048c-.016-.143-.047-.27-.079-.414 0-.032-.032-.048-.063-.048a.83.83 0 00-.286.048c.032.016.047.032.08.064a2.21 2.21 0 01.285-.987c.047-.111-.064-.175-.095-.096z" fill="#fff"/><path d="M72.584 53.907a44.68 44.68 0 001.54 6.813c1.873 5.984 4.08 8.547 7 15.487a81.604 81.604 0 012.779 7.64c1.89.62 5.397 1.464 9.684.716 7.048-1.226 11.192-5.905 12.351-7.322A240.026 240.026 0 0198.73 62.79a235.914 235.914 0 01-6.175-14.755c-1.492-.557-5.398-1.798-10.192-.62-5.73 1.384-8.89 5.316-9.779 6.493z" fill="#EC615B"/><path opacity=".13" d="M86.522 46.872a75.526 75.526 0 012.175 5.109c2.54 6.685 3.461 12.176 3.794 14.134.715 4.043 1.334 10.314.318 18.368a14.482 14.482 0 004.874-.971c2.952-1.178 5.095-3.231 7.159-5.22.476-.447.842-.844 1.08-1.083a142.774 142.774 0 01-2.921-5.332c-3.493-6.653-5.779-12.177-7.7-16.856a284.83 284.83 0 01-2.714-6.844 15.972 15.972 0 00-3.255-.971c-1.047-.207-2-.303-2.81-.334z" fill="#494949"/><path opacity=".1" d="M97.032 59.493c.27 2.85.492 5.237.65 6.956.604 6.733.715 8.595.763 9.789.127 2.817.127 5.125.11 6.637.985-.35 2.255-.923 3.573-1.846a15.71 15.71 0 003.476-3.375c-2.857-6.064-5.715-12.112-8.572-18.16z" fill="#494949"/><path d="M85.76 44.07c-.762.223-1.174 1.321-1.428 2.451-.508 2.308-.238 4.282-.143 4.966.46 3.04 1.286 5.316 1.556 6.064.698 1.847 1.65 4.314 3.73 6.94 1.19 1.496 2.207 2.786 4.08 3.74 1.095.574 3.365 1.736 5.7.812.11-.047 2.396-.987 2.984-2.992.127-.446.158-.891.206-1.767a17.01 17.01 0 00-.063-2.594c-.159-1.512-.493-2.69-.747-3.534-1.127-3.74-1.682-5.602-2.857-7.226-.969-1.337-2.064-2.865-3.874-3.072-.158-.016-1.984-.19-3.063 1.083-.747.89-.699 1.99-.683 2.721.047 1.401.587 2.404 1.429 3.948.841 1.528 1.174 1.719 2.174 3.533 1.366 2.483 1.223 2.722 1.16 2.786-.27.238-1.35-.51-1.588-.685-.222-.159-.54-.382-.937-.812-1.238-1.384-1.968-3.47-1.968-3.47a54.845 54.845 0 01-2.382-5.443 6.94 6.94 0 011.016-2.244c.54-.764 1.144-1.29 1.286-2.244a2.75 2.75 0 000-.892.841.841 0 00.207-.955c-.175-.366-.604-.54-1.016-.414 0-.047-.048-.461-.413-.684-.302-.191-.714-.16-1.016.064-.476-.366-.873-.462-1.159-.478-.333-.016-.492.064-1.286.207-.666.175-.714.143-.905.191z" fill="#fff"/><path d="M89.745 50.787c.429-1.067.968-2.038 1.556-3.024.301-.51.65-1.146.238-1.703-.937-1.21-2.207.334-2.603 1.13-.143.27.27.509.412.238.238-.477.508-1.066 1.064-1.225a.656.656 0 01.492-.032c.048.366.095.732.159 1.098-.048.207-.334.541-.445.732-.508.844-.92 1.735-1.302 2.643-.142.302.318.413.43.143zm-5.191 2.053a20.644 20.644 0 01-.08-5.14c.175-1.56.508-3.932 2.667-3.487.302.064.43-.398.127-.461-1.698-.35-2.762.86-3.047 2.403-.43 2.244-.445 4.536-.127 6.813.047.302.508.175.46-.128z" fill="#000"/><path d="M86.538 45.502c.175-.413.365-.843.699-1.161.571-.558 1.302-.255 1.92.047.27.144.509-.27.239-.413-.651-.335-1.381-.653-2.08-.287-.603.318-.92.97-1.175 1.56-.127.302.286.541.397.255z" fill="#000"/><path d="M87.951 45.646c.588-.764 1.365-1.56 2.381-.955.27.159.508-.255.239-.414-1.207-.716-2.223.064-2.953 1.019-.19.254.143.589.333.35z" fill="#000"/><path d="M89.015 45.996c.302-.318.619-.653 1.032-.812.492-.207 1.397-.08 1.206.669-.063.302.381.43.46.127.16-.652-.27-1.257-.92-1.369-.873-.159-1.556.478-2.112 1.05-.206.224.127.558.334.335zm.19 4.552c-.555 1.194.127 2.404.604 3.502.666 1.544 1.365 3.088 2.222 4.52 1.111 1.878 3.524 5.253 6.048 3.327.239-.191 0-.605-.238-.414-2.428 1.862-4.683-1.894-5.667-3.629a38.376 38.376 0 01-1.556-3.136c-.476-1.066-1.54-2.737-.984-3.931.111-.27-.302-.525-.429-.239z" fill="#000"/><path d="M91.253 49.338c-1.397 4.76 2.89 8.452 4.461 12.527.111.286.572.159.46-.128-1.524-3.947-5.81-7.671-4.46-12.271.079-.303-.382-.43-.46-.128z" fill="#000"/><path d="M84.078 52.713a28.285 28.285 0 005.477 12.256c1.349 1.719 2.889 3.39 5.016 4.09 1.81.59 4.302.892 5.985-.207 1.841-1.178 2.08-3.58 2.159-5.57.016-.303-.46-.303-.476 0-.096 2.562-.667 5.395-3.7 5.761-2.793.335-5.397-.78-7.286-2.801-3.508-3.74-5.81-8.627-6.73-13.657-.033-.302-.493-.175-.445.128z" fill="#000"/><path d="M91.57 49.975c.509-2.037 2.954-2.18 4.478-1.29 1.555.908 2.619 2.547 3.397 4.123.809 1.656 1.397 3.438 1.968 5.189.651 2.005 1.143 4.106.81 6.223-.048.303.413.43.46.128.381-2.42-.222-4.76-1-7.051-.714-2.085-1.413-4.234-2.603-6.112-1-1.592-2.493-3.247-4.461-3.518-1.524-.207-3.144.62-3.525 2.18-.063.303.397.43.477.128z" fill="#000"/><path opacity=".1" d="M86.348 43.863c1.27-.51 2.508.048 2.81.191-.89 1.178-2.779 4.027-2.937 8.054-.238 5.73 3.175 9.534 4.381 10.887 1.556 1.735 3.588 3.995 6.207 3.677 1.477-.175 2.874-1.162 3.588-2.42.715-1.257.667-2.626-.19-6.16-1.318-5.347-2.763-8.483-2.556-8.579.206-.095 1.92 2.595 3.207 5.97.127.35 1.19 3.183 1.571 7.082.238 2.404.032 3.39-.46 4.266-.762 1.353-2 1.957-2.477 2.165-1.92.811-3.762.238-4.635-.064-3.128-1.05-4.794-3.597-6.477-6.16-2.588-3.963-3.302-7.353-3.985-10.616-.476-2.26-.794-4.887.397-6.813.206-.398.667-1.114 1.556-1.48z" fill="#494949"/><path d="M63.424 36.112c-.047.748.223 1.592.794 3.279.635 1.894 1.318 3.915 3.032 5.905 1.096 1.273 2.43 2.833 4.7 3.279 1.793.35 3.301-.16 4.063-.478.175.478.413.987.715 1.512a11.16 11.16 0 002.555 3.04c.588-.063 1.73-.302 2.715-1.193.762-.7 1.127-1.528 1.35-2.07.27-.636.412-1.193.476-1.591a7.36 7.36 0 01-1.508-1.194c-1.588-1.623-2.017-3.55-2.144-4.473.207-1.83.43-3.676.635-5.507.239.032.747.064 1.191-.239.492-.334.587-.89.714-1.512.127-.62.27-1.416-.079-2.323-.159-.398-.667-1.672-1.746-1.751-.73-.064-1.477.43-1.905 1.194-.92-.892-2.89-2.468-5.652-2.722-4.778-.446-9.636 3.294-9.906 6.844z" fill="#fff"/><path d="M70.473 43.386c-.127.334.238.811.508 1.05.746.653 2.064.621 3.016.175 1.334-.62 1.762-1.957 1.953-2.562.222-.669.508-1.544.047-2.324-.397-.684-1.095-.923-1.365-1.003-.27.557-.476.971-.635 1.242-.19.334-.254.445-.365.7-.159.334-.175.462-.397.764a5.137 5.137 0 01-2.143 1.608c-.286.063-.54.127-.62.35z" fill="#000"/><path d="M63.678 38.022c1.254 3.931 2.826 8.515 6.874 10.362 1.651.748 3.62.89 5.302.159 1.89-.812 3-2.69 3.763-4.505 1-2.371 1.429-4.95 1.27-7.512-.016-.303-.492-.303-.476 0 .158 2.674-.318 5.364-1.445 7.799-1.095 2.371-2.826 4.265-5.604 4.234-5.588-.064-7.858-6.24-9.255-10.649-.064-.318-.508-.19-.429.112z" fill="#000"/><path d="M79.156 32.435c.016-.955 1-1.528 1.874-1.258.81.271 1.317 1.067 1.492 1.863a4.865 4.865 0 01-.143 2.387c-.19.605-.429.923-1.159.923-.254 0-.508-.095-.778-.095-.301 0-.301.477 0 .477.54 0 1.064.255 1.588-.015.38-.191.603-.573.762-.971.412-1.083.46-2.547-.064-3.614-.428-.875-1.35-1.623-2.365-1.512-.937.096-1.667.86-1.683 1.799 0 .318.476.318.476.016zm.937 8.722a8.454 8.454 0 003.175 6.78c.238.192.572-.142.334-.334a7.98 7.98 0 01-3.033-6.446c0-.302-.476-.302-.476 0zm-4.096 7.131a10.548 10.548 0 002.905 4.314c.223.206.572-.128.334-.335a10.135 10.135 0 01-2.794-4.106c-.095-.287-.556-.16-.445.127z" fill="#000"/><path d="M79.014 52.76c1.365.494 2.73-.668 3.572-1.639.889-1.018 1.666-2.34 1.285-3.724-.079-.303-.54-.175-.46.127.317 1.21-.397 2.388-1.175 3.263-.73.828-1.92 1.942-3.111 1.512-.27-.111-.397.35-.111.462zM65.456 36.35c-.206-.589.27-1.225.62-1.639.523-.652 1.333-.828 1.936-.16.699.765.89 2.134.984 3.12.064.685-.174 1.56.223 2.165.428.653 1.222 1.035 1.968 1.178.302.064.429-.398.127-.462a3.088 3.088 0 01-1.095-.43c-.572-.381-.699-.795-.715-1.48-.015-.589-.031-1.162-.127-1.75-.158-.971-.428-2.213-1.222-2.865-.667-.557-1.492-.541-2.143.016-.62.54-1.334 1.575-1.032 2.419.127.302.587.175.476-.112zm4.398-3.438c.11-1.926 2.508-2.626 3.62-1.05.174.255.587.016.412-.239-1.381-1.974-4.366-1.13-4.508 1.29-.016.302.46.302.476 0z" fill="#000"/><path d="M67.695 37.624a1.8 1.8 0 01-.365-1.003c-.127.064-.239.143-.365.207.365.239.555.62.54 1.05a3.61 3.61 0 01.3-.222.913.913 0 01-.57-1.003c-.112.048-.239.095-.35.143.19.112.35.27.46.478.048.095.08.19.096.302 0 .08 0-.016-.016-.048-.032-.063-.064-.111-.095-.175-.127-.286-.54-.032-.413.239.095.223.254.462.54.477a.44.44 0 00.476-.382c.047-.525-.365-1.05-.794-1.289-.127-.08-.317-.016-.35.143a1.415 1.415 0 00.906 1.592.235.235 0 00.301-.223 1.647 1.647 0 00-.778-1.464c-.142-.096-.365.032-.365.207.016.446.16.875.429 1.241.19.223.603-.015.413-.27zm4.445-3.072a.842.842 0 01-.175-.334c0-.032-.032-.223 0-.239.032-.016.111.239.127.255a.53.53 0 01-.048.382c.112-.032.223-.064.334-.08a1.038 1.038 0 01-.524-1.082c-.127.063-.238.143-.365.207a.982.982 0 01.587 1.13c.095-.048.19-.112.286-.16a.718.718 0 01-.476-.54c0-.017 0-.16-.016-.16a.772.772 0 01-.111.048c.016.032.047.08.063.111.064.175.064.35.048.542.143-.064.27-.112.413-.175a1.07 1.07 0 01-.334-.414c-.143-.27-.555-.032-.413.238.096.191.239.367.413.51.175.143.381.048.413-.175.032-.319 0-.748-.238-.987-.19-.191-.54-.207-.667.08-.254.556.286 1.21.778 1.384.127.048.27-.048.286-.159.174-.668-.16-1.4-.81-1.671-.175-.08-.333.016-.365.207-.08.605.238 1.193.762 1.496.095.063.27.032.333-.08.127-.302.159-.605.048-.907-.095-.239-.302-.493-.572-.462-.698.08-.396 1.083-.11 1.401.206.207.539-.143.333-.366zm4.143 13.688c0 .016 0 .016-.016.032.095-.048.19-.111.286-.16-.016 0-.032-.015-.048-.015.048.111.096.239.143.35.032-.064.46-.27.588-.382.285-.239.523-.557.746-.86.492-.652.857-1.368 1.159-2.116-.16-.048-.302-.08-.46-.128-.477 1.37-.81 3.28-2.144 4.091l.333.334c.318-.477.635-.97.953-1.448.143-.223-.19-.494-.381-.287l-.778.828.333.334c.239-.286.46-.589.667-.891.159-.223-.19-.493-.38-.287a2.48 2.48 0 01-.731.558c.127.063.238.143.365.206 0-.047-.016-.095-.016-.143-.032-.302-.508-.302-.476 0 0 .048.016.096.016.143.016.175.19.303.365.207a3.19 3.19 0 00.825-.636l-.38-.287c-.191.27-.382.541-.588.796-.19.239.127.573.333.334l.778-.827-.38-.287c-.318.478-.636.971-.953 1.449-.127.206.127.445.333.334 1.46-.892 1.842-2.865 2.365-4.377.096-.303-.349-.398-.46-.128-.333.812-.762 1.608-1.333 2.276-.27.319-.699.494-.953.78-.063.064-.127.08-.159.16-.079.143-.015.286.143.35.016 0 .032.016.048.016.127.047.254-.048.286-.16 0-.016 0-.016.016-.031.127-.287-.334-.414-.445-.128z" fill="#000"/><path d="M78.045 47.763a1.17 1.17 0 00.286-.51c.08-.286-.286-.382-.429-.19l-1 1.337c-.19.238.222.477.413.238l1-1.337-.429-.19a.792.792 0 01-.158.302c-.223.254.127.589.317.35zm-7.335-3.947c-.444-.892.033-1.226.922-1.465.11-.032.222-.048.317-.095.381-.175.603-.557.762-.923.254-.542.397-1.13.73-1.624.699-1.066 1.937-1.019 2.334.255.397 1.273-.095 2.69-.937 3.66-.412.478-.92.924-1.524 1.13-.523.192-.984.128-1.492-.095-.365-.16-1.032-.477-1.127-.891-.063-.303-.524-.175-.46.127.174.828 1.413 1.337 2.159 1.448.81.128 1.571-.27 2.19-.78 1.382-1.146 2.239-3.167 1.572-4.918-.714-1.894-2.651-1.193-3.365.303-.223.461-.334 1.241-.699 1.575-.46.43-1.048.271-1.524.605-.667.478-.603 1.321-.27 1.974.143.239.556 0 .413-.286z" fill="#000"/><path d="M70.394 43.322c2.46-.064 3.65-2.356 4.19-4.457.08-.302-.38-.43-.46-.127-.476 1.878-1.508 4.043-3.73 4.106-.302.016-.302.494 0 .478z" fill="#000"/><path d="M63.869 37.767c-.286.16-2.016-1.735-2.746-4.266-.54-1.846-.381-3.485-.191-4.52.27-.828.65-1.719 1.175-2.626 2.254-3.884 5.81-5.714 7.651-6.494a9.207 9.207 0 00-1.238 1.448 9.602 9.602 0 00-1.174 2.165 19.49 19.49 0 011.825-1.369 23.13 23.13 0 014.191-2.228c-.19.812-.397 1.623-.587 2.42.444-.256 1.063-.622 1.825-.988.842-.398 2.572-1.225 2.842-.86.08.112-.016.24-.159.701a6.885 6.885 0 00-.285 1.449c.492-.08 1.047-.144 1.65-.16.667-.032 1.27 0 1.81.048-.19.732-.38 1.449-.571 2.18.38.144.92.414 1.476.86 1.492 1.226 1.921 2.881 2.032 3.534.238 1.56-.143 2.865-.428 3.58-.763-1.623-2.27-2.26-3.128-1.861-.524.238-1.127 1.002-1.064 1.782.016.175.064.335.112.446a14.511 14.511 0 00-2.493-1.83c-1.095-.637-2.318-1.353-3.937-1.56-3.048-.398-5.429 1.273-6.064 1.735-.984.7-2.588 1.83-2.873 3.629-.286 1.512.571 2.674.349 2.785z" fill="#5222D0"/><path opacity=".11" d="M75.95 30.78a21.035 21.035 0 011.524 5.03c.38 2.164.857 4.95-.302 8.037-.397 1.05-1.333 3.072-3.556 4.966a5.39 5.39 0 002.381-.62c1.556-.812 2.239-2.165 2.445-2.643a12.116 12.116 0 012.508 3.502c.429.907.699 1.75.858 2.451a5.314 5.314 0 001.587-2.515c.143-.51.19-.97.19-1.353a6.476 6.476 0 01-1.84-1.528c-.144-.175-1.557-1.957-1.477-4.425.031-.89.222-.907.365-2.276a14.92 14.92 0 000-2.944c.81.334 1.222.175 1.413.063.365-.222.46-.62.793-2.642.175-1.082.27-1.623.302-1.91.19-1.544.286-2.324.19-2.944-.27-1.767-1.396-2.945-1.777-3.311a5.874 5.874 0 00-1.715-1.162c.19-.668.365-1.353.556-2.021a18.465 18.465 0 01-2.318 2.276c-1.429 1.146-2.254 1.416-3.239 2.515a8.4 8.4 0 00-1.476 2.323c.873.398 1.73.764 2.588 1.13z" fill="#494949"/><path opacity=".17" d="M69.41 20.036c-.54.239-1.81.907-2.7 2.324a5.924 5.924 0 00-.857 2.45 6.381 6.381 0 00.365 2.946 12.551 12.551 0 011.651-5.65 12.709 12.709 0 011.54-2.07z" fill="#494949"/><path opacity=".08" d="M80.633 36.541c-.048-.015-.143.16-.492 1.37-.477 1.639-.73 2.848-.873 3.453a21.104 21.104 0 01-1.207 3.613 251.6 251.6 0 003.381.653 12.827 12.827 0 01-1.095-3.836c-.302-2.785.445-5.22.286-5.252z" fill="#494949"/></svg>