<svg width="155" height="226" fill="none" xmlns="http://www.w3.org/2000/svg"><path d="M110.92 37.9l-6.6 6.6a2.939 2.939 0 01-1.443 3.22 2.934 2.934 0 11-.767-5.43l6.6-6.6a4.288 4.288 0 013.128-5.945 4.288 4.288 0 012.517.285.72.72 0 00-.115.1l-2.375 2.37a1.587 1.587 0 001.726 2.608 1.59 1.59 0 00.514-.368l2.395-2.37a.726.726 0 00.1-.115 4.287 4.287 0 01-3.155 5.95 4.291 4.291 0 01-2.525-.305zM85.6.12h-.135a.765.765 0 00-.765.765v2.78c0 .423.343.765.765.765h.135a.765.765 0 00.765-.765V.885A.765.765 0 0085.6.12zm6.195 6.33v-.135a.765.765 0 00-.765-.765h-2.78a.765.765 0 00-.765.765v.135c0 .423.343.765.765.765h2.78a.765.765 0 00.765-.765zm-6.33 6.19h.135a.765.765 0 00.765-.765v-2.78a.765.765 0 00-.765-.765h-.135a.765.765 0 00-.765.765v2.78c0 .423.343.765.765.765zM79.27 6.315v.135c0 .422.343.765.765.765h2.78a.765.765 0 00.765-.765v-.135a.765.765 0 00-.765-.765h-2.78a.765.765 0 00-.765.765zM6.91 35.9h-.135a.765.765 0 00-.765.765v2.78c0 .422.343.765.765.765h.135a.765.765 0 00.765-.765v-2.78a.765.765 0 00-.765-.765zm6.19 6.33v-.135a.765.765 0 00-.765-.765h-2.78a.765.765 0 00-.765.765v.135c0 .423.342.765.765.765h2.78a.765.765 0 00.765-.765zm-6.33 6.195h.135a.765.765 0 00.765-.765v-2.78a.765.765 0 00-.765-.765H6.77a.765.765 0 00-.765.765v2.78c0 .423.343.765.765.765zm-6.19-6.33v.135c0 .423.342.765.765.765h2.78a.765.765 0 00.765-.765v-.135a.765.765 0 00-.765-.765h-2.78a.765.765 0 00-.765.765zm77.2-26.43a3.325 3.325 0 100 6.65 3.325 3.325 0 000-6.65zm0 5.125a1.8 1.8 0 111.27-.53 1.795 1.795 0 01-1.27.525v.005zM25.81 69.075a3.326 3.326 0 100 6.651 3.326 3.326 0 000-6.651zm0 5.125a1.8 1.8 0 111.27-.53 1.795 1.795 0 01-1.27.525v.005z" fill="#6B81BE"/><path d="M63.17 20.805l-14.745 4.47 1.845-2.295 14.745-4.47-1.845 2.295zM75.205 60.65L60.46 65.12l-3.21-3.34 14.745-4.47 3.21 3.34zM53.13 8.11l-14.745 4.47-.6-6.59L52.53 1.52l.6 6.59zM40.345 29.145l14.745-4.47c1.87-.57 4.77 2.915 6.975 8.655 2.545 6.64 3.195 13.78 1.45 15.95L48.77 53.75c1.745-2.17 1.1-9.31-1.45-15.95-2.205-5.74-5.105-9.22-6.975-8.655z" fill="#404B7C"/><path d="M62.715 49.855l-14.745 4.47c.317-.104.594-.303.795-.57L63.5 49.28a1.636 1.636 0 01-.785.575zm7.345 24.14L55.315 78.47l-2.695-7.02 14.745-4.475 2.695 7.02z" fill="#404B7C"/><path d="M67.365 67L52.62 71.47a4.635 4.635 0 01-2.69-.56l14.745-4.47c.82.454 1.757.65 2.69.56zM43.775 5.47L29.03 9.94 33 5.005 47.745.535l-3.97 4.935zm2.695 7.02l-14.745 4.47-2.695-7.02 14.745-4.47 2.695 7.02z" fill="#404B7C"/><path d="M45.805 17.22L31.06 21.69a23.74 23.74 0 01.665-4.73L46.47 12.5a23.763 23.763 0 00-.665 4.72zm12.57 48.605L43.63 70.3l-.6-6.595 14.745-4.47.6 6.59zm6.895 7.185l-14.745 4.47-6.895-7.18 14.745-4.475 6.895 7.185z" fill="#404B7C"/><path d="M57.775 59.235l-14.745 4.47a56.133 56.133 0 01-3.14-5.5l14.745-4.47a56.133 56.133 0 003.14 5.5zm-8.93-20.61L34.1 43.1a90.26 90.26 0 01-1.75-7.24l14.745-4.47c.465 2.35 1.05 4.78 1.75 7.235zm-1.75-7.24l-14.745 4.47-3.21-3.34 14.745-4.47 3.21 3.34z" fill="#404B7C"/><path d="M43.885 28.045l-14.745 4.47-1.29-14.165 14.745-4.47 1.29 14.165zm8.9 27.975l-14.74 4.47-5.79-15.095L47 40.925l5.785 15.095z" fill="#404B7C"/><path d="M70.805 33.605L68.96 35.9a89.855 89.855 0 011.75 7.245l3.21 3.34 1.285 14.165L72 57.31a24.006 24.006 0 01-.665 4.73l2.69 7-3.97 4.96-2.69-7a4.635 4.635 0 01-2.69-.56l.6 6.59-6.9-7.185-.6-6.59a56.145 56.145 0 01-3.14-5.5l-1.845 2.3L47 40.925l1.845-2.3a90.26 90.26 0 01-1.75-7.24l-3.21-3.34-1.29-14.165 3.21 3.34c.063-1.591.286-3.173.665-4.72l-2.695-7 3.97-4.935 2.695 7a4.59 4.59 0 012.69.555l-.6-6.62 6.9 7.185.6 6.59a55.913 55.913 0 013.14 5.5L65 18.5l5.805 15.105zM63.5 49.28c1.745-2.17 1.1-9.31-1.45-15.95-2.55-6.64-6.025-10.255-7.77-8.085-1.745 2.17-1.1 9.31 1.45 15.95 2.55 6.64 6 10.26 7.77 8.085z" fill="#F68D88"/><path d="M47 40.925l-14.745 4.47 1.845-2.3 14.745-4.47-1.845 2.3z" fill="#404B7C"/><path d="M32.255 17.34a.252.252 0 11-.075-.5l9.64-3a.263.263 0 01.277.085.262.262 0 01-.037.367.26.26 0 01-.09.048l-9.64 3h-.075zM30 32.5a.253.253 0 01-.075-.5l13.125-4a.26.26 0 11.145.5l-13.125 4H30zm3.745 3.185a.252.252 0 11-.075-.5l12.725-3.86a.26.26 0 01.145.5l-12.725 3.86h-.07zm1.09 7.44a.253.253 0 01-.075-.5l13.135-4a.26.26 0 11.145.5l-13.135 4h-.07zm-1.8 2.285a.25.25 0 01-.188-.047.253.253 0 01.113-.453l13.435-4.075a.26.26 0 01.145.5L33.105 45.41h-.07zM41.4 59.72a.253.253 0 01-.075-.5L52 56a.258.258 0 01.276.087.259.259 0 01-.04.366.261.261 0 01-.091.047l-10.65 3.23-.095-.01zm2.23 4.055a.251.251 0 01-.288-.212.253.253 0 01.213-.288L56.92 59.22a.26.26 0 01.145.5L43.7 63.775h-.07zm.795 6.53a.252.252 0 01-.24-.4.252.252 0 01.165-.1l13.035-3.955a.26.26 0 01.145.5L44.5 70.295l-.075.01zM55.18 76.32a.253.253 0 01-.075-.5L64 73.14a.26.26 0 01.145.5l-8.875 2.69-.09-.01zm9.975-8.425a.253.253 0 01-.075-.5l1.285-.39a.26.26 0 11.145.5l-1.285.39h-.07zm-22.04-54.14a.252.252 0 01-.24-.4.252.252 0 01.165-.1l2.63-.795a.26.26 0 01.145.5l-2.63.795h-.07zM30 9.9a.253.253 0 01-.075-.5L42.5 5.59a.26.26 0 01.145.5L30.04 9.91 30 9.9z" fill="#9AB3DA"/><path d="M40.21 117.275l-9.09 2.755 1.135-1.415 9.095-2.76-1.14 1.42zm7.42 24.565l-9.09 2.755-1.98-2.06 9.095-2.755 1.975 2.06zm-13.61-32.395l-9.09 2.755-.37-4.06 9.09-2.76.37 4.065zm-7.885 12.97l9.09-2.755c1.155-.35 2.94 1.795 4.3 5.335 1.57 4.095 1.97 8.5.895 9.835l-9.09 2.755c1.075-1.34.675-5.74-.895-9.835-1.355-3.54-3.145-5.685-4.3-5.335zM39.93 135.18l-9.09 2.755a.997.997 0 00.5-.35l9.09-2.755a1.002 1.002 0 01-.5.35zm4.525 14.885l-9.09 2.76-1.66-4.33 9.09-2.755 1.66 4.325z" fill="#404B7C"/><path d="M42.795 145.74l-9.09 2.76a2.856 2.856 0 01-1.66-.345l9.09-2.755a2.855 2.855 0 001.66.34zm-14.54-37.925l-9.09 2.76 2.445-3.045 9.09-2.755-2.445 3.04z" fill="#404B7C"/><path d="M29.915 112.145l-9.09 2.76-1.66-4.33 9.09-2.76 1.66 4.33z" fill="#404B7C"/><path d="M29.5 115.065l-9.09 2.755a14.7 14.7 0 01.41-2.915l9.09-2.755a14.648 14.648 0 00-.41 2.915zm7.755 29.965l-9.09 2.755-.37-4.06 9.09-2.76.37 4.065zm4.25 4.43l-9.09 2.755-4.25-4.43 9.09-2.755 4.25 4.43zm-4.62-8.495l-9.09 2.755a34.607 34.607 0 01-1.935-3.4l9.09-2.755a34.587 34.587 0 001.935 3.4zM31.38 128.26L22.29 131c-.43-1.5-.795-3-1.08-4.465l9.09-2.755a52.802 52.802 0 001.08 4.48z" fill="#404B7C"/><path d="M30.3 123.795l-9.09 2.755-1.98-2.06 9.09-2.755 1.98 2.06z" fill="#404B7C"/><path d="M28.32 121.735l-9.09 2.755-.795-8.73 9.09-2.76.795 8.735zm5.49 17.25l-9.09 2.755-3.57-9.305 9.09-2.76 3.57 9.31z" fill="#404B7C"/><path d="M44.92 125.165l-1.14 1.415c.43 1.5.79 3 1.08 4.465l2 2.06.795 8.735-2-2.06a14.79 14.79 0 01-.41 2.915l1.66 4.33-2.445 3.045-1.66-4.33a2.856 2.856 0 01-1.66-.345l.37 4.065-4.255-4.43-.37-4.065a34.587 34.587 0 01-1.935-3.4L33.81 139l-3.57-9.305 1.14-1.415c-.43-1.5-.795-3-1.08-4.465l-2-2.06-.775-8.755 2 2.06a14.7 14.7 0 01.41-2.915l-1.66-4.33 2.445-3.045 1.66 4.33a2.832 2.832 0 011.66.345l-.37-4.065 4.255 4.43.37 4.065a34.506 34.506 0 011.935 3.4l1.14-1.415 3.55 9.305zm-4.5 9.665c1.08-1.33.68-5.74-.89-9.83s-3.715-6.325-4.79-5c-1.075 1.325-.675 5.74.895 9.835 1.57 4.095 3.715 6.325 4.79 5" fill="#F68D88"/><path d="M30.24 129.675l-9.09 2.76 1.14-1.42 9.09-2.755-1.14 1.415z" fill="#404B7C"/><path d="M21.15 115.23a.252.252 0 01-.24-.4.252.252 0 01.165-.1l5.945-1.85a.267.267 0 01.199.02.264.264 0 01.106.354.258.258 0 01-.155.126l-5.945 1.85h-.075zm-1.395 9.35a.252.252 0 01-.188-.047.252.252 0 01.113-.453l8.095-2.455c.033-.009.067-.012.101-.009a.263.263 0 01.221.187.26.26 0 01-.177.322l-8.095 2.455h-.07zm2.315 1.96a.252.252 0 01-.188-.047.252.252 0 01.113-.453l7.845-2.38a.258.258 0 01.323.178.26.26 0 01-.178.322l-7.845 2.38h-.07zm.67 4.59a.252.252 0 01-.287-.213.25.25 0 01.212-.287l8.1-2.455a.256.256 0 01.276.087.266.266 0 01.025.288.257.257 0 01-.156.125l-8.1 2.455h-.07zm-1.11 1.405a.252.252 0 01-.24-.4.252.252 0 01.165-.1l8.285-2.5a.287.287 0 01.101-.009.275.275 0 01.097.031.28.28 0 01.078.065.266.266 0 01.025.289.253.253 0 01-.066.077.243.243 0 01-.09.047l-8.285 2.5h-.07zm5.16 8.825a.252.252 0 01-.24-.4.252.252 0 01.165-.1l6.565-2a.288.288 0 01.101-.009.263.263 0 01.221.187.258.258 0 01-.087.275.243.243 0 01-.09.047l-6.565 2h-.07zm1.37 2.5a.252.252 0 01-.24-.4.252.252 0 01.165-.1l8.24-2.5a.288.288 0 01.101-.009.263.263 0 01.221.187.26.26 0 01-.177.322l-8.24 2.5h-.07zm.495 4.03a.252.252 0 01-.24-.4.252.252 0 01.165-.1l8.035-2.435a.259.259 0 01.3.376.26.26 0 01-.155.124l-8.035 2.44-.07-.005zm6.63 3.705a.252.252 0 01-.24-.4.252.252 0 01.165-.1l5.47-1.66a.263.263 0 01.323.177.26.26 0 01-.178.323l-5.47 1.66h-.07zm6.15-5.195a.252.252 0 01-.188-.047.252.252 0 01.113-.453l.79-.24c.033-.009.067-.012.101-.009a.275.275 0 01.097.031.28.28 0 01.078.065.268.268 0 01.055.192.262.262 0 01-.186.221l-.79.24h-.07zM27.85 113a.252.252 0 01-.287-.212.252.252 0 01.212-.288l1.62-.5c.033-.009.067-.012.101-.009a.263.263 0 01.221.187.258.258 0 01-.087.275.243.243 0 01-.09.047l-1.62.5h-.07zm-8.095-2.355a.252.252 0 01-.254-.12.251.251 0 01.013-.28.263.263 0 01.073-.067.256.256 0 01.093-.033l7.77-2.355c.033-.009.067-.012.101-.009a.275.275 0 01.097.031.28.28 0 01.078.065.268.268 0 01.055.192.262.262 0 01-.186.221l-7.77 2.355h-.07z" fill="#9AB3DA"/><path d="M70.525 163.57v10.96l14.285 1.645.835-12.22-15.12-.385z" fill="#404B7C"/><path d="M85.645 163.955l11.255 3.02-1.8 10.49-10.29-1.29.835-12.22z" fill="#9AB3DA"/><path d="M49.995 174.915l-1.93-.435.02-6.445 1.93.435-.02 6.445z" fill="#404B7C"/><path d="M59.31 167.405l1.93.435-11.225.63-1.93-.435 11.225-.63z" fill="#404B7C"/><path d="M45.4 174.48v-8.75l16.93-1.35v9.715l-2.955.065-.065-6.755-11.225.63-.02 6.445H45.4z" fill="#6B81BE"/><path d="M64.26 164.815l-1.93-.435v9.715l1.93.435v-9.715z" fill="#F68D88"/><path d="M20.67 217.925l-4.37-42.84 51.33-2.06-5.015 44.9H20.67z" fill="#6B81BE"/><path d="M20.16 187.04a.249.249 0 01-.25-.25.251.251 0 01.25-.25l43.34-.77a.276.276 0 01.255.245.249.249 0 01-.245.255l-43.355.77h.005z" fill="#9AB3DA"/><path d="M41.16 184.605l1.835.415-.675 6.435-1.8-.16.64-6.69z" fill="#9AB3DA"/><path d="M35.355 191.295l-.565-6.52 6.37-.17-.64 6.69h-5.165z" fill="#404B7C"/><path d="M67.63 173.025l30.56 4.31-5.89 40.59H62.615l5.015-44.9z" fill="#F68D88"/><path d="M94.715 187.715l-26.055-1.45a.24.24 0 01-.095-.025.244.244 0 01-.14-.24.238.238 0 01.08-.176.239.239 0 01.087-.049c.031-.01.065-.013.098-.01l26.055 1.45a.25.25 0 01.235.265.25.25 0 01-.265.235z" fill="#ECBDBB"/><path d="M74.63 105.865l-13 4.57a1.641 1.641 0 01-1.92-.785L50.23 92a1.131 1.131 0 01.6-1.67l13-4.57a1.645 1.645 0 011.92.785l9.475 17.66a1.13 1.13 0 01-.595 1.66z" fill="#F68D88"/><path d="M76.45 102l-13 4.57a1.641 1.641 0 01-1.92-.785l-9.475-17.66a1.13 1.13 0 01.6-1.67l13-4.57a1.645 1.645 0 011.92.785l9.475 17.66a1.129 1.129 0 01-.6 1.67z" fill="#6B81BE"/><path d="M55 90.33a.253.253 0 11-.085-.5l12.33-4.33a.25.25 0 01.165.47L55.08 90.3a.245.245 0 01-.08.03z" fill="#9AB3DA"/><path d="M67.765 90.76l-5.33 1.87a.95.95 0 01-1.11-.455.654.654 0 01.35-.965L67 89.345a.95.95 0 011.11.455.655.655 0 01-.345.96zm2.335 4.345l-8.55 3a.95.95 0 01-1.11-.455.654.654 0 01.35-.965l8.55-3a.95.95 0 011.11.455.655.655 0 01-.35.965zm2.33 4.345l-8.55 3a.952.952 0 01-1.11-.455.655.655 0 01.35-.965l8.55-3a.95.95 0 011.11.455.654.654 0 01-.35.965zm-11.17-13.9a.64.64 0 01-.34.945.93.93 0 01-1.085-.445.641.641 0 01.34-.945.93.93 0 011.085.445zm2.51-.88a.64.64 0 01-.34.945.93.93 0 01-1.085-.445.641.641 0 01.34-.945.93.93 0 011.085.445zm2.505-.88a.641.641 0 01-.34.945.93.93 0 01-1.085-.445.64.64 0 01.34-.945.93.93 0 011.085.445z" fill="#EEE"/><path d="M119.64 203.675s-4.5.545-4.5.405-.8-3.775-1.225-5.745l-.265-1.22 5.5-.545.265 3.79.225 3.315z" fill="#ECBDBB"/><path d="M119.14 196.575l.265 3.79a12.597 12.597 0 01-5.5-2.025l-.265-1.22 5.5-.545zm-5.11 5.7s-6 6.335-6.925 6.47c-.925.135-5 1-5 1l-1.63 6.65s15.655.27 23.755-1.45c-.09-4.435-1.22-9.59-3.395-13.03a12.839 12.839 0 01-6.805.36z" fill="#404B7C"/><path d="M109.235 211a.25.25 0 01-.239-.185.248.248 0 01.114-.28 23.424 23.424 0 007.83-7.33.244.244 0 01.153-.111.249.249 0 01.277.366 23.994 23.994 0 01-8 7.5.248.248 0 01-.135.04z" fill="#9AB3DA"/><path d="M105.705 208.425s-9.32-.135-7 11.265c0 0 15.88.045 26.155-1.9l-.135-3.5s-8.55 1.22-14.39 1.175c-.015.035-1.235-5.275-4.63-7.04z" fill="#F68D88"/><path d="M119.345 212.545c1.461 0 2.645-1.428 2.645-3.19s-1.184-3.19-2.645-3.19-2.645 1.428-2.645 3.19 1.184 3.19 2.645 3.19z" fill="#EEE"/><path d="M110.41 189.695s.315 4.885 1.9 8.5c1.967.258 3.958.258 5.925 0 2.805-.45 4.07-1.5 4.07-1.5l-.27-7.5a15.729 15.729 0 00-11.625.5z" fill="#9AB3DA"/><path d="M125.885 128.61s-.295 1.875-.73 4.76c-.315 2.05-.7 4.625-1.115 7.4-.9 6.12-1.915 13.245-2.5 18.11-1.22 10.18-1.355 31.5-1.355 31.5-3.395 1.9-8 .815-8 .815s-5-28.37-6.5-41.81c-1.5-13.44-2.85-43.03-2.85-43.03.405-11 21.175-9.64 22.125 5.43l.925 16.825z" fill="#6B81BE"/><path d="M125.16 133.375c-.315 2.05-.7 4.625-1.115 7.4-3.755-3.935-5.055-10.565-5.14-11.05.445 1.75 3.26 2.91 6.255 3.65z" fill="#404B7C"/><path d="M110.945 150.2c-4.5.61-4.42 13.26 2.5 13.325 6.92.065 3.46-14.13-2.5-13.325z" fill="#9AB3DA"/><path d="M118.555 189.54a.253.253 0 01-.168-.064.247.247 0 01-.082-.161c-2.415-22.335 2.55-56.855 2.6-57.2a.256.256 0 01.098-.167.255.255 0 01.354.05c.04.053.057.121.048.187-.05.345-5 34.805-2.595 57.075a.253.253 0 01-.053.183.255.255 0 01-.167.092h-.025l-.01.005z" fill="#9AB3DA"/><path d="M123.545 133.205h-.045c-.165-.025-4.07-.665-4.855-3.435-.745-2.64-1.86-15.845-1.91-16.405a.254.254 0 01.059-.183.252.252 0 01.354-.028c.05.043.082.105.087.171 0 .135 1.16 13.715 1.89 16.31.575 2.04 3.235 2.81 4.145 3-.105-2.095-.665-13.84-.36-18.575a.262.262 0 01.086-.17.262.262 0 01.179-.065.248.248 0 01.235.265c-.335 5.15.37 18.705.375 18.84a.266.266 0 01-.01.101.27.27 0 01-.05.089.244.244 0 01-.18.085zM104.64 119.33h-.135a.248.248 0 01-.166-.098.25.25 0 01.049-.353.25.25 0 01.187-.049 1.697 1.697 0 001.28-.55c.965-.915 2-3.265 1.58-9.285a.244.244 0 01.059-.183.255.255 0 01.171-.087.255.255 0 01.27.23c.455 6.245-.705 8.725-1.755 9.705-.41.411-.96.65-1.54.67z" fill="#9AB3DA"/><path d="M149.505 206.455l-4.885.14-1.17-5.105-.46-2.02 6.245-.07.145 3.755.125 3.3z" fill="#ECBDBB"/><path d="M149.38 203.155a16.993 16.993 0 01-5.93-1.655l-.46-2 6.245-.07.145 3.725zm-6.29 1.71s3.8-1.835 7.195-.44c0 0 1.9 3.395 2.545 9.33 0 0-2.375 7.5-7.57 8.075a25.713 25.713 0 01-9.33-.68s3.45-8.1 4.025-9.625c.575-1.525 3.135-6.66 3.135-6.66z" fill="#404B7C"/><path d="M145.075 215.39c-1.19 0-3.585-.14-4.325-1.235a1.501 1.501 0 010-1.535c1.245-2.67 2.645-6.81 2.66-6.85a.254.254 0 01.126-.145.25.25 0 01.349.305c0 .04-1.42 4.21-2.68 6.905a1.006 1.006 0 000 1.04c.63.935 3.24 1.045 4.375 1a39.872 39.872 0 002.725-9 .255.255 0 01.288-.213.253.253 0 01.212.288 40.609 40.609 0 01-2.825 9.25.255.255 0 01-.087.103.253.253 0 01-.128.042c-.135.035-.37.045-.69.045z" fill="#9AB3DA"/><path d="M151.186 212.715c.575-.122.785-1.429.469-2.921-.316-1.491-1.039-2.601-1.614-2.479-.576.122-.786 1.43-.47 2.921.316 1.491 1.039 2.601 1.615 2.479z" fill="#EEE"/><path d="M138.94 211.595s-7.44 4.57-3.94 13.73c0 0 9.095 1.355 12.625-.27 3.53-1.625 5.835-8.5 5.835-8.5a15.098 15.098 0 00-.56-3.275s-2 3.79-4.69 6.12c-.015 0-.515-9.095-9.27-7.805z" fill="#F68D88"/><path d="M139.12 192.5a16.535 16.535 0 0111.945-.135l.07 7.875a16.468 16.468 0 01-9.095.205l-2.92-7.945z" fill="#9AB3DA"/><path d="M150.19 193.33c-4.365 1.45-8.61.445-9.75.12-2.385-7.175-12.355-37.415-15.095-50.175-3.12-14.5-3.665-31.085-3.665-31.085 1.63-12 24.37-12.695 26.47.68 0 0 .135 45.2.27 51.58.115 5.325 1.36 23.145 1.77 28.88z" fill="#6B81BE"/><path d="M124 136.345a.25.25 0 01-.245-.21 220.024 220.024 0 01-2.34-23.94.258.258 0 01.066-.18.25.25 0 01.174-.08.25.25 0 01.25.24 219.605 219.605 0 002.335 23.875.239.239 0 01-.046.186.248.248 0 01-.164.099H124v.01zm12.065 18.465c-4.575.615-4.5 13.44 2.5 13.5 7 .06 3.54-14.31-2.5-13.5zM148 191.575a.25.25 0 01-.25-.22c-.06-.5-5.845-47.895-6.38-80.115a.243.243 0 01.07-.178.258.258 0 01.355-.009.25.25 0 01.056.081.26.26 0 01.019.096c.535 32.195 6.32 79.585 6.38 80.06a.25.25 0 01-.22.28H148v.005zm-7.79-64.435c-1.72 0-4.47-2.07-4.83-3.63-.54-2.37-.84-11.15-.85-11.5a.258.258 0 01.066-.18.25.25 0 01.174-.08c.065 0 .127.025.173.07a.247.247 0 01.077.17c0 .09.31 9.105.84 11.43.305 1.33 2.86 3.24 4.34 3.24a.253.253 0 01.132.087.253.253 0 01.006.3.245.245 0 01-.128.093z" fill="#9AB3DA"/><path d="M104.5 77.12c-2.42 1.465-4.475 2.235-6.5 2.22-3 0-5.95-1.805-9.94-5.665-6.65-6.425-13.345-19.14-13.345-19.14s-1.67-.36-2.035-1.535c-.365-1.175-1.265-5.335-1.265-5.335s-4.07-6.5-3.17-7.33c.9-.83 3.205 2.335 3.465 2.68-.325-.61-5.41-10.03-2.6-7.755 2.895 2.355 6.5 6.745 7.03 8.03.53 1.285 2.105 8 2.105 8l18.33 15.5.065.055 3.115-1.9L104.5 77.12z" fill="#ECBDBB"/><path d="M104.5 77.12c-2.15 1.305-4 2.06-5.81 2.195a36.037 36.037 0 01-.125-13.635l1.205-.735 4.73 12.175zM74.03 45.925a.249.249 0 01-.19-.09l-1.9-2.26a.252.252 0 01-.057-.183.25.25 0 01.442-.137l1.9 2.26a.25.25 0 01-.195.41z" fill="#404B7C"/><path d="M117.265 50.63c-3.86 0-19.955 13.44-19.955 13.44s2.785 10.045 7.465 15.27c0 0 9.91-6.785 16.085-15 6.175-8.215 1.225-13.71-3.595-13.71z" fill="#F68D88"/><path d="M107.425 76.67a.254.254 0 01-.185-.085c-4.535-5.14-6.885-13.59-6.91-13.675a.262.262 0 01.027-.196.26.26 0 01.354-.092.258.258 0 01.119.158c0 .085 2.345 8.42 6.8 13.5.025.037.04.081.042.126a.245.245 0 01-.119.227.251.251 0 01-.128.037z" fill="#ECBDBB"/><path d="M132.605 48.725a78.523 78.523 0 00-15.34 1.9s-11.335 21.5-16.085 56.265c0 0 5.16 7.195 21.445 9.775s28.1-1.9 28.1-1.9 2.715-43.845-.545-56.335c.005.005-8.48-8.755-17.575-9.705z" fill="#F68D88"/><path d="M107.73 76.185h-.07a.252.252 0 01-.149-.12.255.255 0 01-.03-.093.266.266 0 01.009-.097c3.44-11.82 6.935-19.88 8.71-23.63a.246.246 0 01.34-.134.251.251 0 01.131.15c.01.033.014.068.01.102a.238.238 0 01-.031.097A163.622 163.622 0 00107.97 76a.245.245 0 01-.089.133.247.247 0 01-.151.052zm26.7 37.55c-20.05 0-31.23-8.755-31.37-8.865a.25.25 0 01-.038-.353.254.254 0 01.353-.037c.165.13 16.82 13.155 46.035 7.19a.236.236 0 01.099 0 .234.234 0 01.092.038.25.25 0 01.109.162.236.236 0 010 .099.234.234 0 01-.038.092.25.25 0 01-.162.109 75.277 75.277 0 01-15.08 1.565zm-3.72-44.675a1.27 1.27 0 01-.195 0l-2.155-.38a1.115 1.115 0 01-.915-1.25c.705-5.11 2.5-14.1 2.54-14.19a.251.251 0 01.31-.195l3.53.95a.25.25 0 01.18.295c-.845 3.765-1.89 11.5-2.185 13.81a1.118 1.118 0 01-1.11.96zm-.29-15.475c-.305 1.5-1.85 9.29-2.5 13.9a.615.615 0 00.5.69l2.155.38a.612.612 0 00.639-.291.61.61 0 00.081-.234c.295-2.245 1.305-9.755 2.145-13.62l-3.02-.825z" fill="#ECBDBB"/><path d="M133.795 46.045c-1.5-.235-3.415.2-4.415.5a1 1 0 00-.715.89l-.265 4.64a6.562 6.562 0 004.885 2.785 6.635 6.635 0 005-1.695l1-4.425a.993.993 0 00-.435-1.04 13.677 13.677 0 00-5.055-1.655z" fill="#6B81BE"/><path d="M136.13 42.245l-.025 2.03-.065 4.775-.31.055a8.75 8.75 0 01-4.54-.5l.63-2.5.885-3.5 3.425-.36z" fill="#ECBDBB"/><path d="M136.13 42.245l-.025 2.03a8.36 8.36 0 01-4.285 1.79l.885-3.5 3.425-.32z" fill="#404B7C"/><path d="M134.435 49.455a9.225 9.225 0 01-3.335-.64l-.4-.165a7.856 7.856 0 01-1.4-.77.252.252 0 01-.032-.332.25.25 0 01.327-.068c.41.28.848.52 1.305.715l.385.16a8.5 8.5 0 004.405.5l.295-.05a8.44 8.44 0 002.27-.81.25.25 0 01.277.031.256.256 0 01.077.267.25.25 0 01-.124.147 8.93 8.93 0 01-2.4.855l-.31.055a8.56 8.56 0 01-1.34.105z" fill="#9AB3DA"/><path d="M142.5 92.03s-2.06 2.355-4.475 4.79c-2.605 2.615-5.625 5.32-6.93 5.255-21.31-1.155-39.06-10.25-39.06-10.25s-2.205.305-3.56-1.12-3.4-5.605-3.4-5.605a26.81 26.81 0 01-3.595-1.86c-.95-.71-1.22-1.525-.92-2.035.3-.51 1.305 0 1.39.025-2.815-2.2-1.935-3.46-1.255-3.39a5.61 5.61 0 011.7.68c-.405-1-.31-2.105.545-2.07.855.035 1.935.95 1.935.95s.105-.715 1.085-.445c.98.27 4.545 3.26 5.055 3.84.51.58 3.45 7.205 3.45 7.205l32.85.95 2.925-5 .94-1.6 11.32 9.68z" fill="#ECBDBB"/><path d="M89.62 81.53a.249.249 0 01-.195-.09c-.17-.195-2.605-2.15-4.1-3.335a.25.25 0 01.31-.39c.66.5 3.97 3.15 4.18 3.41a.25.25 0 01-.195.405zm-1.56.97a.25.25 0 01-.16-.055A48.825 48.825 0 0083 79.19a.25.25 0 11.25-.43 48.275 48.275 0 014.965 3.305.25.25 0 01-.155.435zm-1.72 1.27a.25.25 0 01-.14-.045c-.68-.46-3.7-2.03-3.73-2.045a.25.25 0 01.23-.445c.125.065 3.075 1.595 3.78 2.075a.25.25 0 01-.14.46zm56.16 8.26s-2.06 2.355-4.475 4.79c-5.185-3.04-7.21-10.145-7.8-12.83l.94-1.6 11.335 9.64z" fill="#404B7C"/><path d="M130.025 82.935s11.335-27.08 20.16-24.5c0 0 13.305 9.955-5.79 36.38a29.43 29.43 0 01-14.37-11.88z" fill="#F68D88"/><path d="M144.39 95.06h-.08a29.95 29.95 0 01-14.5-12 .244.244 0 010-.225c.395-.945 9.775-23.145 18.225-24.74a.254.254 0 01.258.393.255.255 0 01-.163.107c-7.88 1.5-17.05 22.545-17.81 24.32a29.537 29.537 0 0014 11.6 77.3 77.3 0 005.065-7.96.251.251 0 01.44.24 78 78 0 01-5.205 8.165.247.247 0 01-.23.1z" fill="#ECBDBB"/><path d="M146 90.92a.249.249 0 01-.115-.025c-8.925-4.53-12.695-11.44-12.73-11.5a.25.25 0 11.44-.235c.035.07 3.74 6.84 12.5 11.295a.244.244 0 01.103.114.25.25 0 01-.198.351zm-12.65-62.26c-5.18.465-6.56 12.4-5.835 14.255.725 1.855 8.055.95 9.23.36 1.175-.59 2.625-4.75 3.03-7.5.405-2.75-.405-7.66-6.425-7.115z" fill="#ECBDBB"/><path d="M138.15 38.91l.035-1.695s-1.665-1.595-1.155-3.5c0 0-6.855 2.815-11.5-.915a6.32 6.32 0 011.97-1.665s-4.055-3.67-3.225-8.925c.305-1.935 5.225.545 6.755 2.95 0 0-1.3-5.165 1.29-7.875.745-.78 3.935 3.36 4.785 7.23 0 0 .635-3.04 1.935-4.14.44-.375 2.07 2.58 2.105 7.06 0 0 3.395 2.07 4.58 5.53 1.185 3.46-.85 8.11-7.735 8.45l.16-2.505z" fill="#404B7C"/><path d="M138.15 38.91s2-3.835 4.345-2.5c2.345 1.335-.68 5.905-5 5.295l.655-2.795z" fill="#ECBDBB"/><path d="M138.86 40.89h-.035a.247.247 0 01-.165-.096.245.245 0 01-.05-.184c0-.03.5-3.235 3.18-3.27a.251.251 0 01.25.25.25.25 0 01-.25.25c-2.27.03-2.685 2.81-2.69 2.84a.248.248 0 01-.24.21z" fill="#404B7C"/><path d="M140.66 40.395a.25.25 0 01-.245-.21 5.084 5.084 0 00-.615-1.73.249.249 0 01.07-.337.248.248 0 01.34.052c.354.597.591 1.255.7 1.94a.247.247 0 01-.118.252.248.248 0 01-.092.033h-.04zm-9.8-.71h-.05a1.706 1.706 0 01-1.31-1.25.248.248 0 01.022-.154.247.247 0 01.108-.111c.83-.445 1.655-1.82 1.665-1.835a.247.247 0 01.252-.124.253.253 0 01.166.099.248.248 0 01.012.28 6.913 6.913 0 01-1.69 1.91 1.32 1.32 0 00.875.68.256.256 0 01.228.278.256.256 0 01-.278.227zm1.3 1.985a4.575 4.575 0 01-2.395-.62.25.25 0 01.275-.415 4.411 4.411 0 003 .455.254.254 0 11.09.5 5.51 5.51 0 01-.97.08zm1.37-6.505s.33-.955.62-1.075.195.355.195.355 2.03.13 1.74 2.13c0 .005-.585-1.29-2.555-1.41zm-2.26-.64a3.59 3.59 0 00.22-1.235c-.1-.27-.29.165-.29.165s-1.19-1.125-2.07.645c-.005.005.98-.68 2.14.425zm3.1 3.002c.147-.513-.068-1.024-.479-1.142-.412-.117-.864.202-1.011.715-.147.512.068 1.023.479 1.14.412.119.864-.201 1.011-.713z" fill="#404B7C"/><path d="M133.544 37.172a.265.265 0 10-.398-.349.265.265 0 00.398.35z" fill="#fff"/><path d="M130.497 36.262c.147-.512-.068-1.023-.479-1.141-.412-.118-.864.202-1.011.714-.147.512.068 1.023.479 1.141.411.118.864-.202 1.011-.714z" fill="#404B7C"/><path d="M129.672 35.902a.265.265 0 10-.398-.349.265.265 0 00.398.35z" fill="#fff"/></svg>