<svg width="301" height="259" fill="none" xmlns="http://www.w3.org/2000/svg"><path d="M1.436 146.187a206.996 206.996 0 0133.654-12.916c2.913-.834 5.89-1.625 8.928-1.938 3.143-.312 6.265.021 9.366.584 5.973 1.083 11.863 2.666 17.67 4.437 6.597 2.021 13.09 4.333 19.563 6.646.375.125.541-.458.167-.604-11.822-4.209-23.726-8.438-36.068-10.854-2.872-.563-5.807-1.021-8.741-.938-2.977.083-5.911.688-8.763 1.438-5.848 1.541-11.634 3.458-17.316 5.562a209.832 209.832 0 00-18.752 8.042c-.374.166-.062.708.292.541z" fill="#E8E8E8"/><path d="M60.169 133.104c8.408-2.271 17.004-3.792 25.62-5.083 4.246-.625 8.491-1.209 12.758-1.792 4.371-.583 8.762-1.125 13.195-1.167 15.838-.125 30.907 5.542 46.058 9.334 8.408 2.104 17.004 3.666 25.704 3.437.395 0 .395-.625 0-.625-15.984.417-31.178-5.187-46.454-9.083-7.472-1.896-15.068-3.438-22.79-3.688-8.45-.25-16.9 1.271-25.245 2.459-9.761 1.396-19.48 3-29.013 5.583-.374.146-.208.75.167.625zm97.506 9.75c8.429.542 16.921.104 25.246-1.375 8.304-1.458 16.525-4.646 25.079-4.021.395.021.395-.604 0-.625-8.346-.604-16.359 2.396-24.455 3.896-8.533 1.584-17.233 2.063-25.87 1.5-.395-.021-.395.604 0 .625zm-122.148-8.375c-1.811 2.479-1.145 5.875.645 8.167 2.144 2.75 5.703 3.916 8.887 5 1.873.646 3.767 1.291 5.453 2.312.832.5 1.602 1.063 2.29 1.75.478.5.936 1.021.832 1.792-.084.604-.77 1.167-1.208 1.542-1.623 1.437-3.267 2.833-4.911 4.25-1.166 1-2.581 2.125-2.727 3.77-.25 2.875 3.247 4.125 5.474 4.667 4.287 1.063 8.637 1.854 13.008 2.479 8.658 1.229 17.399 1.771 26.14 2.188 8.929.416 17.878.708 26.807 1.479 2.164.187 4.35.396 6.514.667 1.499.187 4.35.77 4.059 2.833-.25 1.708-2.706 2.771-3.934 3.75a31.51 31.51 0 00-4.267 4.062 30.943 30.943 0 00-3.288 4.563c-.708 1.208-1.436 2.729-1.041 4.167.375 1.312 1.624 1.812 2.852 1.937 2.102.208 4.287.063 6.389 0 8.825-.292 17.587-1.562 26.37-2.229 4.412-.333 8.845-.5 13.278-.313 4.1.188 8.45.5 12.363 1.771 1.581.5 3.246 1.271 4.349 2.563 1.353 1.583 1.27 3.625.167 5.333-1.062 1.646-2.727 2.896-4.225 4.146a118.754 118.754 0 01-5.432 4.229 112.345 112.345 0 01-5.266 3.604c-.333.209-.02.75.313.542 3.6-2.333 7.055-4.854 10.364-7.563 2.414-1.979 6.202-4.604 5.682-8.229-.416-2.812-3.226-4.354-5.661-5.166-3.767-1.25-7.971-1.584-11.884-1.792-8.908-.479-17.795.562-26.64 1.458-4.391.438-8.783.854-13.195 1.021-2.165.083-4.371.167-6.535.042-1.062-.063-2.248-.292-2.664-1.417-.375-1.042.125-2.271.603-3.208 1.853-3.521 4.662-6.625 7.763-9.063 1.665-1.312 6.119-3.75 3.289-6.291-.937-.834-2.29-1.167-3.518-1.334-2.206-.291-4.433-.5-6.639-.687-4.412-.396-8.845-.646-13.278-.875-8.991-.459-18.003-.709-26.994-1.417-8.804-.687-17.795-1.667-26.349-4.021-1.477-.416-3.413-1.104-4.141-2.604-1.02-2.125 1.373-3.812 2.768-5.021 1.623-1.416 3.413-2.75 4.932-4.291 1-1.021 1.27-2.167.354-3.334-2.227-2.771-6.015-3.854-9.24-4.958-3.58-1.229-7.68-2.875-9.012-6.792-.604-1.771-.5-3.666.624-5.208.25-.292-.291-.604-.52-.271z" fill="#E8E8E8"/><path d="M47.14 131.229c-1.81 2.479-1.145 5.875.645 8.167 2.144 2.75 5.703 3.916 8.887 5 1.873.646 3.767 1.291 5.453 2.312.833.5 1.603 1.063 2.29 1.75.478.5.936 1.021.832 1.792-.083.604-.77 1.167-1.207 1.542-1.624 1.437-3.268 2.833-4.912 4.25-1.165 1-2.58 2.125-2.726 3.77-.25 2.875 3.246 4.125 5.473 4.667 4.288 1.063 8.638 1.854 13.008 2.479 8.658 1.229 17.4 1.771 26.141 2.188 8.928.416 17.878.708 26.806 1.479 2.165.187 4.35.396 6.514.667 1.499.187 4.35.77 4.059 2.833-.25 1.708-2.706 2.771-3.934 3.75a31.443 31.443 0 00-4.266 4.062 31.022 31.022 0 00-3.289 4.563c-.707 1.208-1.436 2.729-1.04 4.167.374 1.312 1.623 1.812 2.851 1.937 2.102.208 4.287.063 6.39 0 8.824-.292 17.586-1.562 26.369-2.229 4.412-.333 8.845-.5 13.278-.313 4.1.188 8.45.5 12.363 1.771 1.582.5 3.247 1.271 4.35 2.563 1.353 1.583 1.269 3.625.166 5.333-1.061 1.646-2.726 2.896-4.225 4.146a118.209 118.209 0 01-5.432 4.229 111.794 111.794 0 01-5.265 3.604c-.333.209-.021.75.312.542a115.7 115.7 0 0010.365-7.563c2.414-1.979 6.202-4.604 5.681-8.229-.416-2.812-3.226-4.354-5.661-5.166-3.767-1.25-7.971-1.584-11.884-1.792-8.907-.479-17.794.562-26.64 1.458-4.391.438-8.782.854-13.195 1.021-2.164.083-4.37.167-6.535.042-1.061-.063-2.248-.292-2.664-1.417-.374-1.042.125-2.271.604-3.208 1.852-3.521 4.662-6.625 7.763-9.063 1.665-1.312 6.119-3.75 3.288-6.291-.936-.834-2.289-1.167-3.517-1.334-2.206-.291-4.433-.5-6.639-.687-4.413-.396-8.846-.646-13.279-.875-8.991-.459-18.002-.709-26.993-1.417-8.804-.687-17.795-1.667-26.35-4.021-1.477-.416-3.412-1.104-4.14-2.604-1.02-2.125 1.373-3.812 2.767-5.021 1.624-1.416 3.413-2.75 4.933-4.291.999-1.021 1.27-2.167.354-3.334-2.227-2.771-6.015-3.854-9.241-4.958-3.58-1.229-7.68-2.875-9.012-6.792-.604-1.771-.5-3.666.624-5.208.27-.271-.27-.583-.52-.271zm-35.86 95.5c14.173-4.416 29.325-7.104 44.04-4.021 4.037.855 7.95 2.125 11.696 3.855.354.166.687-.375.312-.542-13.549-6.271-28.93-6.292-43.331-3.292-4.35.896-8.658 2.084-12.904 3.396-.354.125-.187.729.187.604zm109.495-68.271c3.309.438 6.431-1.291 9.719-1.395 3.559-.125 7.056.895 10.427 1.895.396.105.541-.479.167-.604-3.309-.979-6.723-1.979-10.198-1.916-3.414.041-6.681 1.854-10.094 1.416-.417-.083-.417.542-.021.604zm17.857-1.625c5.141-1.708 10.656-1.771 15.817-.146.375.125.541-.479.167-.604a26.096 26.096 0 00-16.151.146c-.374.125-.208.729.167.604zM47.91 195.917a6.531 6.531 0 003.039-.271c.166-.063.25-.209.208-.375l-.5-2.813c-.145.125-.312.229-.457.354.54.375 1.207.188 1.602-.333.708-.917-.187-1.958.042-2.937.5-2.125 3.184.458 3.83 1.125a12.81 12.81 0 012.33 3.333c.188.354.708.042.541-.313-.999-2.02-2.726-4.458-4.911-5.375-.687-.291-1.54-.375-2.082.23-.27.291-.374.687-.374 1.083 0 .229.02.437.062.667.021.166.063.312.104.479.27.687 0 1.187-.853 1.479-.25-.167-.5.104-.458.354l.5 2.813c.062-.125.145-.25.208-.375-.895.312-1.77.416-2.706.27-.354-.041-.541.563-.125.605zm124.792-23.709c.229-.541.437-1.083.687-1.604.333-.729 1.04-1 1.79-.729.874.313 1.602.667 2.539.354.853-.291 1.519-.979 2.123-1.604.437-.437.895-.896 1.457-1.146.749-.333 2.331-.125 1.998 1.125-.105.396.499.563.603.167.271-1.042-.541-1.917-1.561-2.083-1.249-.209-2.248.812-3.059 1.625-.874.875-1.79 1.729-3.122 1.312-.562-.187-1.103-.542-1.707-.562-1.477-.063-1.831 1.791-2.289 2.854-.146.354.374.666.541.291zm74.03-30.729a870.46 870.46 0 0041.438 6.771c3.892.542 7.763 1.042 11.655 1.542.395.041.395-.584 0-.625a885.55 885.55 0 01-41.23-6.167c-3.892-.687-7.805-1.396-11.697-2.125-.395-.062-.562.521-.166.604zm-104.645 92.646c5.182 2.562 10.801.437 16.129-.375 3.143-.479 6.244-.167 9.366.229 3.184.396 6.389.792 9.574 1.208.395.042.395-.583 0-.625-2.997-.375-5.994-.75-8.97-1.125-2.956-.375-5.932-.77-8.908-.437-5.557.604-11.489 3.271-16.879.604-.354-.187-.687.354-.312.521zm-61.876-17.583c2.102 2.104 2.997 5.041 2.04 7.896-.25.77.957 1.083 1.207.333 1.082-3.271.041-6.729-2.373-9.104-.562-.584-1.436.291-.874.875z" fill="#E8E8E8"/><path d="M82.313 225.063c.729 1.791 2.394 2.916 4.246 3.25.395.062.562-.542.166-.605-1.623-.291-3.163-1.229-3.808-2.812-.146-.375-.75-.208-.604.167z" fill="#E8E8E8"/><path d="M86.621 227.708c-1.27.021-3.121-.166-4.287.479-.937.542-1.27 1.75-1.374 2.75-.27 2.417 1.624 4.188 4.017 3.75.396-.062.23-.666-.166-.604-2.144.396-3.56-1.375-3.185-3.416.188-.98.541-1.917 1.603-2.146 1.082-.229 2.29-.188 3.392-.209.396.021.396-.604 0-.604z" fill="#E8E8E8"/><path d="M84.644 234.167c-1.27.104-2.976.77-2.705 2.312.229 1.354 1.29 2.729 2.04 3.833.644.938 1.394 1.771 2.205 2.542 2.79 2.625 6.078 4.5 9.137 6.75 2.914 2.167 5.391 4.854 7.472 7.833.229.334.77.021.541-.312-2.477-3.521-5.495-6.708-9.137-9.042-3.247-2.083-6.889-4.396-9.261-7.479-.52-.667-.958-1.396-1.395-2.125-.374-.625-.895-1.333-.999-2.062-.166-1.125 1.186-1.542 2.102-1.605.396-.062.416-.687 0-.645zm-4.058-18.188c6.472 2.5 12.82 5.25 17.69 10.354 4.496 4.729 7.389 10.729 8.804 17.084.437 2 .729 4.02.916 6.041.104 1.021.166 2.063.208 3.084.021.458.021.895.042 1.354 0 .104-.021 2.083-.167 1.979-.333-.229-.645.312-.312.542 1.145.77 1.124-1.459 1.124-1.938-.021-2.062-.125-4.125-.375-6.167-.458-4-1.353-7.958-2.872-11.687-2.581-6.313-6.972-11.833-12.716-15.542-3.767-2.437-7.992-4.083-12.155-5.687-.395-.167-.562.437-.187.583z" fill="#E8E8E8"/><path d="M82.521 218.187c9.095 7.938 16.525 17.875 21 29.125a66.882 66.882 0 012.935 9.355c.083.395.687.229.603-.167-2.747-11.563-8.575-22.25-16.42-31.146a80.226 80.226 0 00-7.68-7.604c-.292-.271-.73.187-.438.437z" fill="#E8E8E8"/><path d="M82.854 224.75a35.363 35.363 0 016.827 2.062c.374.146.54-.458.166-.604a35.809 35.809 0 00-6.826-2.062c-.396-.084-.562.521-.167.604zm9.033 1.938c.583-1.48 1.415-2.813 2.456-4.021.27-.292-.167-.75-.437-.438a14.43 14.43 0 00-2.623 4.292c-.124.375.48.542.604.167zm12.529-11.625c3.268 7.5 6.847 16.291 2.477 24.125-.188.354.333.666.541.312 4.495-8.062.895-17.042-2.477-24.75-.166-.354-.707-.042-.541.313zm.562-.542c1.894.708 5.224 1.917 4.745 4.542-.062.396.521.562.604.166.562-3.041-2.914-4.437-5.162-5.312-.395-.125-.562.479-.187.604z" fill="#E8E8E8"/><path d="M110.202 219.354c1.061-.896 2.435.063 3.018 1.042.562.937.603 2.042.166 3.042-.166.375.375.687.541.312.625-1.417.458-3.021-.562-4.229-.894-1.063-2.435-1.563-3.6-.604-.312.25.146.687.437.437z" fill="#E8E8E8"/><path d="M113.365 224.271c1.728-.188 2.664 1.5 3.393 2.812a34.763 34.763 0 012.081 4.459 30.972 30.972 0 011.956 9.291c.292 5.625-1.019 11.479-5.494 15.25-.312.271.146.709.437.438 4.87-4.125 6.119-10.688 5.599-16.771a32.533 32.533 0 00-2.56-9.979c-.687-1.584-1.457-3.271-2.519-4.646-.728-.917-1.685-1.604-2.893-1.458-.395.02-.395.645 0 .604z" fill="#E8E8E8"/><path d="M105.54 215.438c4.267 5.958 7.93 12.583 9.261 19.875.646 3.541.708 7.229.021 10.77-.333 1.688-.811 3.375-1.457 4.959a22.133 22.133 0 01-1.165 2.458c-.416.75-.978 2.208-1.873 2.438-.396.104-.229.708.166.604 1.062-.271 1.582-1.542 2.082-2.417a24.4 24.4 0 001.769-3.896c.978-2.729 1.498-5.625 1.581-8.521.188-6.041-1.54-11.937-4.183-17.333-1.602-3.271-3.538-6.333-5.661-9.292-.25-.291-.791.021-.541.355zm14.818 18.875c.105-.354.209-.729.313-1.084.062-.229.166-.895.312-1.083.479-.625 2.019-.187 2.685-.104.291.021.395-.354.229-.542-.687-.708-1.478-1.687-1.103-2.729.353-1 1.956-1.458 2.58-.417l.5-.375c-.458-.562-.958-1.291-.895-2.062.083-.979 1.061-1.604 1.998-1.479.27.041.479-.209.354-.459-.979-2 .749-4.208 1.394-6.062.666-1.896.916-3.896.833-5.896-.021-.396-.646-.396-.625 0 .125 2.583-.416 5.042-1.477 7.375-.729 1.562-1.478 3.208-.666 4.896.124-.146.228-.313.353-.459-1.061-.145-2.206.313-2.643 1.376-.479 1.166.187 2.333.916 3.208.229.271.666-.083.499-.375-.666-1.125-2.351-1.146-3.226-.25-1.29 1.333-.249 3.083.791 4.146.084-.188.146-.354.229-.542-.749-.083-2.331-.583-2.976 0-.624.563-.749 2-.957 2.75-.125.396.478.563.582.167z" fill="#E8E8E8"/><path d="M129.037 212.667c1.478 3.104 2.165 6.458 2.831 9.812.687 3.584 1.394 7.188 1.415 10.855 0 5.791-2.081 11.354-5.578 15.916-2.102 2.75-4.662 5.104-7.513 7.021-.333.229-.021.771.312.542 4.954-3.334 9.054-7.959 11.385-13.5a25.496 25.496 0 001.977-8.23c.25-3.687-.354-7.374-1.041-10.999-.749-4-1.478-8.021-3.226-11.73-.208-.375-.749-.062-.562.313z" fill="#E8E8E8"/><path d="M129.641 215.167c.52 7.375-.312 14.771-2.394 21.854a63.942 63.942 0 01-4.141 10.5c-1.582 3.146-3.33 7.083-6.411 9.021-.333.208-.02.75.313.541 2.289-1.458 3.663-3.812 4.974-6.125a65.048 65.048 0 003.871-8.062 63.19 63.19 0 004.267-17.479c.333-3.396.374-6.834.124-10.25-.02-.396-.645-.396-.603 0zm93.906 35.083c-.437-6 .895-12 3.892-17.229-.146.041-.292.083-.437.104.395.187.77.396 1.165.583.25.125.5-.083.458-.354-.104-.521-.062-.958.104-1.479-.125.062-.25.146-.375.208.375.104.729.209 1.104.313.229.062.437-.167.374-.375-.291-1.229.895-2.125 1.728-2.813.791-.666 1.561-1.354 2.268-2.125a22.708 22.708 0 003.434-4.854h-.541c2.123 4.875 1.748 10.667-.874 15.292-1.394 2.458-3.434 4.187-5.495 6.041-2.122 1.896-3.767 4.084-4.745 6.771-.145.375.458.542.604.167 1.186-3.25 3.413-5.458 5.952-7.688 2.061-1.812 3.788-3.812 4.933-6.333 2.081-4.583 2.206-9.917.187-14.562-.104-.209-.437-.188-.541 0a22.244 22.244 0 01-4.558 5.937c-1.249 1.146-3.392 2.333-2.935 4.333l.375-.375c-.375-.104-.728-.208-1.103-.312a.315.315 0 00-.375.208c-.187.625-.229 1.167-.104 1.792.146-.125.313-.229.458-.354-.395-.188-.77-.396-1.165-.584a.333.333 0 00-.437.105 30.754 30.754 0 00-3.976 17.541c.021.438.646.438.625.042z" fill="#E8E8E8"/><path d="M238.927 229.917a28.949 28.949 0 003.518-4.271l-.5.062c2.123 2.459 3.018 5.834 2.456 9.042a11.906 11.906 0 01-.562 2.042c-.167.437-.354.916-.624 1.291-.271.417-.479.479-.937.646-.312.104-.604.084-.77.438-.062.125 0 .187 0 .312.166.354.271.708.312 1.104a2.37 2.37 0 01-.021.667l.313-.312c-1.395.062-1.27 1.437-1.811 2.374-.749 1.292-2.602 1.646-3.871 2.209a22.649 22.649 0 00-7.514 5.458c-.27.292.167.75.437.438 1.998-2.188 4.371-3.979 7.077-5.229 1.103-.5 2.331-.813 3.351-1.501.353-.229.666-.5.915-.854.417-.583.562-2.271 1.416-2.312.187 0 .291-.146.312-.313a4.502 4.502 0 00-.042-1.062c-.104-.521-.354-.646.167-.854.562-.23.77-.23 1.103-.792.811-1.333 1.29-2.896 1.457-4.437.333-3.188-.646-6.396-2.727-8.813-.146-.167-.395-.083-.499.063a28.454 28.454 0 01-3.414 4.145c-.249.313.188.75.458.459zm-3.475-2c-.209 1.895-1.624 3.75-2.623 5.333-1.02 1.583-2.102 3.104-3.163 4.646-2.061 3-4.038 6.041-5.349 9.458-.146.375.458.542.603.167 1.416-3.688 3.643-6.938 5.87-10.167 1.061-1.542 2.122-3.083 3.121-4.667.895-1.458 1.957-3.02 2.144-4.77.083-.396-.541-.396-.603 0z" fill="#E8E8E8"/><path d="M230.54 229.625a8.743 8.743 0 00.645 4.312c.146.375.749.209.604-.166a8.54 8.54 0 01-.604-4.146c.021-.396-.604-.396-.645 0zm-.853 9.417a6.597 6.597 0 003.787-.5c.375-.167.042-.709-.312-.542-1.04.458-2.164.625-3.288.437-.396-.041-.583.542-.187.605z" fill="#E8E8E8"/><path d="M160.402 256.708h115.197c1.207 0 1.207-1.875 0-1.875H160.402c-1.207 0-1.207 1.875 0 1.875zm77.797-3.5h29.366c1.207 0 1.207-1.875 0-1.875h-29.366c-1.207 0-1.207 1.875 0 1.875zm-90.347 3.25h7.784c1.207 0 1.207-1.875 0-1.875h-7.784c-1.207 0-1.207 1.875 0 1.875zm-10.032.25h3.268c1.207 0 1.207-1.875 0-1.875h-3.268c-1.207 0-1.207 1.875 0 1.875zm134.261-4.02h7.784c1.207 0 1.207-1.876 0-1.876h-7.784c-1.207 0-1.207 1.876 0 1.876zm12.301-.25h3.517c1.207 0 1.207-1.876 0-1.876h-3.517c-1.207 0-1.207 1.876 0 1.876zm-230.644 6.125h44.58c1.207 0 1.207-1.875 0-1.875h-44.58c-1.207 0-1.207 1.875 0 1.875zm7.305-4.229h4.995c1.207 0 1.207-1.876 0-1.876h-4.995c-1.207 0-1.207 1.876 0 1.876zM98.88 115.583a29.59 29.59 0 013.226-4.937c.749-.938-.562-2.271-1.332-1.333a32.136 32.136 0 00-3.517 5.312c-.562 1.063 1.061 2.021 1.623.958zm8.866-12.854c.562-1.417 1.436-2.625 2.518-3.667.875-.833-.437-2.145-1.332-1.333-1.352 1.25-2.331 2.771-3.017 4.479-.417 1.146 1.394 1.625 1.831.521zm7.992-11.833l3.746-4.438c.77-.916-.541-2.25-1.332-1.333l-3.746 4.438c-.749.937.562 2.27 1.332 1.333zm10.885-13.646c1.728-1.458 3.434-2.917 5.162-4.354.915-.771-.417-2.104-1.332-1.334-1.728 1.459-3.434 2.917-5.162 4.355-.916.791.416 2.104 1.332 1.333zm15.547-10.396c1.27-.458 2.539-.646 3.871-.541 1.207.083 1.207-1.792 0-1.876a10.759 10.759 0 00-4.371.605c-1.123.395-.645 2.208.5 1.812zm13.944 0c.916.438 1.645 1.167 1.978 2.146.395 1.146 2.206.646 1.81-.5-.478-1.417-1.477-2.625-2.83-3.27-.458-.21-1.02-.126-1.291.332-.249.417-.125 1.084.333 1.292z" fill="#161616"/><path d="M89.265 100.271c-.562-1.459-1.832-4.75-3.434-4.709-2.227.042-4.475 6.334-4.538 11.792-.062 5.771 2.352 10.896 3.81 13.958a42.355 42.355 0 001.81 3.438c2.83-6.396 5.64-15.917 2.352-24.479zm-2.04 5.062c-.687.625-1.686.834-2.393.167a1.73 1.73 0 01-.396-.542c-.624-.875-.583-2.166.291-2.937a1.7 1.7 0 012.082-.167c.312.167.582.396.749.708.104.188.166.396.208.605.208.75.063 1.604-.541 2.166z" fill="#F87774"/><path d="M87.579 96.146c3.267 3.208 3.788 8.396 3.746 12.75a33.334 33.334 0 01-3.372 14.146c-.166.354.354.666.541.312 2.248-4.604 3.455-9.687 3.455-14.833 0-4.417-.624-9.563-3.933-12.834-.27-.27-.729.167-.437.459zm-2.414 5.896c-.895 1.229-.52 2.895.79 3.645.354.209.666-.333.313-.541-1.041-.584-1.27-1.813-.562-2.771.229-.333-.313-.646-.541-.333z" fill="#BC5B5B"/><path d="M199.425 238.187c-.395 1.438.437 2-.104 3.646-.229.667-.708 1.646-3.309 3.646-2.31 1.771-4.412 2.896-5.037 3.208-3.351 1.75-4.683 1.875-5.453 3.417-.104.208-.874 1.771-.208 2.792.916 1.396 3.705.333 9.532-.104 5.099-.375 5.516.229 9.408-.313a34.345 34.345 0 008.033-2.146c.146-3.937-.458-6.833-1.061-8.791-.895-2.875-1.707-3.5-2.456-6.959-.291-1.354-.312-1.916-.853-2.354-1.936-1.542-7.597.708-8.492 3.958z" fill="#161616"/><path opacity=".38" d="M201.548 238.312c.333.5 2.831 4.271 1.353 7.146-.895 1.729-2.914 2.5-5.869 3.604-2.373.896-2.685.605-4.371 1.355-3.143 1.416-5.911 4.208-5.453 5.104.417.833 3.226-.625 9.636-.854 2.81-.105 3.185.125 5.37 0 2.373-.146 5.828-.646 10.032-2.355a23.835 23.835 0 00-.271-5.375c-.25-1.458-.583-3.375-1.54-5.375-.208-.437-.624-1.229-.978-2.416a18.378 18.378 0 01-.5-2.188 812.6 812.6 0 00-7.409 1.354z" fill="#6C6D6D"/><path opacity=".26" d="M201.86 238.125c1.728.458 3.726.833 5.953.958.52.021 1.04.042 1.54.042-.167-.729-.354-1.458-.521-2.187-2.31.395-4.641.791-6.972 1.187z" fill="#6C6D6D"/><path d="M229.749 163.292c-.562 3.895-3.288 5.812-8.7 13.062a126.956 126.956 0 00-10.843 17.25 56.238 56.238 0 00-4.267 15.167c-1.665 12.583 1.437 22.791 3.559 28.187-3.704.625-7.409 1.271-11.113 1.896-2.997-7.167-6.099-17.271-6.14-29.479-.042-12.917 3.288-22.688 9.428-39.354a291.946 291.946 0 0112.675-29.375c13.986 10.604 16.088 17.916 15.401 22.646z" fill="#EC615B"/><path d="M251.769 234.854c-.396 1.438.437 2-.104 3.646-.229.667-.708 1.646-3.31 3.646-2.31 1.771-4.412 2.896-5.036 3.208-3.351 1.75-4.683 1.875-5.453 3.417-.104.208-.874 1.771-.208 2.791.915 1.396 3.704.334 9.532-.104 5.099-.375 5.515.229 9.407-.312a34.406 34.406 0 008.034-2.146c.145-3.938-.458-6.833-1.062-8.792-.895-2.875-1.706-3.5-2.456-6.958-.291-1.354-.312-1.917-.853-2.354-1.935-1.542-7.596.708-8.491 3.958z" fill="#161616"/><path opacity=".38" d="M252.497 235.083c.354.417 2.747 3.354 1.811 5.813-.687 1.791-2.956 2.812-5.599 4.021-2.31 1.062-2.643.791-4.266 1.666-1.436.771-5.745 4.354-5.079 5.479.209.375.791.188 4.413-.187 2.331-.229 4.037-.417 6.077-.458 2.081-.042 2.164.104 3.975 0 2.206-.125 3.871-.417 4.35-.521a30.148 30.148 0 006.41-1.979c.187-4.334-.374-6.813-.895-8.271-1.124-3.125-1.353-3.584-1.353-3.584-.457-.979-.832-1.604-1.019-2.687-.063-.417-.104-.813-.25-1.542a10.647 10.647 0 00-.458-1.604c-.312.563-1.311 2.271-3.455 3.271a7.568 7.568 0 01-4.662.583z" fill="#6C6D6D"/><path opacity=".38" d="M253.496 235.146c.291.25 2.872 2.354 5.828 1.521a5.71 5.71 0 002.206-1.25c-.312-1.375-.645-2.73-.958-4.105-2.351 1.271-4.724 2.563-7.076 3.834z" fill="#6C6D6D"/><path d="M236.492 145.604a56.02 56.02 0 014.412 6.521c5.058 8.667 6.327 16.083 7.909 24.208 2.019 10.375 4.6 20.604 6.744 30.959a1984.267 1984.267 0 005.119 23.979c-.187.354-2.102 3.604-5.806 3.958-1.978.188-3.518-.562-4.184-.937-5.536-9.896-8.991-18.396-11.155-24.438-5.703-15.875-6.993-27.521-16.733-42.833a85.879 85.879 0 00-4.184-6.042c-3.788-4.937-3.122-12 1.395-16.062 4.641-4.23 12.029-3.98 16.483.687z" fill="#EC615B"/><path d="M228.646 152.5c.874 4.687 2.976 10.167 8.367 10.875.395.042.395-.583 0-.625-5.079-.667-6.952-6.083-7.764-10.417-.062-.396-.666-.229-.603.167zm8.637 3.667a357.47 357.47 0 0116.047 55.729 361.832 361.832 0 012.892 16.333c.063.396.666.229.604-.167-2.935-19.125-7.409-38.02-13.424-56.416A349.618 349.618 0 00237.887 156c-.146-.375-.75-.208-.604.167zm-16.483 7.937c2.247 3.604 4.474 7.209 6.722 10.813.208.333.749.021.541-.313-2.248-3.604-4.474-7.208-6.722-10.812-.229-.334-.77-.021-.541.312z" fill="#842B08"/><path opacity=".41" d="M225.149 149.562a85.287 85.287 0 0113.05 20.209c2.31 5.021 4.142 11.708 7.805 25.042 3.975 14.499 5.89 23.708 6.451 26.541a391.187 391.187 0 012.519 13.813 6.867 6.867 0 002.039-.563c2.102-.937 3.185-2.625 3.601-3.375a492.197 492.197 0 00-1.02-4.896 1294.23 1294.23 0 00-1.956-9.145c-.541-2.48-1.291-6.021-2.206-10.375-.479-2.375-.916-4.292-1.207-5.605-.562-2.458-.916-3.729-1.457-6.333-.333-1.563-.479-2.396-.687-3.437-.812-4.167-1.187-5.063-2.081-9.105-1.104-5.041-1.978-10.375-2.852-14.125a33.657 33.657 0 00-.395-1.583 48.784 48.784 0 00-1.228-4.062c-1.707-5.021-3.559-8.334-5.515-11.751-2.935-5.145-3.83-5.583-4.267-5.77-4.183-1.709-9.719 3.645-10.594 4.52z" fill="#6C6D6D"/><path opacity=".39" d="M220.883 163.771c-7.826 9.416-12.508 18.229-15.297 24.458-4.267 9.5-11.343 25.313-7.41 43.604a52.082 52.082 0 001.915 6.646c3.122-.521 6.265-1.042 9.387-1.562a53.433 53.433 0 01-2.768-8.792c-.625-2.833-2.207-10.896-.562-20.958.728-4.521 1.873-7.834 2.268-9 1.249-3.563 2.623-6.146 3.684-8.125.541-1.042 1.873-3.459 4.683-7.625 2.019-3 4.807-6.896 8.429-11.313-1.457-2.458-2.893-4.896-4.329-7.333z" fill="#6C6D6D"/><path opacity=".48" d="M222.714 167a81.016 81.016 0 00-9.011 14.437 81.012 81.012 0 00-7.098 22.459c.666-2.729 1.77-6.521 3.747-10.771 1.769-3.813 3.475-6.417 5.744-9.854a140.769 140.769 0 019.095-12.188 263.542 263.542 0 00-2.477-4.083zm24.101.167a1241.9 1241.9 0 016.348 37.229 1275.18 1275.18 0 014.246 29.896 6.456 6.456 0 001.249-.75 6.864 6.864 0 001.998-2.417c-4.6-21.333-9.22-42.646-13.841-63.958z" fill="#6C6D6D"/><path d="M170.995 80.73c-.145.083-1.124.583-1.228 1.52-.104.813.5 1.438.854 1.813 1.873 1.937 5.557 1.458 6.368 1.333.625.187 1.582.52 2.664 1.042 3.247 1.562 5.224 3.666 5.994 4.479 2.352 2.437 5.786 4.791 12.654 9.521a118.556 118.556 0 009.137 5.708c.728 0 1.936-.083 3.226-.667.499-.229 3.809-1.729 4.079-4.958.229-2.542-1.602-4.375-1.894-4.667a203.739 203.739 0 01-7.888-3.333c-12.508-5.563-20.063-10.25-21.77-11.333-1.248-.792-2.268-1.459-2.955-1.896-.479-.834-1.623-2.563-3.809-3.709-.416-.208-3.538-1.791-7.034-.666a7.765 7.765 0 00-1.52.666c-1.831-.229-4.058-.395-4.183.105-.083.333.791.812 1.998 1.52a74.938 74.938 0 015.307 3.521z" fill="#fff"/><path d="M177.093 85.146c-1.519.167-3.059.083-4.537-.354-.687-.209-1.436-.459-1.935-.98-1.062-1.083-.208-2.166.749-2.833.333-.229.021-.77-.312-.541-.687.479-1.415 1-1.561 1.875-.146.833.291 1.625.936 2.145 1.707 1.417 4.579 1.542 6.66 1.313.396-.042.396-.667 0-.625z" fill="#161616"/><path d="M170.787 80.333a93.858 93.858 0 00-3.517-2.354 67.291 67.291 0 00-1.624-1.02c-.333-.209-.665-.397-.998-.605-.209-.125-.937-.396-.979-.583-.041.125-.104.229-.145.354.978-.73 3.059-.23 4.1.02 1.186.293 2.539.647 3.579 1.313.333.209.646-.333.313-.541-1.27-.813-2.997-1.25-4.454-1.542-1.083-.208-2.893-.5-3.851.208-.104.084-.187.209-.145.355.125.416.603.562.936.77.729.417 1.436.855 2.144 1.292a86.236 86.236 0 014.329 2.875c.333.23.645-.312.312-.542z" fill="#161616"/><path d="M167.978 76.02c2.081-1.332 4.724-1.645 7.034-.645 2.144.917 3.684 2.75 5.099 4.542.25.312.687-.125.437-.438-1.581-1.979-3.33-4-5.786-4.875-2.351-.833-4.995-.458-7.076.896-.354.188-.041.73.292.52z" fill="#161616"/><path d="M180.194 79.813a247.49 247.49 0 0032.343 16.52c.375.146.541-.458.167-.604a246.595 246.595 0 01-32.197-16.458c-.354-.188-.666.333-.313.542zm-3.454 5.729c2.997.75 5.307 2.812 7.617 4.75 2.373 1.979 4.766 3.937 7.222 5.833 4.995 3.854 10.24 7.417 15.838 10.354.354.188.666-.354.312-.541-5.744-3.021-11.113-6.688-16.254-10.667-2.56-1.98-5.037-4.042-7.513-6.104-2.123-1.771-4.329-3.542-7.056-4.209-.395-.125-.562.48-.166.584z" fill="#161616"/><path d="M212.35 96.396c2.539 1.062 2.456 4.229 1.082 6.208-1.186 1.709-3.934 3.854-6.119 3.063-.375-.146-.541.458-.166.604 2.643.958 5.952-1.708 7.159-3.896 1.29-2.333.833-5.458-1.811-6.562-.353-.188-.52.416-.145.583z" fill="#161616"/><path d="M215.035 95.709c-.5.104-1.228.333-1.998.791-1.374.854-2.082 2.021-2.602 3-2.352 4.417-2.997 7.792-2.997 7.792-.874 4.583-.354 8.291 0 10.687.624 4.229 1.29 3.938 1.998 8.584.312 2.041.708 5.458.499 9.687a50.726 50.726 0 01-.894 7.292 17.055 17.055 0 002.206 2.104c5.203 4.104 11.488 3.792 13.486 3.687 5.682-.291 9.845-2.645 11.884-4 .208-.291.396-.604.604-.895a25.573 25.573 0 01-1.207-4.105c-.854-4.187-.375-7.104 0-12.083.166-2.292.374-5.667.395-9.896h-1.499c-.374.021-3.767.084-5.889-2.604-1.832-2.312-1.395-5.021-1.291-5.604.52-3.271 3.268-6 6.993-7.104a60.016 60.016 0 01-4.995-3 57.885 57.885 0 01-5.182-3.896c-1.686.417-3.06.813-3.996 1.104-1.977.604-2.727.917-3.601.604-1.082-.354-1.644-1.416-1.914-2.145z" fill="#fff"/><path d="M215.347 95.667c-2.102-.104-3.684 1.396-4.787 3.041-1.436 2.125-2.414 4.625-3.08 7.084-1.457 5.458-.812 10.791.437 16.208.666 2.833 1.373 5.667 1.665 8.583.291 3.125.125 6.292-.313 9.396-.145 1.104-.624 2.417-.52 3.521.104.979 1.124 1.604 1.852 2.146 2.019 1.5 4.329 2.562 6.765 3.208 5.848 1.542 11.988.479 17.44-1.916.375-.167.042-.709-.312-.542-4.766 2.083-10.115 3.167-15.297 2.229-2.31-.417-4.558-1.208-6.577-2.396-.895-.521-1.977-1.146-2.685-1.916-.978-1.084-.187-3.271 0-4.625.666-5.042.396-9.896-.728-14.855-1.124-5.041-2.456-9.979-1.852-15.187a25.807 25.807 0 012.393-8.229c1.062-2.209 2.727-5.271 5.578-5.125.437.02.437-.604.021-.625zm14.235 4.791c1.624.855 3.226 1.771 4.829 2.709.354.208.666-.334.312-.542a121.284 121.284 0 00-4.828-2.708c-.354-.188-.666.354-.313.541z" fill="#161616"/><path d="M234.869 102.625c-2.851 1.229-5.058 2.729-6.494 5.563-1.124 2.25-1.977 5.208.084 7.208.291.271.728-.167.437-.438-2.123-2.041-.729-5.25.52-7.375 1.311-2.229 3.455-3.416 5.765-4.416.375-.167.042-.709-.312-.542zm1.145 16.25c.499 4.458-.458 8.833-.729 13.271a35.743 35.743 0 001.499 12.5c.124.375.728.229.603-.167a35.56 35.56 0 01-1.457-12.729c.292-4.292 1.166-8.562.687-12.875-.021-.396-.645-.396-.603 0z" fill="#161616"/><path d="M236.825 144.479a7.45 7.45 0 01-2.289 1.979c-.354.188-.042.73.312.542a8.258 8.258 0 002.518-2.208c.25-.334-.312-.646-.541-.313zm-8.512-29.187a10.068 10.068 0 007.992 3.562c.395 0 .395-.625 0-.625a9.554 9.554 0 01-7.555-3.396c-.271-.291-.708.146-.437.459z" fill="#161616"/><path opacity=".15" d="M219.051 101.438c3.892 7.75 5.474 14.583 6.182 19.187.832 5.438.791 9.771.749 12.25a81.214 81.214 0 01-1.977 16.354c.749-.041 1.477-.083 2.227-.125a15.51 15.51 0 006.805-1.604c1.79-.896 3.101-2 3.955-2.854-.833-3-1.124-5.438-1.228-7.063-.292-4.145.333-6.416.624-12.375.146-2.916.146-5.25.125-6.687-1.165-.021-3.101-.229-5.078-1.354-1.124-.646-2.976-1.729-3.58-3.834-.375-1.312-.104-2.437.125-3.333.125-.5 1.02-3.875 4.329-5.687a8.672 8.672 0 012.976-1L223.047 97a15.173 15.173 0 01-1.477 2.104c-.895 1-1.769 1.771-2.519 2.334z" fill="#6C6D6D"/><path opacity=".29" d="M229.853 116.333a63.663 63.663 0 01.791 17.292 63.028 63.028 0 01-3.309 15.188 17 17 0 005.577-1.25 16.927 16.927 0 004.475-2.75 27.077 27.077 0 01-1.332-4.875c-.146-.875-.395-2.48-.395-5.188-.021-4.5.603-5.833.791-10.312.062-1.292.083-3.313-.084-5.813a8.035 8.035 0 01-3.309-.312 7.694 7.694 0 01-3.205-1.98z" fill="#6C6D6D"/><path d="M235.66 103.146c-2.019.083-3.476 1.312-4.392 2.041-.728.605-2.789 2.313-3.309 5.271-.146.834-.458 2.604.479 4.292 1.436 2.542 4.745 3.146 5.64 3.312 1.332.25 1.478-.02 2.144.292.749.333 2.06 1.313 2.83 6.729.396 2.771.916 6.709-.291 11.896-1.062 4.583-1.936 5.938-2.831 6.625-.978.771-2.601 1.521-2.726 1.563-1.644.75-1.998.583-3.517 1.27-1.166.521-2.519 1.105-3.601 2.438-.999 1.208-1.394 2.542-1.561 3.417l4.683-.688c.25.438.603 1.104.978 1.958.791 1.813 1.082 3.25 1.166 3.605.333 1.458 1.498 3.791 5.057 7.604-.416-2.604-.853-5.209-1.27-7.792a15.319 15.319 0 002.04 3.417 15.791 15.791 0 004.183 3.708c-.187-2.604-.395-5.208-.582-7.792 1.04 1.459 2.081 2.917 3.121 4.396a23.705 23.705 0 00-1.061-4.687 23.99 23.99 0 00-4.1-7.417 20.55 20.55 0 002.331-2.042c1.311-1.333 2.331-2.729 3.309-4.395 2.165-3.646 3.85-6.48 4.766-10.625.292-1.334 1.54-7.459-.874-14.73-.645-1.958-2.518-6.833-6.91-10.833-2.913-2.687-4.703-2.875-5.702-2.833z" fill="#fff"/><path d="M235.389 102.896c3.684 1.458 6.952 3.854 9.241 7.104 2.144 3.062 3.226 6.604 4.1 10.208 1.894 7.75-.333 15.459-4.745 21.917a45.984 45.984 0 01-5.058 6.125c-.27.292.167.729.437.437 4.163-4.291 7.722-9.333 9.512-15.104 1.29-4.125 1.54-8.5.624-12.729-.791-3.625-1.873-7.292-3.871-10.437-2.394-3.771-5.973-6.48-10.094-8.125-.354-.146-.52.458-.146.604z" fill="#161616"/><path d="M234.099 118.271c4.329-.042 4.683 6.937 4.787 9.958.104 3.354.041 6.813-.874 10.042-.458 1.604-1.124 3.146-2.123 4.5-.541.75-1.207 1.541-2.019 2.021-.687.416-1.436.52-2.227.687-2.539.542-4.808 1.979-6.202 4.188-.333.541-1.54 2.062-.999 2.77.166.23.416.23.687.23.811-.042 1.644-.334 2.435-.5.395-.084.229-.688-.167-.605-.645.146-1.478.48-2.144.459-.395-.021-.333.062-.187-.354.146-.459.437-.896.687-1.313.937-1.583 2.185-2.771 3.871-3.542.978-.458 1.956-.645 2.997-.895 1.519-.355 2.622-1.292 3.58-2.521 1.811-2.334 2.664-5.25 3.059-8.146.437-3.313.458-6.792.042-10.104-.375-2.917-1.415-7.563-5.182-7.521-.417.042-.417.667-.021.646z" fill="#161616"/><path d="M227.168 152.187c.333-.062.708-.166 1.062-.187.437-.146.874-.042 1.269.312.042.125.063.23.104.355.312.625.417 1.458.625 2.125a34.832 34.832 0 001.477 3.791c1.124 2.438 2.602 4.709 4.537 6.584.25.229.562 0 .521-.313l-1.124-7.25c-.063-.396-.666-.229-.604.167l1.124 7.25c.167-.104.354-.209.521-.313-2.436-2.333-4.08-5.291-5.266-8.416a54.592 54.592 0 01-.812-2.375c-.208-.667-.291-1.48-.603-2.084-.562-1.062-2.061-.416-2.976-.25-.417.063-.25.667.145.604zm11.468-3.395c1.602 1.791 2.581 3.833 3.455 6.041.916 2.313 1.769 4.646 1.977 7.125.208-.021.416-.062.604-.083a19.51 19.51 0 00-3.851-5.979c-.27-.292-.707.146-.437.437a18.794 18.794 0 013.684 5.709c.125.291.645.312.604-.084-.229-2.687-1.145-5.166-2.144-7.646-.874-2.187-1.915-4.187-3.476-5.958-.229-.312-.687.125-.416.438z" fill="#161616"/><path d="M234.723 157.312a25.005 25.005 0 006.66 7.209c.208.146.458-.063.479-.271.062-2.646-.312-5.25-.958-7.792-.104-.396-.707-.229-.603.167.624 2.5.999 5.042.936 7.625.167-.083.313-.188.479-.271a23.932 23.932 0 01-6.431-6.979c-.229-.333-.77-.021-.562.312z" fill="#161616"/><path d="M237.033 155.771a42.168 42.168 0 013.892 7.75c.146.375.75.208.604-.167a41.964 41.964 0 00-3.955-7.917c-.228-.312-.77 0-.541.334z" fill="#161616"/><path opacity=".33" d="M231.039 105.479c2.206.958 8.346 3.979 12.051 10.938 4.121 7.791 3.663 18.02-.333 23.229-1.644 2.125-4.392 5.187-5.474 6.271-1.956 1.979-2.726 2.479-3.517 2.833-1.79.833-2.685.5-5.099 1.5-2.061.854-3.268 1.854-3.205 1.937.041.105 1.519-.604 2.955-.562 0 0 1.082.021 1.394.521a.306.306 0 01.042.062c.062.125.062.292.271 1.104.145.605.312 1.105.395 1.417a28.341 28.341 0 002.435 5.521 27.412 27.412 0 003.58 4.917c-.333-2.438-.645-4.875-.978-7.334a21.894 21.894 0 003.371 4.209 21.82 21.82 0 002.685 2.25c-.25-2.709-.52-5.417-.77-8.146a32.38 32.38 0 012.331 3.416c.458.75.833 1.48 1.186 2.167a26.975 26.975 0 00-2.164-7.792c-.729-1.645-1.561-3.02-2.331-4.166-.083-.563-.167-1.104-.229-1.667.874-.875 2.019-2.146 3.267-3.75 1.457-1.875 4.225-5.479 5.766-10.292 2.892-8.979-.146-17-.958-19.041-.874-2.209-2.164-5.354-5.286-8.271a19.744 19.744 0 00-6.827-4.146c-.707.229-1.623.604-2.601 1.25a10.632 10.632 0 00-1.957 1.625z" fill="#6C6D6D"/><path opacity=".31" d="M244.11 141.958c-.313-.271-3.913 3.438-5.183 4.771-2.872 3.042-3.142 3.875-3.267 4.333-.541 2.021.208 3.771 1.457 6.584 1.061 2.396 3.309 6.604 4.162 6.291.396-.145.749-1.312-.708-8 2.602 4.813 3.414 5.75 3.663 5.625.479-.208-.686-4.416-2.351-8.041a36.211 36.211 0 00-2.623-4.729c4.267-5.375 5.016-6.688 4.85-6.834z" fill="#6C6D6D"/><path d="M204.337 74.48c-.208.52-.125.582-.624 2.187a27.91 27.91 0 01-.542 1.604c.021 2.083-.312 3.708-.645 4.833-.312 1.063-.811 2.334-.478 2.542.333.208 1.061-.917 1.873-.73.541.126.811.792 1.082 1.48 0 0 .853 2.062 1.748 3.77.562 1.084 1.52 2.897 3.413 3.563 1.249.438 2.498.209 3.226.104a8.077 8.077 0 002.248-.729c-.791 1.271-.77 2.792 0 3.771.937 1.146 2.602 1 2.997.958 1.041-.104 1.811-.583 2.165-.833a11.047 11.047 0 01-.812-4.02c-.021-3.584 1.79-6.105 2.497-6.98.396-.083 1.208-.292 1.936-.958.166-.146 1.54-1.438 1.29-3.292-.124-.98-.77-2.542-2.164-2.813-1.02-.187-1.852.396-2.081.563l-.562-1.375a12.674 12.674 0 01-4.246-.813c-4.704-1.75-6.951-5.75-7.617-7.062a8.32 8.32 0 00-1.853.958c-.645.417-2.164 1.459-2.851 3.271z" fill="#fff"/><path d="M203.525 75.458c-.416 3.459-1.103 6.875-1.998 10.25a.305.305 0 00.375.375c.936-.25 1.852-.5 2.789-.729-.125-.062-.25-.146-.375-.208a16.28 16.28 0 002.56 5.833c.52.75 1.103 1.459 1.727 2.125.542.584.958 1.188 1.77 1.23 3.663.187 7.117-1.459 9.511-4.188.27-.292-.167-.75-.437-.438-2.227 2.542-5.349 4.105-8.762 4.021-1.374-.041-2.748-2.291-3.434-3.312a15.963 15.963 0 01-2.31-5.438c-.042-.166-.229-.25-.375-.208-.937.25-1.852.5-2.789.729l.375.375a73.718 73.718 0 002.018-10.417c.021-.395-.603-.395-.645 0z" fill="#161616"/><path d="M206.439 76.209c-.021 1.25.167 2.458.562 3.624.125.334.583.271.604-.083a9.213 9.213 0 00-.438-3.833c-.104-.354-.582-.271-.603.083a6.539 6.539 0 00.104 1.917c.083.396.666.229.604-.167a7.043 7.043 0 01-.084-1.75c-.208.021-.416.063-.603.084a9.162 9.162 0 01.416 3.666c.208-.02.416-.062.604-.083a9.336 9.336 0 01-.542-3.459c0-.395-.624-.395-.624 0zm-4.579 2.645l.042.042c-.021-.104-.063-.208-.083-.313.02-.02.041-.062.062-.083h.312c-.208-.125-.187-.812-.187-.98a3.31 3.31 0 01.208-1h-.603a7.12 7.12 0 01.083 2.813h.603a4.338 4.338 0 01-.166-2.666c.104-.396-.5-.563-.604-.167a5.092 5.092 0 00.167 3c.104.25.541.333.603 0a8.413 8.413 0 00-.083-3.146c-.083-.333-.499-.27-.603 0-.271.73-.375 1.625-.042 2.354.166.375.708.521.832.021a.35.35 0 00-.083-.312l-.041-.042c-.271-.23-.729.208-.417.48zm3.705 9.25c.645.146 1.332.23 1.956-.083.604-.292 1.166-.834 1.686-1.25.312-.25-.125-.688-.437-.438-.458.355-.895.771-1.394 1.063-.5.291-1.083.229-1.624.104-.416-.083-.583.52-.187.604zm2.976-6.291h-.062c-.063-.021-.104-.021-.167-.042-.021-.021-.041-.021-.041-.042-.021-.041-.063-.083-.084-.146v-.02c-.021-.084.021-.167.125-.25.063-.021.104-.021.167-.042h.062c-.146-.063-.354.062-.375.208-.041.188.063.313.209.375.229.104.437-.125.437-.354 0-.23-.208-.438-.437-.354-.167.062-.271.208-.209.375.042.229.229.354.375.291zm1.623-1.583c.396 0 .396-.626 0-.626-.395 0-.395.625 0 .625zm.042 1.75c.042.04.083.083.125.124a.302.302 0 00.437 0 .302.302 0 000-.437l-.125-.125a.302.302 0 00-.437 0c-.104.104-.104.312 0 .437zm-5.994-6.647a8.598 8.598 0 015.515-5.125c.375-.125.229-.729-.166-.604a9.301 9.301 0 00-5.952 5.563c-.146.375.457.541.603.166z" fill="#161616"/><path d="M209.124 70c1.582 5.52 6.993 8.48 12.487 8.417.396 0 .396-.625 0-.625-5.203.041-10.385-2.709-11.884-7.959-.124-.375-.728-.208-.603.167zm6.056 23.813a24.931 24.931 0 01-.645 7.125c-.021.125.021.291.146.354a5.29 5.29 0 007.18-2.25c.187-.354-.354-.667-.541-.313-1.186 2.313-4.017 3.25-6.327 2.021.042.125.104.229.146.354.562-2.395.791-4.833.666-7.27-.021-.417-.646-.417-.625-.021z" fill="#161616"/><path d="M209.249 70.48c-.708.29-1.665.75-2.602 1.562-1.769 1.52-2.497 3.333-2.789 4.25-.603-.146-1.581-.48-2.289-1.354-1.457-1.813-.874-4.896.624-6.542 1.395-1.542 2.56-.625 5.183-2.5 1.665-1.188 1.602-1.854 3.454-3.063.895-.583 2.144-1.416 3.83-1.708 2.539-.437 4.662.583 7.763 2.063 1.811.875 1.415.875 3.934 2.187 4.225 2.188 4.807 1.896 6.576 3.292 1.832 1.437 2.852 3.062 3.726 4.458 1.228 1.98 1.249 2.667 2.56 5.52 1.998 4.293 2.601 4.084 3.829 7.063 1.041 2.521 2.081 5 1.561 8-.77 4.417-4.391 6.917-5.078 7.375-4.6 3.042-9.678 1.73-11.509 1.25-2.165-.562-5.141-1.333-6.952-3.937-2.31-3.333-1.831-8.438 1.041-12.875.416.042 1.145.062 1.873-.313 1.644-.854 2.477-3.291 1.561-4.979-.104-.187-.916-1.646-2.498-1.666-1.561-.021-2.455 1.375-2.497 1.458-1.644-.375-5.536-1.52-8.616-5.083-1.374-1.584-2.186-3.209-2.685-4.459z" fill="#5222D0"/><path d="M222.111 87.125a1.187 1.187 0 10-.002-2.374 1.187 1.187 0 00.002 2.374z" fill="#F8F263"/><path d="M215.263 93.23c0 .25.021.5.042.75.021.27.063.54.083.79.75-.25 1.874-.75 2.831-1.812 1.041-1.187 1.519-2.708 1.332-2.833-.167-.104-.666.75-1.852 1.688-.937.729-1.832 1.145-2.436 1.416z" fill="#161616" stroke="#161616" stroke-miterlimit="10"/><path opacity=".19" d="M223.027 63.52a59.754 59.754 0 016.347 8.542c2.644 4.292 4.642 7.563 5.391 12.209.458 2.896 1.582 9.958-2.893 14.062-2.581 2.355-5.869 2.709-7.513 2.75.853.396 2.102.896 3.663 1.271 2.164.521 5.515 1.313 9.115-.041.708-.271 5.391-2.125 6.993-6.896 1.062-3.167.25-6.084-.083-7.25-.583-2.063-1.623-3.834-2.164-4.771-.916-1.542-1.873-2.792-2.727-4.688a29.161 29.161 0 01-.853-2.041c-.437-1.146-.375-1.209-.666-1.813-.312-.687-.52-.875-1.415-2.291-.854-1.355-.666-1.167-.979-1.605-1.186-1.645-2.497-2.479-2.809-2.666-.229-.146-.666-.355-1.561-.792a73.786 73.786 0 00-2.581-1.188c-1.02-.395-2.643-1.208-5.265-2.791z" fill="#444647"/><path opacity=".53" d="M209.186 70.25c2.352 2.938 4.641 4.98 6.369 6.333 2.893 2.271 4.558 2.875 5.973 2.438.437-.125.77-.334.978-.48-.478.188-1.103.5-1.665 1.105-.104.125-.208.25-.291.375a16.956 16.956 0 01-1.873-.542c-4.392-1.583-6.827-4.646-7.264-5.208a15.221 15.221 0 01-2.227-4.021z" fill="#125689"/><path opacity=".15" d="M240.884 82.042a27.54 27.54 0 01.395 5.895c-.062 1.334-.187 4.376-1.186 6.813-2.227 5.417-8.637 7.437-10.261 7.896.645.125 7.035 1.271 11.343-2.896 2.456-2.375 3.184-5.438 3.226-5.625.395-1.708.25-3.083.167-3.854-.417-3.896-2.456-6.771-3.684-8.23z" fill="#252626"/><path d="M58.175 22.533l.448-11.819 18.253 32.18 5.936-19.165.806 43.661-39.159-5.364 18.947-5.682-18.252-32.18 13.02-1.631z" fill="#FFF325" stroke="#FFF325"/></svg>