<svg width="185" height="170" fill="none" xmlns="http://www.w3.org/2000/svg"><path d="M40.544 167.37h8.377c.298 0 .298-.47 0-.47h-8.377c-.298 0-.298.47 0 .47zm36.819-.282h6.212c.298 0 .298-.47 0-.47h-6.212c-.314 0-.314.47 0 .47zm9.224-.282h3.608c.298 0 .298-.47 0-.47h-3.608c-.298 0-.298.47 0 .47z" fill="#161616"/><path d="M71.81 148.022H42.018a1.887 1.887 0 01-1.883-1.88v-.972c0-1.034.847-1.88 1.883-1.88h29.79c1.036 0 1.883.846 1.883 1.88v.972c0 1.034-.847 1.88-1.883 1.88zm2.917 4.982h-29.79a1.887 1.887 0 01-1.883-1.88v-.972c0-1.034.847-1.88 1.883-1.88h29.79c1.036 0 1.883.846 1.883 1.88v.972c0 1.034-.847 1.88-1.883 1.88zm-6.871 4.856h-29.79a1.887 1.887 0 01-1.883-1.88v-.971c0-1.034.847-1.88 1.883-1.88h29.79c1.036 0 1.883.846 1.883 1.88v.971c0 1.034-.847 1.88-1.883 1.88z" stroke="#161616" stroke-width="2" stroke-miterlimit="10"/><path d="M71.496 162.435H41.72a1.887 1.887 0 01-1.883-1.88v-.971c0-1.034.847-1.88 1.883-1.88h29.79c1.036 0 1.883.846 1.883 1.88v.971a1.91 1.91 0 01-1.898 1.88zm3.231 4.731h-29.79a1.887 1.887 0 01-1.883-1.88v-.971c0-1.034.847-1.88 1.883-1.88h29.79c1.036 0 1.883.846 1.883 1.88v.971c0 1.034-.847 1.88-1.883 1.88z" stroke="#161616" stroke-width="2" stroke-miterlimit="10"/><path d="M63.103 145.327v1.943c0 .219.36.235.36 0v-1.943c-.015-.235-.36-.235-.36 0zm1.051.345v1.77c0 .219.36.235.36 0v-1.77c0-.22-.36-.22-.36 0zm3.546-.972v2.476c0 .219.36.235.36 0V144.7c0-.219-.36-.219-.36 0zm.705 1.41v.972c0 .219.361.235.361 0v-.972c0-.219-.36-.219-.36 0zm-24.347-1.472v2.741c0 .22.361.235.361 0v-2.741c-.016-.235-.36-.235-.36 0zm-1.458.689v1.614c0 .219.36.235.36 0v-1.614c0-.219-.36-.219-.36 0zm5.866-.58v2.194c0 .219.361.235.361 0v-2.194c-.015-.235-.36-.235-.36 0zm-1.616 1.285v1.457c0 .22.361.235.361 0v-1.457c-.015-.235-.36-.235-.36 0zm8.22-1.238v2.852c0 .219.362.235.362 0v-2.852c0-.219-.361-.219-.361 0zm1.083 1.081v1.457c0 .22.361.235.361 0v-1.457c-.016-.235-.36-.235-.36 0zm1.6-1.3v2.851c0 .22.361.235.361 0v-2.851c0-.219-.36-.219-.36 0zm-10.479 4.778v3.384c0 .22.361.235.361 0v-3.384c0-.219-.36-.219-.36 0zm1.946 1.128v2.413c0 .219.36.235.36 0v-2.413c-.015-.219-.36-.219-.36 0zm6.29-.642v2.413c0 .219.36.235.36 0v-2.413c-.015-.219-.36-.219-.36 0zm4.079-.862v3.917c0 .219.36.235.36 0v-3.917c-.015-.219-.36-.219-.36 0zm3.702 1.567v1.285c0 .219.36.235.36 0v-1.285c0-.235-.36-.235-.36 0zm-23.437 3.917v3.117c0 .22.36.235.36 0v-3.117c0-.235-.36-.235-.36 0zm8.283.11v3.227c0 .219.36.235.36 0v-3.227c0-.235-.36-.235-.36 0zm-3.436.266v2.146c0 .219.361.235.361 0v-2.146c-.015-.235-.36-.235-.36 0zm1.177-.705v1.77c0 .219.36.235.36 0v-1.77c0-.22-.36-.22-.36 0zm11.405.062v3.275c0 .219.36.235.36 0v-3.275c-.015-.235-.36-.235-.36 0zm-2.965-.062v.799c0 .219.36.235.36 0v-.799c0-.22-.36-.22-.36 0zm9.992-.956v3.118c0 .219.362.235.362 0v-3.118c0-.235-.361-.235-.361 0zm1.57 2.24v1.88c0 .22.36.235.36 0v-1.88c-.015-.219-.36-.219-.36 0zm-5.648-1.284v2.741c0 .22.36.235.36 0v-2.741c0-.22-.36-.22-.36 0zm-17.366 4.089v3.493c0 .22.36.235.36 0v-3.493c0-.235-.36-.235-.36 0zm2.73 4.12v-3.494c0-.219-.361-.235-.361 0v3.494c0 .235.36.235.36 0zm1.129-.094V160.9c0-.22-.36-.235-.36 0v1.347c0 .219.36.219.36 0zm2.495-4.293v3.651c0 .219.36.235.36 0v-3.651c-.015-.235-.36-.235-.36 0zm.91 1.708v1.723c0 .22.36.235.36 0v-1.723c-.016-.219-.36-.219-.36 0zm1.239-.642v1.88c0 .219.36.235.36 0v-1.88c-.015-.22-.36-.22-.36 0zm4.031-1.066v3.807c0 .22.361.235.361 0v-3.807c-.016-.235-.36-.235-.36 0zm4.079 1.395v2.099c0 .219.36.235.36 0v-2.099c0-.235-.36-.235-.36 0zm5.585-1.504v4.026c0 .219.36.235.36 0v-4.026c0-.235-.36-.235-.36 0zm1.726 1.974v1.927c0 .219.36.235.36 0v-1.927c0-.22-.36-.22-.36 0zm2.964-1.77v3.008c0 .219.361.235.361 0v-3.008c-.015-.22-.36-.22-.36 0zm-22.496 8.976v-3.493c0-.22-.36-.235-.36 0v3.493c0 .22.36.22.36 0zm1.287-.062v-1.771c0-.219-.36-.235-.36 0v1.771c.015.235.36.235.36 0zm3.624-4.074v4.027c0 .219.36.235.36 0v-4.027c0-.235-.36-.235-.36 0zm3.231.643v2.475c0 .219.361.235.361 0v-2.475c-.016-.235-.36-.235-.36 0zm-1.13.485v.972c0 .219.362.235.362 0v-.972c-.016-.235-.361-.235-.361 0zm6.982-1.504v4.183c0 .22.36.235.36 0v-4.183c0-.235-.36-.235-.36 0zm1.348 1.818v1.88c0 .219.362.235.362 0v-1.88c-.016-.22-.361-.22-.361 0zm3.436-1.614v3.917c0 .219.361.235.361 0v-3.917c0-.219-.36-.219-.36 0zm6.244.329v3.384c0 .219.36.235.36 0v-3.384c-.015-.219-.36-.219-.36 0zm.957 1.457v1.614c0 .219.36.235.36 0v-1.614c0-.235-.36-.235-.36 0zm-4.016-11.86v-2.506c0-.22-.36-.235-.36 0v2.506c.015.22.36.235.36 0zm2.165-3.525v3.369c0 .219.36.235.36 0v-3.369c-.015-.219-.36-.235-.36 0zm1.631-6.705a2.55 2.55 0 011.255 2.428c-.015.22.33.22.361 0a2.857 2.857 0 00-1.427-2.726c-.204-.125-.393.173-.189.298zm-35.924 11.64a2.55 2.55 0 00-.22 2.256c.079.204.424.126.346-.094a2.233 2.233 0 01.188-1.989c.11-.188-.188-.376-.314-.173zm-1.773-1.77a6.064 6.064 0 00-1.333 3.964c0 .219.36.235.36 0a5.752 5.752 0 011.24-3.729c.125-.157-.126-.407-.267-.235zm37.54 4.998c.628.329 1.02.955 1.02 1.676 0 .219.361.235.361 0a2.21 2.21 0 00-1.192-1.974c-.204-.11-.393.188-.189.298z" fill="#161616"/><path opacity=".15" d="M56.593 143.666c.956-.125 3.2-.282 5.333 1.003a7.32 7.32 0 011.475 1.159c-.047.721-.11 1.442-.157 2.162-2.306.094-4.596.188-6.902.267.313.015 2.823.156 4.188 2.193a4.67 4.67 0 01.769 2.319 6.157 6.157 0 01-1.24 2.929 6.308 6.308 0 01-3.011 2.084c.25.125 1.443.799 1.85 2.24a3.68 3.68 0 010 1.927c-1.521 1.645-3.043 3.29-4.564 4.951l20.958.235c.267-.141.769-.47 1.082-1.081.518-1.003.267-2.209-.313-2.93-1.098-1.394-3.593-.908-3.875-.846.078-.047 1.35-1.002 1.24-2.553-.08-1.113-.848-1.786-1.005-1.927l-3.326-.235c.11-.11.942-1.019.77-2.319-.142-1.003-.817-1.849-1.773-2.24a184.78 184.78 0 003.796-.079c2.965-.078 3.64-.125 4.173-.689.721-.783.957-2.303.235-3.243-.392-.501-.925-.689-1.24-.768-1.16-.047-2.321-.109-3.482-.156.173 0 1.004.015 1.632-.611.611-.627.564-1.457.549-1.849-.016-.251-.11-1.285-.847-1.927-.77-.674-1.757-.486-3.561-.392-1.412.079-2.84-.062-4.252 0-2.95.126-5.93.267-8.502.376z" fill="#3D3D3D"/><path d="M78.351 162.999h41.682c.298 0 .298-.47 0-.47H78.351c-.298 0-.298.47 0 .47zm46.059.392c7.247-.564 14.479-.721 21.743-.11.298.031.298-.439 0-.47-7.264-.611-14.48-.454-21.743.11-.298.015-.298.485 0 .47zm19.64 2.475c3.907.345 7.781-.627 11.672-.877 4-.251 8.016 0 11.969.705.298.047.424-.408.126-.455-3.891-.689-7.844-.955-11.797-.736-3.985.219-7.969 1.253-11.97.893-.298-.031-.298.439 0 .47z" fill="#E8E8E8"/><path d="M146.498 162.701a30.928 30.928 0 01-4.503-4.214c-.298-.345-.58-.689-.862-1.034-.204-.251-.424-.517-.565-.799-.188-.376-.11-.642-.11-1.065 0-.737-.424-.705-.91-1.207-.737-.767-.847-1.88-1.067-2.867-.204-.924-.58-1.739-1.004-2.569-.988-1.99-1.443-4.261-2.039-6.392-.047.094-.11.188-.157.282 2.071-.282 4.314 1.269 5.961 2.397a25.61 25.61 0 012.416 1.88c.769.689 1.945 1.661 1.522 2.82-.063.157.094.298.219.298 1.287.047 2.259 1.331 2.95 2.287a12.71 12.71 0 011.631 2.961 12.846 12.846 0 01.706 6.658c-.047.298.408.423.455.126a13.273 13.273 0 00-.925-7.426 13.67 13.67 0 00-1.961-3.196c-.738-.893-1.632-1.849-2.871-1.896.078.094.157.204.219.298.361-.972-.204-1.865-.862-2.554-.848-.893-1.836-1.661-2.84-2.366-1.851-1.316-4.377-3.086-6.777-2.741-.125.015-.188.172-.157.282.612 2.177 1.067 4.465 2.087 6.501.517 1.05.863 2.037 1.114 3.181.172.846.423 1.723 1.051 2.365.266.282.737.439.784.846.031.376-.094.643.047 1.05.298.83 1.067 1.582 1.632 2.225 1.38 1.582 2.933 3.008 4.596 4.292.22.157.455-.25.22-.423z" fill="#E8E8E8"/><path d="M149.18 152.377c.549-2.021 2.181-3.776 3.467-5.374.345-.423.675-.83 1.02-1.237.282-.345.643-.987 1.129-1.066.204-.031.298.094.518-.047.235-.141.329-.423.455-.642.941-1.708 2.447-2.945 4.032-4.058 1.239-.877 2.463-1.754 3.074-3.196-.157-.047-.298-.078-.455-.125-.643 2.381-.643 4.747-.235 7.175.424 2.523.518 4.967-.172 7.473-1.318 4.779-4.942 7.99-8.629 11.03-.235.188.095.517.33.329 3.608-2.977 7.169-6.126 8.597-10.732a15.78 15.78 0 00.549-6.784c-.189-1.347-.487-2.663-.534-4.042a14.423 14.423 0 01.534-4.339c.078-.298-.345-.392-.455-.126-.722 1.724-2.495 2.601-3.906 3.682a14.707 14.707 0 00-2.008 1.833 8.67 8.67 0 00-.738.956c-.172.266-.439.987-.721 1.081-.189.062-.393-.047-.612.047-.314.125-.518.501-.722.736-.69.83-1.38 1.645-2.039 2.491-1.145 1.441-2.447 2.977-2.949 4.778-.063.329.392.455.47.157zm-11.954-7.128c1.412 1.002 2.479 2.35 3.53 3.713 1.114 1.41 2.212 2.835 3.247 4.308 1.993 2.82 3.734 5.844 4.66 9.196.078.298.533.173.454-.125-.956-3.478-2.776-6.611-4.863-9.525-1.019-1.426-2.086-2.805-3.169-4.183-1.082-1.395-2.18-2.758-3.639-3.776-.235-.188-.471.219-.22.392z" fill="#E8E8E8"/><path d="M160.758 140.69c-2.495 6.548-8.252 11.436-9.899 18.361-.063.298.376.423.455.125 1.631-6.924 7.404-11.812 9.899-18.361.109-.282-.346-.407-.455-.125z" fill="#E8E8E8"/><path d="M156.898 141.802a18.58 18.58 0 01-.423 6.455c-.079.297.376.423.455.125.518-2.162.674-4.371.439-6.58-.031-.298-.502-.298-.471 0zm1.428 4.434a33.765 33.765 0 004.189-3.102c.235-.204-.11-.533-.33-.329a32.092 32.092 0 01-4.094 3.023c-.267.173-.032.58.235.408zm-20.927 3.133c1.082-.031 2.604-.345 3.592.172.267.141.502-.266.236-.407-1.114-.595-2.62-.282-3.828-.235-.314.016-.314.486 0 .47zm5.93-2.381a16.784 16.784 0 00.063 4.527c.047.298.502.173.454-.125a16.596 16.596 0 01-.047-4.402c.047-.298-.423-.298-.47 0zm-9.648 21.338c2.541.141 5.051-.423 7.593-.376 2.431.047 4.8.689 7.232.297.298-.047.172-.501-.126-.454-2.479.407-4.926-.313-7.404-.313-2.432 0-4.848.517-7.295.376-.298-.032-.298.438 0 .47zm29.398-5.891a30.642 30.642 0 015.491-.251c1.804.079 3.592.298 5.412.141 1.773-.141 3.53-.423 5.318-.407 1.804.016 3.593.219 5.381.454.298.032.298-.438 0-.47-1.788-.219-3.577-.438-5.381-.454-1.882-.016-3.733.298-5.616.423-1.804.125-3.592-.11-5.396-.172a31.644 31.644 0 00-5.318.282c-.314.047-.189.501.109.454zM.306 165.443c4.863.674 9.679-.407 14.526-.736 2.573-.173 5.099.015 7.672.25 2.572.235 5.145.345 7.734.361 2.949.015 5.914-.063 8.863-.157.298-.016.298-.486 0-.47-3.31.094-6.636.188-9.946.141-3.247-.047-6.447-.407-9.679-.611-6.37-.423-12.691 1.645-19.045.768-.298-.032-.423.407-.125.454zm27.469 2.648c1.835 0 3.655-.439 5.475-.58a47.002 47.002 0 015.553-.094c.298.016.298-.454 0-.47a43.808 43.808 0 00-5.553.094c-1.82.141-3.656.58-5.475.58-.298 0-.298.47 0 .47zM17.813 66.633v93.969c0 .298.47.298.47 0V66.633c0-.297-.47-.297-.47 0zM57.314 60.9v80.714c0 .298.47.298.47 0V60.899c0-.297-.47-.297-.47 0zm.941 44.759a2633.767 2633.767 0 0026.748 10.967c.282.11.407-.345.125-.454a2680.667 2680.667 0 01-26.747-10.967c-.282-.11-.392.345-.126.454zm24.912 10.653v45.371c0 .298.47.298.47 0v-45.371c0-.297-.47-.297-.47 0zm42.858 45.199v-29.595c0-.297-.47-.297-.47 0v29.595c0 .297.47.297.47 0zm-4.376-28.529c9.585-4.121 19.201-8.257 28.316-13.364a128.476 128.476 0 007.686-4.653c.251-.172.016-.58-.235-.407-8.754 5.718-18.197 10.23-27.735 14.429a960.781 960.781 0 01-8.252 3.572c-.298.141-.047.532.22.423z" fill="#E8E8E8"/><path d="M133.744 126.903V78.117c0-.298-.471-.298-.471 0v48.786c0 .298.471.298.471 0z" fill="#E8E8E8"/><path d="M130.998 79.073h45.071c.298 0 .298-.47 0-.47h-45.071c-.313 0-.313.47 0 .47zm40.709 1.551v78.553c0 .297.471.297.471 0V80.624c0-.298-.471-.298-.471 0zM15.805 67.15c10.966-3.525 22.669-4.292 34.042-5.593 3.326-.376 6.651-.752 9.977-1.143.298-.032.298-.502 0-.47-5.93.673-11.875 1.363-17.805 2.036-5.632.643-11.295 1.254-16.864 2.335a82.16 82.16 0 00-9.475 2.381c-.283.094-.157.548.125.454zm5.381 11.406v-7.834c0-.297-.47-.297-.47 0v7.834c0 .297.47.297.47 0z" fill="#E8E8E8"/><path d="M20.81 70.691h4.612c.298 0 .298-.47 0-.47h-4.613c-.298 0-.298.47 0 .47z" fill="#E8E8E8"/><path d="M25.202 70.581v8.163c0 .297.47.297.47 0V70.58c0-.297-.47-.297-.47 0z" fill="#E8E8E8"/><path d="M21.013 79.057h4.095c.298 0 .298-.47 0-.47h-4.095c-.298 0-.313.47 0 .47zm13.413-.564V70.66c0-.298-.47-.298-.47 0v7.833c0 .298.47.298.47 0z" fill="#E8E8E8"/><path d="M34.065 70.613h4.612c.298 0 .298-.47 0-.47h-4.612c-.313 0-.313.47 0 .47z" fill="#E8E8E8"/><path d="M38.442 70.519v8.162c0 .298.47.298.47 0V70.52c0-.298-.47-.298-.47 0z" fill="#E8E8E8"/><path d="M34.254 78.979h4.094c.298 0 .298-.47 0-.47h-4.094c-.298 0-.298.47 0 .47zm13.773-.784v-7.833c0-.297-.47-.297-.47 0v7.834c0 .297.47.297.47 0z" fill="#E8E8E8"/><path d="M47.65 70.315h4.613c.298 0 .298-.47 0-.47H47.65c-.298 0-.298.47 0 .47z" fill="#E8E8E8"/><path d="M52.043 70.221v8.162c0 .298.47.298.47 0v-8.162c0-.313-.47-.313-.47 0z" fill="#E8E8E8"/><path d="M47.855 78.681h4.094c.298 0 .298-.47 0-.47h-4.094c-.298 0-.298.47 0 .47zm-31.469 21.902v30.957c0 .298.47.298.47 0v-30.957c0-.313-.47-.313-.47 0zm3.294 32.932v14.366c0 .297.47.297.47 0v-14.366c0-.298-.47-.298-.47 0zm-5.365-67.712a128.395 128.395 0 0115.405-4.308c.298-.063.172-.517-.126-.454a127.548 127.548 0 00-15.405 4.308c-.282.094-.157.548.126.454zM58.632 107.9c5.302 1.989 10.464 4.355 15.609 6.721.267.125.518-.282.235-.408-5.192-2.381-10.385-4.762-15.719-6.768-.282-.109-.407.345-.125.455zm3.075 16.559v-7.833c0-.298-.47-.298-.47 0v7.833c0 .314.47.314.47 0z" fill="#E8E8E8"/><path d="M61.346 116.595h4.612c.298 0 .298-.47 0-.47h-4.612c-.314 0-.314.47 0 .47z" fill="#E8E8E8"/><path d="M65.723 116.5v8.163c0 .297.47.297.47 0V116.5c0-.313-.47-.313-.47 0z" fill="#E8E8E8"/><path d="M61.534 124.96h4.095c.298 0 .298-.47 0-.47h-4.095c-.298 0-.298.47 0 .47zm66.578 7.473a159.569 159.569 0 0029.304-14.57c.251-.156.016-.564-.235-.407a158.983 158.983 0 01-29.195 14.523c-.282.11-.157.564.126.454zm45.039-50.697c.015 12.126.031 24.237.031 36.363 0 .297.471.297.471 0-.016-12.126-.032-24.237-.032-36.363 0-.297-.47-.297-.47 0zm-33.979-4.246h37.069c.298 0 .298-.47 0-.47h-37.069c-.299 0-.299.47 0 .47zm-.879 15.573V85.23c0-.298-.471-.298-.471 0v7.833c0 .313.471.313.471 0z" fill="#E8E8E8"/><path d="M137.932 85.198h4.612c.298 0 .298-.47 0-.47h-4.612c-.298 0-.298.47 0 .47z" fill="#E8E8E8"/><path d="M142.309 85.104v8.163c0 .297.471.297.471 0v-8.163c0-.313-.471-.313-.471 0z" fill="#E8E8E8"/><path d="M138.136 93.564h4.095c.298 0 .298-.47 0-.47h-4.095c-.314 0-.314.47 0 .47zm21.947-.501V85.23c0-.298-.471-.298-.471 0v7.833c0 .313.471.313.471 0z" fill="#E8E8E8"/><path d="M159.706 85.198h4.613c.298 0 .298-.47 0-.47h-4.613c-.298 0-.298.47 0 .47z" fill="#E8E8E8"/><path d="M164.099 85.104v8.163c0 .297.471.297.471 0v-8.163c0-.313-.471-.313-.471 0z" fill="#E8E8E8"/><path d="M159.91 93.564h4.095c.298 0 .298-.47 0-.47h-4.095c-.298 0-.298.47 0 .47z" fill="#E8E8E8"/><path d="M150.514 31.87c5.189 0 9.396-4.273 9.396-9.542 0-5.27-4.207-9.54-9.396-9.54-5.19 0-9.397 4.27-9.397 9.54s4.207 9.541 9.397 9.541z" stroke="#E8E8E8" stroke-width="3" stroke-miterlimit="10"/><path d="M139.674 59.192c2.604-1.77 5.773-.658 8.471.25 1.27.423 2.557.815 3.89.94 1.444.141 2.887-.015 4.299-.297 5.6-1.16 11.655-5.108 17.413-2.429.266.126.517-.282.235-.407-4.236-1.974-8.895-.423-13.036.987-2.416.83-4.91 1.66-7.499 1.723-2.651.063-4.973-1.018-7.467-1.707-2.165-.611-4.612-.784-6.557.532-.236.173 0 .58.251.408zm-117.28-8.539c4.534 1.3 8.989-.83 13.24-2.162 2.322-.72 4.769-1.3 7.216-.987 2.495.33 4.77 1.52 7.06 2.507 2.321 1.003 4.737 1.833 7.31 1.426.298-.047.173-.502-.125-.455-4.91.784-9.02-3.055-13.664-3.87-4.534-.798-8.848 1.364-13.084 2.617-2.557.752-5.208 1.206-7.828.454-.298-.078-.423.376-.125.47zm40.599 6.8c1.679-.047 3.153-.8 4.644-1.473.91-.407 1.85-.799 2.855-.877 1.114-.094 2.086.297 3.043.83 1.757.971 3.389 1.864 5.412 2.178 1.914.313 3.86.172 5.726-.392.282-.094.173-.548-.125-.454a12.26 12.26 0 01-6.385.203 11.921 11.921 0 01-2.887-1.096c-.862-.47-1.678-1.034-2.588-1.395-3.498-1.394-6.306 1.896-9.695 1.99-.298.031-.298.501 0 .486zm48.145-14.602c4.518 2.1 9.585 2.006 14.385 1.081 5.428-1.05 10.542-3.446 16.159-3.352a24.64 24.64 0 019.224 2.005c.282.125.518-.282.235-.407a24.902 24.902 0 00-14.966-1.536c-2.745.58-5.396 1.536-8.11 2.24-2.573.659-5.208 1.129-7.86 1.223-3.027.094-6.055-.36-8.816-1.645-.282-.141-.518.266-.251.391z" fill="#E8E8E8"/><path d="M57.016 128.971c.486 2.554.957 5.123 1.443 7.677-8.094 2.929-12.032 4.95-11.78 6.078.297 1.363 6.65 1.41 19.075.157-.533-5.327-1.067-10.653-1.6-15.996-2.385.705-4.77 1.395-7.138 2.084z" fill="#161616" stroke="#161616" stroke-width="3" stroke-miterlimit="10"/><path d="M94.901 96.964c-3.388 1.394-4.816 1.05-9.098 2.225-7.891 2.162-13.601 6.204-17.162 9.259l.517 17.484c-.36.423-4.314 4.903-10.306 4.292-4.126-.423-6.699-3.023-7.39-3.775a213.98 213.98 0 01.346-17.14c.22-3.493.502-6.877.863-10.12a49.592 49.592 0 012.4-3.087c8.252-9.807 18.135-14.162 23.515-16.45 5.366-2.287 8.723-3.713 13.727-4.12 1.333-.11 14.668-1.05 16.817 4.293 1.992 4.872-5.867 13.708-14.229 17.14z" fill="#fff" stroke="#161616" stroke-width="3" stroke-miterlimit="10"/><path opacity=".16" d="M108.267 78.18c-2.98-2.053-9.553 6.69-22.637 14.93-12.581 7.912-19.17 7.787-22.966 15.479-1.161 2.334-2.37 6.032-3.107 9.792a44.87 44.87 0 00-.705 11.64 16.793 16.793 0 003.53-.533c3.152-.83 5.396-2.412 6.714-3.525-.173-5.937-.361-11.875-.534-17.797a49.093 49.093 0 0110.417-6.517c8.832-4.09 12.142-2.335 19.42-6.518 1.679-.956 11.17-6.423 10.951-13.567-.063-1.144-.079-2.695-1.083-3.384z" fill="#3D3D3D"/><path opacity=".25" d="M109.491 81c-.659-.533-3.216 3.04-9.35 7.41-7.624 5.42-11.295 5.358-19.688 10.403-3.027 1.817-7.404 4.731-12.252 9.165a41.792 41.792 0 004.236-2.115c3.608-2.1 4.487-3.384 7.232-4.763.988-.486 2.84-.987 6.526-1.942 6.447-1.677 7.373-1.599 9.71-2.648 3.09-1.379 5.115-3.118 6.181-4.058 5.114-4.48 8.236-10.794 7.405-11.452z" fill="#3D3D3D"/><path opacity=".2" d="M68.374 108.15c-2.008 7.222-4 14.46-6.008 21.683a15.04 15.04 0 003.184-1.238 14.362 14.362 0 003.702-2.82c-.298-5.875-.58-11.75-.878-17.625z" fill="#3D3D3D"/><path d="M108.048 153.442c.486 2.554.956 5.123 1.443 7.677-7.326 3.682-10.809 5.969-10.495 6.862.392 1.081 6.306.141 17.727-2.804-.518-4.606-1.02-9.212-1.538-13.818-2.384.705-4.753 1.394-7.137 2.083z" fill="#161616" stroke="#161616" stroke-width="3" stroke-miterlimit="10"/><path d="M114.323 73.824a217.694 217.694 0 011.6 18.393c.517 12.016-.236 18.706-.361 27.589-.11 7.786.251 18.957 2.478 32.728a16.168 16.168 0 01-7.796 2.647 16.266 16.266 0 01-7.797-1.41 266.138 266.138 0 00-1.945-21.228 265.83 265.83 0 00-7.609-36.958c-1.882-2.6-3.78-5.185-5.663-7.786 6.856-4.84 13.695-9.666 20.551-14.507 2.165.188 4.345.36 6.542.532z" fill="#fff" stroke="#161616" stroke-width="3" stroke-miterlimit="10"/><path d="M89.819 89.146c-.487-.673-.957-1.363-1.444-2.036-.14.532-.282 1.065-.423 1.613 2.322-1.44 4.596-2.96 6.777-4.621 1.82-1.379 3.514-2.899 5.349-4.246 1.161-.862 2.353-1.676 3.546-2.49 1.145-.769 2.306-1.74 3.561-2.35.674-.33 1.474-.283 2.196-.283 1.381 0 2.745.047 4.11.125 1.506.079 1.506-2.271 0-2.35-1.365-.062-2.745-.125-4.11-.125-.878 0-1.788 0-2.62.266-1.302.423-2.478 1.442-3.592 2.21a126.205 126.205 0 00-3.812 2.631c-1.946 1.41-3.734 2.993-5.632 4.45-2.228 1.707-4.565 3.274-6.95 4.747-.502.313-.8 1.08-.423 1.613.486.674.957 1.363 1.443 2.037.863 1.222 2.902.047 2.024-1.19z" fill="#fff"/><path opacity=".14" d="M98.73 75.704a194.935 194.935 0 016.353 23.438c4.376 21.447 4.455 40.529 3.184 55.522.753.267 1.71.502 2.824.533 3.53.094 6.071-1.943 6.887-2.648a134.383 134.383 0 01-2.118-14.977c-1.161-13.708.298-21.479.533-33.135.142-7.081-.125-17.14-2.117-29.438l-15.547.706z" fill="#3D3D3D"/><path opacity=".2" d="M114.793 82.237a1226.96 1226.96 0 01-2.29 47.596 1174.51 1174.51 0 01-1.945 24.847 8.035 8.035 0 003.529-.172 8.047 8.047 0 003.703-2.288c-1.757-10.183-2.197-18.439-2.291-23.97-.172-10.465.816-15.807.534-28.027a199.164 199.164 0 00-1.24-17.986z" fill="#3D3D3D"/><path d="M50.631 18.584c.204-.47-1.804-1.442-1.6-1.99.204-.564 2.698-.705 4.377.533 1.757 1.284 1.647 3.164 2.651 5.577 1.145 2.71 2.95 4.183 5.695 6.439 1.647 1.363 8.079 6.47 17.35 6.188 4.204-.125 7.718-1.331 10.323-2.6-.361 4.496-.738 9.008-1.099 13.504-2.133.486-5.067.909-8.502.611-12.487-1.08-20.504-10.7-22.982-13.661a42.725 42.725 0 01-5.444-8.35c-1.475.438-3.765.94-6.51.658-1.946-.188-4.267-.784-4.252-1.332.016-.72 4.016-1.206 3.985-1.457-.031-.22-3.185.642-3.985-.533-.627-.924.251-3.008 1.726-3.854.455-.25.973-.407 2.259-.391 3.483 0 5.82 1.08 6.008.658z" fill="#fff" stroke="#161616" stroke-width="3" stroke-miterlimit="10"/><path d="M40.591 21.278c.8-.188 1.726.204 2.542.235a8.99 8.99 0 002.149-.172c.298-.063.172-.517-.126-.454a8.205 8.205 0 01-2.698.093c-.69-.093-1.302-.313-1.992-.156-.298.063-.173.517.125.454zm.659-1.551c.941-.188 1.773.204 2.683.251.8.047 1.6-.11 2.384-.313.298-.079.173-.533-.125-.455-1.02.267-2.008.392-3.06.173-.705-.141-1.301-.267-2.023-.126-.282.079-.157.533.141.47zm8.675.47a3.984 3.984 0 003.044 1.254c.298-.016.298-.486 0-.47a3.375 3.375 0 01-2.699-1.113c-.22-.22-.549.11-.345.33z" fill="#161616"/><path opacity=".18" d="M40.638 22.046c.047-.423 3.467-.533 6.605-.078 1.694.235 3.341.47 4.894 1.206 3.389 1.582 4.503 4.606 6.26 7.379 0 0 3.937 6.157 10.98 9.604 6.998 3.415 14.982 1.128 19.485-.69l-.518 6.768c-4.157.846-7.483.643-9.616.345C66.852 44.904 59.4 35.786 56.436 32.167c-2.4-2.93-4-5.625-4.973-7.458-1.553.564-3.86 1.144-6.605.862-1.898-.204-4.141-.83-4.125-1.379.03-.705 3.812-1.128 3.78-1.284-.015-.079-1.082.156-2.4-.173-.518-.125-1.49-.454-1.475-.689z" fill="#3D3D3D"/><path opacity=".24" d="M76.265 43.901c5.6.078 9.93-2.115 12.189-3.51-.079 2.006-.173 3.996-.251 6.001-3.106.517-8.55.956-14.762-1.034C62.193 41.77 56.67 32.84 55.243 30.349c.455.815 7.844 13.38 21.022 13.552z" fill="#3D3D3D"/><path opacity=".19" d="M45.972 24.615c3.357.016 5.616-.485 5.663-.25.032.188-1.364.752-2.84 1.034-4.282.814-8.204-.956-8.157-1.207.047-.172 1.805.408 5.334.423z" fill="#3D3D3D"/><path d="M49.643 11.769a4.42 4.42 0 004.424-4.418 4.42 4.42 0 00-4.424-4.418 4.421 4.421 0 00-4.424 4.418 4.42 4.42 0 004.424 4.418z" fill="#EC615B"/><path d="M48.749 12.05a5.025 5.025 0 005.02-5.028 5.024 5.024 0 00-5.02-5.03 5.025 5.025 0 00-5.02 5.03 5.025 5.025 0 005.02 5.029z" stroke="#161616" stroke-width="2" stroke-miterlimit="10"/><path d="M49.44 4.264c-.99-.062-3.53.893-2.59 2.319.55.83 1.617.282 2.385.486.989.266.879 1.457.267 2.036-.643.596-1.553.502-2.165-.047-.22-.203-.565.126-.33.33 1.24 1.127 3.452.485 3.452-1.348 0-.83-.565-1.363-1.35-1.457-.58-.078-2.211.36-1.835-.83.251-.815 1.46-1.066 2.18-1.019.299.016.299-.454-.015-.47z" fill="#161616"/><path d="M48.906 4.484c.047-.517.094-1.019.14-1.536.032-.297-.438-.297-.47 0-.047.517-.094 1.019-.14 1.536-.032.297.438.297.47 0zm-.314 5.608c.047.36.094.737.126 1.097.03.298.501.298.47 0-.047-.36-.094-.736-.125-1.097-.032-.297-.502-.297-.471 0z" fill="#161616"/><path d="M94.164 31.618c-.518.032-2.259.11-4.487.658a21.75 21.75 0 00-2.855.909c-1.05 2.13-2.4 5.42-2.902 9.588-.721 5.938.722 9.76 1.71 15.667.675 4.057 1.224 9.932.47 17.358 1.6 1.457 5.774 4.857 12.112 5.734 8.973 1.254 15.562-3.478 16.926-4.496a521.905 521.905 0 002.322-15.823 510.525 510.525 0 002.792-26.508c-4.345-4.09-8.11-5.186-10.761-5.405-5.099-.44-9.71 2.005-15.327 2.318z" fill="#EC615B"/><path opacity=".17" d="M101.208 35.566c.972 1.003 2.306 2.523 3.498 4.59 5.726 9.933 2.181 21.527.596 26.665-1.098 3.604-3.184 8.883-7.294 14.586 1.568.266 3.545.423 5.804.204 5.365-.533 9.256-2.961 11.201-4.403a378.233 378.233 0 003.702-26.664c.565-5.515.988-10.889 1.302-16.074a17.713 17.713 0 00-2.808-2.194c-2.024-1.3-5.208-3.321-8.801-2.694-4.58.783-6.902 5.358-7.2 5.984z" fill="#3D3D3D"/><path opacity=".11" d="M119.311 38.057a152.2 152.2 0 00-3.294 10.293c-3.734 13.145-3.467 18.785-8.001 25.568-1.38 2.068-3.702 4.998-7.608 7.896a25.911 25.911 0 007.906-1.3 25.69 25.69 0 006.605-3.29 269.588 269.588 0 003.106-21.181 286.395 286.395 0 001.286-17.986z" fill="#3D3D3D"/><path d="M112.032 68.216c-.329-.611.016-1.52.534-2.006.957-.908 2.698-.564 3.482.423.11.141.643.8.424 1.363-.471 1.144-3.765 1.442-4.44.22z" fill="#fff" stroke="#161616" stroke-width="3" stroke-miterlimit="10"/><path d="M116.456 32.042a40.816 40.816 0 018.001 7.253 41.165 41.165 0 016.322 10.2 41.649 41.649 0 012.212 6.626c-1.396 3.212-4.016 7.943-8.848 12.095a32.234 32.234 0 01-5.051 3.572c-.832.924-1.993 2.1-3.53 3.306-1.004.799-2.369 1.864-2.683 1.598-.251-.22.189-1.3.863-2.053.8-.877 1.789-1.143 1.773-1.19-.016-.047-.894.11-1.71.736-.941.736-.894 1.426-1.365 1.535-.988.235-3.263-2.146-2.918-4.559.283-2.02 2.275-3.102 2.95-3.478 1.851-1.018 3.655-.83 4.314-.736 2.353-3.65 4.706-7.285 7.059-10.935a26.564 26.564 0 01-2.416-2.21c-1.082-1.112-4.126-4.276-5.585-8.616-1.961-5.828-.157-11.202.612-13.144z" fill="#fff" stroke="#161616" stroke-width="3" stroke-miterlimit="10"/><path d="M109.899 73.15c.58-1.284 1.568-2.287 2.855-2.85.282-.126.031-.534-.236-.408a5.934 5.934 0 00-3.027 3.023c-.126.267.282.502.408.235zm1.725 2.178c-.486-1.472.942-2.992 2.118-3.666.267-.156.032-.564-.235-.407-1.365.783-2.902 2.507-2.338 4.199.095.282.549.156.455-.126z" fill="#161616"/><path opacity=".18" d="M115.734 34.626a87.896 87.896 0 017.374 8.648c3.984 5.311 5.961 7.975 6.102 10.779.251 5.201-3.655 11.703-8.801 14.178-1.49.721-5.365 2.178-7.592 5.03-.644.814-1.303 1.942-1.067 2.193.204.203.957-.33 1.208-.079.298.298-.424 1.207-.22 1.41.251.251 1.647-.642 3.059-1.77a27.464 27.464 0 003.2-3.055 31.929 31.929 0 004.691-3.259c5.13-4.277 7.891-9.274 9.365-12.69a44.496 44.496 0 00-1.772-5.39c-2.604-6.47-6.087-10.652-7.232-11.968a40.174 40.174 0 00-7.593-6.8c-.251.925-.486 1.849-.722 2.773z" fill="#3D3D3D"/><path opacity=".21" d="M130.779 58.299c-1.506 1.942-2.275 3.18-2.902 4.104-1.193 1.724-2.965 3.369-6.526 6.659a163.92 163.92 0 01-5.115 4.543c-2.227 1.927-3.31 2.914-3.263 2.977.063.078 2.212-1.551 6.464-4.888.8-.47 1.929-1.16 3.2-2.131 7.31-5.593 10.589-13.63 10.291-13.818-.126-.063-.8.799-2.149 2.554z" fill="#3D3D3D"/><path d="M90.885 5.925c-4.612 3.776-4.423 11.437-2.62 16.387 1.146 3.134 2.981 5.28 4.19 6.47l-.754 5.453a15.14 15.14 0 005.585 1.363c6.118.297 10.495-3.275 11.687-4.309-1.082-3.619-2.165-7.238-3.247-10.872-.141-1.019-.377-2.585-.628-4.497-.674-4.982-.643-5.248-.941-6.063-.125-.329-2.008-5.107-6.385-5.953-3.53-.658-6.447 1.66-6.887 2.021z" fill="#fff" stroke="#161616" stroke-width="3" stroke-miterlimit="10"/><path d="M87.09 18.678a13.75 13.75 0 00-.362 4.668c.126 1.316.345 3.604 1.993 5.813 1.772 2.381 4.157 3.29 5.176 3.619a5.865 5.865 0 01-.22-.987 4.796 4.796 0 010-1.066c1.083.596 2.181 1.175 3.264 1.77 2.745-2.522 3.655-4.84 3.969-6.517.251-1.316.408-3.728.988-8.146.11-.784.314-2.194 1.208-2.554a1.364 1.364 0 011.349.22c1.083.908-.016 3.54.22 3.618.235.079 2.133-2.569 1.49-5.593-.329-1.566-1.239-2.647-1.773-3.18a104.051 104.051 0 01-3.969 5.812c-.925 1.27-1.85 2.46-2.76 3.62-.346.187-.863.391-1.46.344-.47-.047-.627-.204-.972-.298-1.286-.36-1.977 1.16-3.247.956-1.036-.172-1.13-1.285-2.275-1.316-.55-.016-.769.235-1.334.125-.596-.172-1.02-.58-1.286-.908z" fill="#161616" stroke="#161616" stroke-width="3" stroke-miterlimit="10"/><path d="M92.423 14.228a36.204 36.204 0 00-.753 5.5c-.016.187.204.281.36.203.644-.329 1.303-.674 1.946-1.003.267-.14.031-.548-.235-.407-.644.329-1.302.674-1.946 1.003.126.062.236.14.361.203.11-1.817.345-3.603.737-5.373.047-.298-.407-.423-.47-.126z" fill="#161616"/><path d="M89.913 16.108c.2 0 .36-.407.36-.908 0-.502-.16-.909-.36-.909-.2 0-.361.407-.361.909s.162.908.36.908zm6.087 0c.268 0 .486-.407.486-.908 0-.502-.218-.909-.486-.909-.269 0-.487.407-.487.909s.218.908.487.908z" fill="#161616" stroke="#161616" stroke-width="3" stroke-miterlimit="10"/><path d="M89.034 13.43c.298-.55.957-.424 1.444-.252.282.095.407-.36.125-.454-.69-.25-1.569-.266-1.977.47-.14.25.267.501.408.235zm5.93-.643c.737-.705 1.867-.642 2.495.204.172.235.58 0 .407-.235-.8-1.081-2.243-1.222-3.231-.298-.22.204.11.533.33.33z" fill="#161616"/><path d="M83.45 10.547c6.604.391 13.193.94 19.75 1.66.894.094.894-1.316 0-1.41a397.822 397.822 0 00-19.75-1.66c-.91-.047-.91 1.363 0 1.41z" fill="#161616"/><path d="M87.717 9.575c.11-1.018.517-3.634 2.525-5.765 2.62-2.773 7.468-3.932 11.233-1.582 2.949 1.848 4.533 5.42 4 9.055a7500.75 7500.75 0 01-17.758-1.708z" fill="#5222D0"/><path opacity=".69" d="M96.062 1.507c-.768.642-.768 2.005-.502 3.447.298 1.582 1.067 3.51 2.212 5.499 2.573.297 5.146.61 7.718.908a8.1 8.1 0 00.126-2.35s-.173-1.786-1.114-3.4c-1.882-3.227-6.808-5.483-8.44-4.104z" fill="#3A1DA3"/><path opacity=".24" d="M104.126 19.9a2.025 2.025 0 01-1.365.188c.502.955 2.055 4.182 1.302 8.35-.722 3.963-3.075 6.36-3.891 7.128a19.712 19.712 0 003.436-1.034 19.345 19.345 0 005.381-3.305l-3.765-13.207c0 .078-.063 1.331-1.098 1.88z" fill="#3D3D3D"/><path opacity=".19" d="M98.321 11.69c.189.8.345 2.005.157 3.415-.33 2.382-1.474 4.027-2.07 4.794.36-.11.721-.235 1.082-.344a85.73 85.73 0 002.18-2.773 99.739 99.739 0 003.295-4.653c-1.553-.141-3.09-.298-4.644-.439z" fill="#3D3D3D"/></svg>