<svg width="45" height="45" fill="none" xmlns="http://www.w3.org/2000/svg"><path d="M43.453 19.688l-4.078-4.076V5.625a2.82 2.82 0 00-2.813-2.813H33.75a2.82 2.82 0 00-2.813 2.813V7.18l-5.625-5.62C24.546.836 23.843 0 22.5 0c-1.342 0-2.045.835-2.813 1.56L1.547 19.689C.669 20.602 0 21.267 0 22.5c0 1.583 1.215 2.813 2.813 2.813h2.812v16.875A2.82 2.82 0 008.438 45h8.437V30.937a2.82 2.82 0 012.813-2.812h5.625a2.82 2.82 0 012.812 2.813V45h8.438a2.82 2.82 0 002.812-2.813V25.314h2.813c1.597 0 2.812-1.23 2.812-2.813 0-1.232-.67-1.898-1.547-2.813z" fill="#fff"/></svg>