<svg width="25" height="25" fill="none" xmlns="http://www.w3.org/2000/svg"><path d="M15.108 17.626s2.025-1.159 2.555-1.438c.529-.279 1.076-.35 1.409-.146.503.307 4.731 3.12 5.087 3.369.356.25.527.962.038 1.66-.488.698-2.736 3.458-3.69 3.428-.954-.03-4.923-.117-12.406-7.603C.619 9.413.531 5.443.5 4.489.47 3.535 3.23 1.285 3.928.798 4.627.31 5.34.494 5.588.837c.282.39 3.062 4.604 3.368 5.087.21.33.133.881-.147 1.41-.278.53-1.437 2.555-1.437 2.555s.817 1.393 3.58 4.155c2.764 2.764 4.156 3.582 4.156 3.582z" fill="#fff"/></svg>