<svg width="50" height="50" fill="none" xmlns="http://www.w3.org/2000/svg"><path d="M27.026 34.908c.279.44.601.837.762 1.396.362.357.67.768.889 1.267.46.257.685.752 1.014 1.143.808.545 1.531 1.175 2.409 1.648.947.281 1.973.48 3.298.382.19-.067.32-.189.51-.254.833-.223 1.133-.98 1.774-1.396a11.59 11.59 0 002.03-1.141c.73-.709 1.289-1.587 1.776-2.537.247-1.485.426-3.042.38-4.821-.188-.667-.182-1.636-.507-1.903-.038-.032.026-.207 0-.253-.126-.227-.28-.462-.38-.635-.061-.105-.248-.268-.254-.38-.013-.25-.291-.271-.38-.38-.165-.204-.244-.5-.38-.635-.101-.098-.26-.043-.38-.127-.107-.073-.15-.298-.255-.38-.11-.087-.259-.043-.38-.127-.104-.073-.144-.311-.255-.381-.157-.1-.34-.046-.507-.127-.096-.047-.255-.193-.38-.253-1.272-.62-2.775-.897-4.44-1.015-.072-.774-.328-1.363-.507-2.03v-2.664c.2-.351.395-.706.508-1.142.255-.336.472-.712.634-1.141.578-.605.957-1.41 1.648-1.903.466-.38.92-.772 1.522-1.015.297-.042.524-.152.763-.253.33-.05.694-.066.886-.253.836.074 1.47-.054 1.904-.381.554-.993.105-2.68-.508-3.298-.604-.285-1.496-.28-2.41-.253-.6.288-1.512.264-2.03.634-1.54.235-2.658.894-3.932 1.395-.347.414-.86.663-1.27 1.015a5.71 5.71 0 01-1.141 1.141c-.405.863-.979 1.558-1.395 2.41-.49.78-.905 1.633-1.395 2.41-1.17 4.18-1.396 10.432-.253 14.842.227.448.486.866.632 1.395zm9.896-.127c-.164.218-.263.5-.635.508-.025.38-.526-.121 0 0 .163-.218.263-.5.635-.508-.014-.154.184-.077 0 0zm-5.963-6.722c.729.008.346-1.093 1.141-1.015v1.14c.43 1.01.708 2.17 1.523 2.792.763-.168.914-.947 1.395-1.396.018-.448.363-.567.38-1.014.206-.26.1-.832.382-1.016.537-.046.111.55.127.761-.05.33-.066.696-.254.888.08.798-.364 1.073-.382 1.776-.401.316-.356 1.079-.76 1.395-.033.564-.646 1.065-.254 1.649.644.093.785-.314 1.141-.507 1.219-1.32 2.107-2.969 2.665-4.947.505.305-.015.853.127 1.522-.253 1.437-.916 2.467-1.394 3.679-.505.638-1.211 1.073-1.525 1.902-.873.015-1.843-.068-2.535.127-.09.639.227.872.38 1.269.268.28.833.266.762.888-2.026-.513-3.072-2.004-4.06-3.552.064-.612.369-.984.253-1.776-.247-1.106-.781-1.924-1.141-2.918.244-.343.28-.777.507-1.14.186-.299.468-.573.76-.762.28-.28.423.223.762.255zm-1.268-3.298c-.33.05-.383.378-.761.38.103-.658.532-.99.634-1.65.288.177.048.884.127 1.27zm-.508-5.202c.378-.552.685-1.175 1.014-1.775.373.108-.163.319 0 .633-.262.032-.034.557-.252.634v1.396c.08.344-.161 1.007.126 1.14-.17.296-.21.722-.38 1.016-.279-.144-.518-.327-1.014-.253.095-1.004.374-1.822.506-2.791zm-22.577 8.88c.033.43-.098 1.028.125 1.268.009.5.061.954.255 1.269.159 1.742 1.05 2.754 1.268 4.44.37.348.609.827.889 1.268.244.515.703.818 1.015 1.268.096.029.25.003.252.127 1.874.833 4.653.76 7.23.888.164-.008.177-.163.381-.127.796-.473 1.482-1.056 2.03-1.776.679-.548 1.122-1.329 1.649-2.03.427-1.136.64-2.488.635-4.059-.19-.023-.117-.306-.129-.507-1.288-2.474-2.953-4.572-6.088-5.2-1.183-.008-1.685-.097-2.79 0-.707-1.19-.761-3.441-.508-5.202.3-.42.398-1.038.76-1.395.103-.617.577-.861.762-1.395.511-.208.568-.87 1.142-1.016.206-.512.866-.57 1.14-1.015a48.997 48.997 0 003.298-1.522c.305.078.58.183 1.015.127.144-.79 1.073-.084 1.523-.634.414-.747.418-1.925.254-2.917-.162-.347-.51-.507-.762-.762-.24-.267-.2-.812-.76-.76-.335-.384-1.22-.218-1.902-.253-1.372.192-2.422.707-3.553 1.14-.935.67-1.89 1.323-2.79 2.03-.368.477-.818.873-1.141 1.396-.473.374-.692.999-1.27 1.268-.696 1.036-1.568 1.9-1.9 3.299-.607 1.084-.893 2.49-1.27 3.805-.283 1.45-.618 2.848-.888 4.313v1.395c.08.386-.162 1.093.128 1.269zm10.019-16.236c.34-.421 1.007-.516 1.396-.889.614-.021 1.127-.674 1.65-.38.225.945-.914.524-1.396.76-.535.186-1.008.432-1.65.509.013.153-.184.078 0 0zm.762 23.593c.065.066-.091.162-.126.127-.068-.066.091-.162.126-.127zm-1.269-7.61c.065.066-.092.161-.127.126-.065-.066.093-.161.127-.127zm-3.932.887c.415.474-.306 2.082.634 2.03.777.058.664-.774 1.015-1.142v-1.014c-.004-.3.219-.374.127-.762-.203-.5.548-.043.508-.38.287.135.048.797.127 1.142.188.488-.045 1.397.507 1.522.855-.16.835-1.194 1.016-2.03.74.292.357 1.05.38 1.902-.328.52-.41 1.282-.761 1.777-.145.7-.866.824-.888 1.649.477.622 1.684.07 1.902-.38.37.177-.226.436-.128.76-.297.04-.282.393-.507.507-.268.452-.769.669-.887 1.27.305.545 1.512.173 1.902 0-.038.341-.534.227-.634.506-1.384-.178-2.989-.14-4.439-.253-.03-.183-.379-.044-.383-.254-.165-.045-.197-.224-.378-.254.318-.902-.585-1.472-.634-2.41.323-1.578.968-2.837 1.521-4.186zM10.41 24.38c.387.122.277.739.508 1.015.112.354.304.627.381 1.015-.168.127-.472.12-.508.38-.465-.466-.39-1.47-.38-2.41z" fill="#000"/></svg>